<?xml version="1.0" encoding="UTF-8"?>
<svg version="1.1" xmlns="http://www.w3.org/2000/svg" viewBox="0 0 1000 284" preserveAspectRatio="xMidYMid meet">
<path d="M0 0 C2.14335707 1.75327092 4.22764655 3.55040714 6.3125 5.375 C7.44365234 6.35533203 7.44365234 6.35533203 8.59765625 7.35546875 C30.06173112 27.36869164 38.5795711 57.31640297 39.59765625 85.79296875 C40.30608532 120.09105637 32.4042288 151.34816962 8.6484375 176.96875 C-0.66414775 186.56164718 -10.6841591 193.51708214 -22.6875 199.375 C-19.10468286 208.32214556 -13.37986207 214.66354418 -6.6875 221.375 C-6.06230469 222.02339844 -5.43710938 222.67179688 -4.79296875 223.33984375 C4.48598463 232.24177419 17.53684549 238.54265798 29.3125 243.375 C29.3125 244.035 29.3125 244.695 29.3125 245.375 C0.02286702 254.89594769 -27.57623549 256.41972645 -55.875 242.6875 C-67.91487346 236.53233281 -88.22544953 223.76115141 -92.6875 210.375 C-91.16382812 209.70017578 -91.16382812 209.70017578 -89.609375 209.01171875 C-67.04232612 198.62961015 -53.21590506 179.70726183 -44.484375 156.7578125 C-38.20115573 139.31191363 -34.18865435 120.96128954 -33.6875 102.375 C-33.66703613 101.66907715 -33.64657227 100.9631543 -33.62548828 100.23583984 C-32.70550608 63.65704327 -38.75666121 23.1720734 -64.6875 -4.625 C-65.22375 -5.25148438 -65.76 -5.87796875 -66.3125 -6.5234375 C-73.51411117 -14.48121785 -84.0328459 -20.18385912 -93.6875 -24.625 C-93.6875 -24.955 -93.6875 -25.285 -93.6875 -25.625 C-62.4521392 -31.07351167 -24.59748918 -19.35441084 0 0 Z " fill="currentColor" transform="translate(198.6875,28.625)"/>
<path d="M0 0 C-0.58674665 3.4595192 -1.77293029 5.11981729 -4.1875 7.625 C-19.14379117 24.3480221 -25.24170504 49.9764769 -26 72 C-26.03996094 73.04671875 -26.07992187 74.0934375 -26.12109375 75.171875 C-26.61841205 101.03242636 -21.11997634 131.93907126 -3 151.5 C-2.401875 152.0878125 -1.80375 152.675625 -1.1875 153.28125 C0 155 0 155 -0.05078125 157.0234375 C-1.30584711 159.63686682 -2.75501742 160.56853711 -5.1875 162.125 C-5.94417969 162.62257812 -6.70085937 163.12015625 -7.48046875 163.6328125 C-16.35772719 168.44992948 -27.52311862 168.36192488 -37.26953125 166.3125 C-39.97902817 165.38220063 -42.45263894 164.30832464 -45 163 C-45.83660156 162.57589844 -46.67320313 162.15179688 -47.53515625 161.71484375 C-66.65897248 151.10363815 -78.91589296 131.88323871 -84.875 111.25 C-92.95043089 80.81789285 -89.82598056 47.5407464 -74.8125 19.8125 C-66.68505486 6.60983802 -54.34490824 -5.41000657 -38.99609375 -9.578125 C-23.73857833 -12.80280536 -11.97258778 -9.78685649 0 0 Z " fill="currentColor" transform="translate(91,43)"/>
<path d="M0 0 C3.08371339 2.21979368 4.20829223 5.37379728 5.6953125 8.7578125 C6.03054932 9.49386719 6.36578613 10.22992188 6.71118164 10.98828125 C9.96472163 18.19078578 13.06116179 25.46660637 16.12573242 32.7512207 C16.48771729 33.6093335 16.84970215 34.46744629 17.22265625 35.3515625 C17.54355225 36.11791016 17.86444824 36.88425781 18.19506836 37.67382812 C18.87640513 39.4298487 18.87640513 39.4298487 20.0078125 40.4453125 C20.49660889 39.30989014 20.98540527 38.17446777 21.48901367 37.00463867 C23.30921052 32.78779889 25.1496711 28.58006295 26.99633789 24.37475586 C27.79224945 22.55458019 28.58266907 20.73199266 29.36743164 18.90698242 C30.49746068 16.28168409 31.64705949 13.6657385 32.80078125 11.05078125 C33.14682907 10.23506149 33.49287689 9.41934174 33.84941101 8.5789032 C35.84020002 4.12528789 37.26016002 1.36580141 42.0078125 -0.5546875 C45.5078125 -1.0546875 45.5078125 -1.0546875 49.0078125 -0.5546875 C52.15524769 1.95046592 53.8021767 3.4619479 54.63600159 7.44935608 C54.63696335 8.56314133 54.63792511 9.67692657 54.63891602 10.82446289 C54.65144913 12.09250259 54.66398224 13.3605423 54.67689514 14.66700745 C54.66462774 16.04233837 54.65120785 17.41765943 54.63671875 18.79296875 C54.63754793 20.21113771 54.64000919 21.62930658 54.64402771 23.04747009 C54.64688132 26.01412006 54.6322273 28.98001319 54.60473633 31.9465332 C54.57062147 35.7455026 54.57668531 39.543122 54.5953989 43.34215641 C54.60597554 46.26850097 54.59702591 49.19453226 54.58201408 52.1208477 C54.57683867 53.52144884 54.57730633 54.92208278 54.58355904 56.32267952 C54.58901934 58.28034839 54.56576786 60.23803357 54.54125977 62.19555664 C54.53506119 63.3085463 54.52886261 64.42153595 54.5224762 65.56825256 C53.88826568 69.11360009 52.89891018 70.34301178 50.0078125 72.4453125 C43.68638393 72.12388393 43.68638393 72.12388393 42.0078125 70.4453125 C41.88517862 68.88082867 41.83001728 67.31098478 41.80249023 65.74194336 C41.7725724 64.24050026 41.7725724 64.24050026 41.74205017 62.70872498 C41.72533768 61.6201973 41.70862518 60.53166962 41.69140625 59.41015625 C41.67062515 58.30176895 41.64984406 57.19338165 41.62843323 56.05140686 C41.56281627 52.49527442 41.50399654 48.93906547 41.4453125 45.3828125 C41.40213882 42.97850757 41.35852492 40.57421051 41.31445312 38.16992188 C41.20712258 32.26180065 41.10537919 26.35360259 41.0078125 20.4453125 C40.60989502 21.39897705 40.21197754 22.3526416 39.80200195 23.33520508 C38.31755665 26.88110485 36.81244645 30.41791683 35.30102539 33.95239258 C34.65051879 35.481577 34.00559553 37.01314935 33.36645508 38.54711914 C32.44519371 40.75542631 31.50400088 42.95428433 30.55859375 45.15234375 C30.27816727 45.83682083 29.99774078 46.52129791 29.70881653 47.22651672 C27.87357302 51.42553301 26.28638976 53.67490988 22.0078125 55.4453125 C16.06442416 55.24036807 16.06442416 55.24036807 13.49291992 53.30541992 C11.39818252 50.68174669 10.22504348 47.87844017 8.87109375 44.80859375 C8.58679001 44.16915329 8.30248627 43.52971283 8.00956726 42.87089539 C7.10661623 40.83601902 6.21336515 38.79704956 5.3203125 36.7578125 C4.70831816 35.37406756 4.09569493 33.99060057 3.48242188 32.60742188 C1.98358539 29.22324216 0.4934163 25.83532551 -0.9921875 22.4453125 C-0.99805374 23.01272156 -1.00391998 23.58013062 -1.00996399 24.16473389 C-1.07389243 30.06978693 -1.15831046 35.9742947 -1.25463867 41.87890625 C-1.28789538 44.08260917 -1.31592496 46.28639741 -1.33862305 48.49023438 C-1.37215488 51.65792205 -1.42447086 54.82482719 -1.48046875 57.9921875 C-1.49005363 59.47051056 -1.49005363 59.47051056 -1.49983215 60.97869873 C-1.51962631 61.8993512 -1.53942047 62.82000366 -1.55981445 63.76855469 C-1.57646904 64.98100861 -1.57646904 64.98100861 -1.59346008 66.21795654 C-2.09321306 69.00965763 -3.04132648 70.40684102 -4.9921875 72.4453125 C-8.07686923 72.89516192 -10.02382762 73.10303757 -12.65641785 71.31494141 C-14.61376256 68.57531616 -14.36632155 66.43784067 -14.36450195 63.09375 C-14.37073074 61.78229004 -14.37695953 60.47083008 -14.38337708 59.11962891 C-14.37468901 57.68651958 -14.36537103 56.25341395 -14.35546875 54.8203125 C-14.3549501 53.35205079 -14.35546799 51.88378837 -14.35697937 50.41552734 C-14.35688966 47.3387617 -14.34646323 44.26225815 -14.32836914 41.18554688 C-14.30568183 37.24100748 -14.30513794 33.29685108 -14.31188679 29.3522644 C-14.31522773 26.32052199 -14.30859435 23.28886695 -14.29875755 20.25714111 C-14.29490741 18.80267799 -14.29375657 17.34820515 -14.2953434 15.89373779 C-14.2957141 13.86142803 -14.28161664 11.82913112 -14.2668457 9.796875 C-14.26223831 8.64010254 -14.25763092 7.48333008 -14.25288391 6.29150391 C-13.9921875 3.4453125 -13.9921875 3.4453125 -11.9921875 0.4453125 C-7.96415494 -0.89736502 -4.13184155 -1.15043431 0 0 Z " fill="currentColor" transform="translate(376.9921875,45.5546875)"/>
<path d="M0 0 C4.69027358 2.58773715 7.94123389 5.82778156 9.65234375 11 C11.20446553 18.11389151 11.0738836 24.47275475 7.65234375 31 C3.14502468 36.45622835 -1.72920745 38.86061146 -8.34765625 41 C-7.80238281 41.66644531 -7.25710938 42.33289063 -6.6953125 43.01953125 C-5.11060929 44.95639072 -3.53017006 46.89674371 -1.953125 48.83984375 C-0.24242034 50.93472934 1.50316112 52.96930157 3.2890625 55.00390625 C4.11019531 55.95136719 4.93132813 56.89882812 5.77734375 57.875 C6.54304687 58.73867187 7.30875 59.60234375 8.09765625 60.4921875 C9.65234375 63 9.65234375 63 9.51953125 65.7578125 C8.65234375 68 8.65234375 68 6.65234375 69 C3.28720365 69.72110145 1.8591126 69.97760792 -1.34765625 69 C-5.2102821 65.79497822 -8.25508382 61.92906072 -11.34765625 58 C-11.8379834 57.38527832 -12.32831055 56.77055664 -12.83349609 56.13720703 C-15.28008596 53.0674218 -17.70300199 49.98154857 -20.09765625 46.87109375 C-23.16154058 42.7248349 -23.16154058 42.7248349 -27.97265625 41.375 C-29.64328125 41.189375 -29.64328125 41.189375 -31.34765625 41 C-31.33718262 41.77714355 -31.32670898 42.55428711 -31.31591797 43.35498047 C-31.27445343 46.861621 -31.24836047 50.36821006 -31.22265625 53.875 C-31.20589844 55.09832031 -31.18914063 56.32164062 -31.171875 57.58203125 C-31.16542969 58.74863281 -31.15898438 59.91523438 -31.15234375 61.1171875 C-31.14187012 62.19597168 -31.13139648 63.27475586 -31.12060547 64.38623047 C-31.34765625 67 -31.34765625 67 -33.34765625 69 C-36.0360501 69.26991906 -38.63907561 69.08737357 -41.34765625 69 C-43.44788192 65.55074021 -43.60552211 62.82888009 -43.62231445 58.82617188 C-43.63184647 57.57807739 -43.64137848 56.32998291 -43.65119934 55.04406738 C-43.65093793 53.68562797 -43.65000096 52.32718854 -43.6484375 50.96875 C-43.65232601 49.5715726 -43.656661 48.17439638 -43.66142273 46.77722168 C-43.66887646 43.85193037 -43.66859949 40.92675978 -43.66333008 38.00146484 C-43.65753104 34.25539038 -43.67448043 30.50980965 -43.69767475 26.76381683 C-43.71241447 23.87958902 -43.71328359 20.99548012 -43.71016502 18.11122131 C-43.71067794 16.73013835 -43.71591021 15.34904869 -43.72597694 13.96800232 C-43.73832957 12.03664939 -43.72960947 10.10519651 -43.7199707 8.17382812 C-43.72060013 7.07558716 -43.72122955 5.97734619 -43.72187805 4.8458252 C-43.29991283 1.63692812 -42.61175018 0.28097079 -40.34765625 -2 C-29.39395309 -5.65123439 -10.55321372 -4.4952125 0 0 Z M-31.34765625 8 C-31.34765625 15.59 -31.34765625 23.18 -31.34765625 31 C-28.00640625 31.0825 -24.66515625 31.165 -21.22265625 31.25 C-19.6600708 31.30462402 -19.6600708 31.30462402 -18.06591797 31.36035156 C-12.31671306 31.42891296 -8.83145279 30.98241354 -4.34765625 27 C-1.66297587 22.97297943 -1.66577888 19.7315637 -2.34765625 15 C-4.49679365 11.39251936 -6.49939519 9.56579043 -10.34765625 8 C-12.76258077 7.72692179 -12.76258077 7.72692179 -15.33203125 7.8046875 C-16.17475586 7.80968262 -17.01748047 7.81467773 -17.88574219 7.81982422 C-18.94567383 7.83803223 -20.00560547 7.85624023 -21.09765625 7.875 C-24.48015625 7.91625 -27.86265625 7.9575 -31.34765625 8 Z " fill="currentColor" transform="translate(919.34765625,141)"/>
<path d="M0 0 C0.96107666 -0.00088623 1.92215332 -0.00177246 2.91235352 -0.00268555 C3.91967529 0.0149585 4.92699707 0.03260254 5.96484375 0.05078125 C6.99601318 0.06133545 8.02718262 0.07188965 9.08959961 0.08276367 C28.67014987 0.42422202 28.67014987 0.42422202 35.90234375 5.36328125 C41.9693702 11.70608163 43.38376556 16.76157158 43.21484375 25.35546875 C42.59658625 31.30619723 40.28903837 34.91208921 36.21484375 39.17578125 C33.37267939 41.05268224 31.36916502 41.99210689 28.1953125 43 C26.98717896 43.3880481 26.98717896 43.3880481 25.75463867 43.78393555 C24.83775269 44.07071167 24.83775269 44.07071167 23.90234375 44.36328125 C24.26473145 44.78101807 24.62711914 45.19875488 25.00048828 45.62915039 C26.67631681 47.5611786 28.3518316 49.49347866 30.02734375 51.42578125 C30.59710938 52.08255859 31.166875 52.73933594 31.75390625 53.41601562 C32.9011023 54.73920198 34.04465693 56.06555409 35.18457031 57.39501953 C36.33395337 58.71200734 37.50837437 60.00753741 38.70605469 61.28076172 C39.26325195 61.8842041 39.82044922 62.48764648 40.39453125 63.109375 C40.90097168 63.64103271 41.40741211 64.17269043 41.92919922 64.72045898 C42.90234375 66.36328125 42.90234375 66.36328125 42.74658203 68.44165039 C41.90234375 70.36328125 41.90234375 70.36328125 38.90234375 72.36328125 C35.52734375 72.80078125 35.52734375 72.80078125 31.90234375 72.36328125 C29.46484375 70.42578125 29.46484375 70.42578125 26.90234375 67.36328125 C26.33 66.74324219 25.75765625 66.12320313 25.16796875 65.484375 C22.04804654 62.09613948 19.08768712 58.67473735 16.41015625 54.92578125 C15.98307373 54.33667969 15.55599121 53.74757812 15.1159668 53.140625 C14.2817921 51.97881291 13.4646222 50.80455034 12.66723633 49.6171875 C10.29318528 46.32616972 9.11732089 45.41267087 5.09375 44.48828125 C4.04058594 44.44703125 2.98742187 44.40578125 1.90234375 44.36328125 C1.91281738 45.1404248 1.92329102 45.91756836 1.93408203 46.71826172 C1.97554657 50.22490225 2.00163953 53.73149131 2.02734375 57.23828125 C2.04410156 58.46160156 2.06085938 59.68492187 2.078125 60.9453125 C2.08457031 62.11191406 2.09101563 63.27851563 2.09765625 64.48046875 C2.10812988 65.55925293 2.11860352 66.63803711 2.12939453 67.74951172 C1.90234375 70.36328125 1.90234375 70.36328125 -0.09765625 72.36328125 C-1.97265625 72.62890625 -1.97265625 72.62890625 -4.09765625 72.61328125 C-4.79890625 72.6184375 -5.50015625 72.62359375 -6.22265625 72.62890625 C-8.09765625 72.36328125 -8.09765625 72.36328125 -10.09765625 70.36328125 C-10.37181091 67.59938049 -10.37181091 67.59938049 -10.40405273 64.03344727 C-10.41237625 63.38448486 -10.42069977 62.73552246 -10.42927551 62.06689453 C-10.4534144 59.91693157 -10.46215172 57.76727168 -10.46875 55.6171875 C-10.47771281 54.12507534 -10.48683459 52.63296413 -10.49610901 51.14085388 C-10.5126117 48.01111667 -10.52030152 44.88148661 -10.52319336 41.75170898 C-10.52858125 37.73844202 -10.5662707 33.72617973 -10.61193752 29.71319675 C-10.64165858 26.63083709 -10.6489158 23.54872091 -10.64991951 20.46623039 C-10.65413112 18.98659598 -10.66660325 17.50696145 -10.68743706 16.02746773 C-10.71425529 13.95839364 -10.70955864 11.89166806 -10.69702148 9.82250977 C-10.70209213 8.64495621 -10.70716278 7.46740265 -10.71238708 6.25416565 C-10.09765625 3.36328125 -10.09765625 3.36328125 -7.71572876 1.48284912 C-4.91823555 0.28655547 -3.02841583 -0.01048483 0 0 Z M1.90234375 11.36328125 C1.90234375 18.95328125 1.90234375 26.54328125 1.90234375 34.36328125 C5.05796875 34.44578125 8.21359375 34.52828125 11.46484375 34.61328125 C12.44525635 34.64969727 13.42566895 34.68611328 14.43579102 34.72363281 C20.47893199 34.79960863 23.97859964 33.92040847 28.90234375 30.36328125 C31.28516312 26.78905219 31.16224682 23.41811531 30.515625 19.296875 C29.49450259 16.07741261 27.49957633 14.40396399 24.90234375 12.36328125 C22.01969226 11.40239742 20.22572104 11.24657184 17.234375 11.265625 C16.02744995 11.26937134 16.02744995 11.26937134 14.79614258 11.27319336 C13.77931396 11.28229736 12.76248535 11.29140137 11.71484375 11.30078125 C8.47671875 11.32140625 5.23859375 11.34203125 1.90234375 11.36328125 Z " fill="currentColor" transform="translate(447.09765625,137.63671875)"/>
<path d="M0 0 C0.68468353 -0.00287018 1.36936707 -0.00574036 2.07479858 -0.00869751 C3.52562281 -0.01073828 4.97647455 -0.00520736 6.42724609 0.00732422 C8.62011476 0.02323204 10.81109866 0.00755542 13.00390625 -0.01171875 C21.74152331 -0.02480443 29.33762944 0.34247572 36.8984375 5.2734375 C41.81661632 10.19161632 43.1582654 14.92538115 43.2734375 21.7109375 C43.19072432 27.36551138 42.41909562 31.65219527 38.58203125 36.05078125 C34.27516659 40.13780595 29.71481569 41.92719688 24.0234375 43.3984375 C30.30634453 51.1078983 36.64485889 58.76811278 43.0234375 66.3984375 C41.2421875 70.234375 41.2421875 70.234375 39.2734375 71.7109375 C36.12571269 72.6727423 34.19844345 72.25294527 31.0234375 71.3984375 C28.53125 69.24609375 28.53125 69.24609375 26.1484375 66.4609375 C25.2925 65.46964844 24.4365625 64.47835937 23.5546875 63.45703125 C14.07934528 52.0076594 14.07934528 52.0076594 11.234375 47.671875 C8.32153939 44.67669775 6.103762 44.63384084 2.0234375 44.3984375 C2.04438477 45.14005127 2.06533203 45.88166504 2.08691406 46.64575195 C2.16997887 50.0006763 2.22206764 53.35538457 2.2734375 56.7109375 C2.30695313 57.87818359 2.34046875 59.04542969 2.375 60.24804688 C2.38789063 61.36630859 2.40078125 62.48457031 2.4140625 63.63671875 C2.43500977 64.66837158 2.45595703 65.70002441 2.47753906 66.76293945 C2.0234375 69.3984375 2.0234375 69.3984375 0.22949219 71.27026367 C-3.07271123 72.9590067 -5.46317428 72.26021197 -8.9765625 71.3984375 C-10.37402068 68.60352115 -10.11927453 66.28716526 -10.13769531 63.16040039 C-10.15210663 61.19309715 -10.15210663 61.19309715 -10.16680908 59.18605042 C-10.17165629 57.74773329 -10.17593531 56.30941415 -10.1796875 54.87109375 C-10.18543832 53.40140276 -10.19119606 51.93171181 -10.19696045 50.46202087 C-10.20747001 47.3793808 -10.21331317 44.2967668 -10.21679688 41.21411133 C-10.22228597 37.26165752 -10.24632266 33.30954746 -10.27476883 29.35720158 C-10.29337914 26.32119229 -10.2985999 23.28526615 -10.30013275 20.24920464 C-10.30316274 18.79192663 -10.31120297 17.3346502 -10.32431793 15.87742805 C-10.34134527 13.84031085 -10.33765818 11.8030522 -10.33300781 9.76586914 C-10.33665344 8.60608047 -10.34029907 7.44629181 -10.34405518 6.25135803 C-9.9765625 3.3984375 -9.9765625 3.3984375 -8.65023804 1.5247345 C-5.89958639 -0.32631167 -3.26379196 0.0087123 0 0 Z M2.0234375 10.3984375 C2.0234375 18.3184375 2.0234375 26.2384375 2.0234375 34.3984375 C4.8490625 34.4603125 7.6746875 34.5221875 10.5859375 34.5859375 C11.46193604 34.61324951 12.33793457 34.64056152 13.24047852 34.66870117 C19.2823653 34.73215634 24.30538157 33.9352897 28.8984375 29.6484375 C30.4842597 26.47679311 30.90118751 23.94368721 31.0234375 20.3984375 C29.50138781 16.23282784 27.89096704 13.62519693 24.0234375 11.3984375 C21.1848431 10.53067487 18.65619447 10.27963209 15.6953125 10.30078125 C14.6139502 10.30452759 14.6139502 10.30452759 13.51074219 10.30834961 C12.15577637 10.32200562 12.15577637 10.32200562 10.7734375 10.3359375 C6.4421875 10.366875 6.4421875 10.366875 2.0234375 10.3984375 Z " fill="currentColor" transform="translate(458.9765625,45.6015625)"/>
<path d="M0 0 C1.26690422 -0.01441132 1.26690422 -0.01441132 2.55940247 -0.02911377 C3.93124947 -0.03548859 3.93124947 -0.03548859 5.33081055 -0.04199219 C6.74042305 -0.0505423 6.74042305 -0.0505423 8.17851257 -0.05926514 C10.16994092 -0.06872193 12.16138496 -0.07525181 14.15283203 -0.07910156 C17.19485943 -0.08879495 20.23620779 -0.11980691 23.27807617 -0.15136719 C25.21231695 -0.15789843 27.14656256 -0.16314843 29.08081055 -0.16699219 C29.98930252 -0.17933899 30.89779449 -0.19168579 31.83381653 -0.20440674 C36.60549323 -0.18763943 40.13360607 -0.13242602 43.9050293 3.16113281 C44.3425293 6.22363281 44.3425293 6.22363281 43.9050293 9.16113281 C41.9050293 11.16113281 41.9050293 11.16113281 38.09790039 11.38818359 C36.4580551 11.38786627 34.81818912 11.37652962 33.1784668 11.35644531 C32.31565094 11.35361542 31.45283508 11.35078552 30.56387329 11.34786987 C27.8024521 11.33665614 25.0413528 11.31154965 22.2800293 11.28613281 C20.41024231 11.27610454 18.54045024 11.26697843 16.6706543 11.25878906 C12.08188822 11.23841266 7.49381994 11.19926681 2.9050293 11.16113281 C2.9050293 17.43113281 2.9050293 23.70113281 2.9050293 30.16113281 C6.10125977 30.12632812 6.10125977 30.12632812 9.36206055 30.09082031 C11.42724004 30.07521999 13.49241295 30.06307745 15.55761719 30.05126953 C16.99221742 30.04121582 18.42679718 30.02757087 19.86132812 30.01025391 C21.92412367 29.98597732 23.98664814 29.97464362 26.04956055 29.96582031 C27.29068604 29.95534668 28.53181152 29.94487305 29.81054688 29.93408203 C32.9050293 30.16113281 32.9050293 30.16113281 35.9050293 32.16113281 C36.29099446 35.18452658 36.51630809 37.22710973 34.81005859 39.83422852 C31.92838401 41.8413926 29.52506013 41.49809523 26.04956055 41.45410156 C25.38792404 41.44985672 24.72628754 41.44561188 24.04460144 41.4412384 C21.9351602 41.42446974 19.82668084 41.3868238 17.7175293 41.34863281 C16.28590249 41.3335835 14.85426068 41.31989552 13.42260742 41.30761719 C9.91608102 41.27712565 6.41162935 41.2184094 2.9050293 41.16113281 C2.9050293 47.76113281 2.9050293 54.36113281 2.9050293 61.16113281 C5.76932617 61.12632812 8.63362305 61.09152344 11.5847168 61.05566406 C14.35147097 61.03228402 17.11821425 61.01405861 19.88500977 60.99633789 C21.81149196 60.98122886 23.73793965 60.96074067 25.66430664 60.93481445 C28.42952986 60.89852357 31.19429934 60.88142802 33.9597168 60.86816406 C35.2566597 60.84493828 35.2566597 60.84493828 36.57980347 60.82124329 C39.00610352 60.82055664 39.00610352 60.82055664 42.9050293 61.16113281 C44.9050293 64.16113281 44.9050293 64.16113281 44.6550293 67.22363281 C43.9050293 70.16113281 43.9050293 70.16113281 41.9050293 72.16113281 C39.90713501 72.42855835 39.90713501 72.42855835 37.42700195 72.45166016 C36.03513168 72.47079971 36.03513168 72.47079971 34.61514282 72.49032593 C33.10734756 72.4936644 33.10734756 72.4936644 31.5690918 72.49707031 C30.02274551 72.50705551 30.02274551 72.50705551 28.44515991 72.51724243 C26.26122831 72.52738124 24.07726566 72.53205907 21.89331055 72.53173828 C18.5503428 72.53610627 15.20870029 72.57239956 11.8659668 72.61035156 C9.74617966 72.61622044 7.62638623 72.62018936 5.5065918 72.62207031 C4.00486923 72.64362686 4.00486923 72.64362686 2.47280884 72.6656189 C1.538591 72.65946564 0.60437317 72.65331238 -0.3581543 72.64697266 C-1.17818939 72.64982269 -1.99822449 72.65267273 -2.84310913 72.65560913 C-6.02934239 71.95595827 -7.17532042 70.77430477 -9.0949707 68.16113281 C-9.59617615 65.27061462 -9.59617615 65.27061462 -9.59667969 61.87963867 C-9.60606064 60.60829575 -9.61544159 59.33695282 -9.62510681 58.02708435 C-9.6146296 56.64337489 -9.60326073 55.25967194 -9.59106445 53.87597656 C-9.59121946 52.45398383 -9.59270873 51.03199066 -9.59547424 49.61000061 C-9.59685745 46.63328318 -9.58431263 43.65704806 -9.56152344 40.68041992 C-9.53311243 36.86468978 -9.53588379 33.04975926 -9.54861355 29.23396969 C-9.55556706 26.2991299 -9.54778579 23.36447506 -9.53535652 20.42965889 C-9.5308406 19.02264681 -9.53050647 17.61561488 -9.53442192 16.208601 C-9.53733122 14.24344487 -9.51867755 12.27829242 -9.49902344 10.31323242 C-9.49362045 9.19500595 -9.48821747 8.07677948 -9.48265076 6.92466736 C-9.0949707 4.16113281 -9.0949707 4.16113281 -7.69471741 2.33912659 C-5.00181533 0.35617399 -3.28991021 0.03017797 0 0 Z " fill="currentColor" transform="translate(816.094970703125,137.8388671875)"/>
<path d="M0 0 C1.26690422 -0.01441132 1.26690422 -0.01441132 2.55940247 -0.02911377 C3.93124947 -0.03548859 3.93124947 -0.03548859 5.33081055 -0.04199219 C6.74042305 -0.0505423 6.74042305 -0.0505423 8.17851257 -0.05926514 C10.16994092 -0.06872193 12.16138496 -0.07525181 14.15283203 -0.07910156 C17.19485943 -0.08879495 20.23620779 -0.11980691 23.27807617 -0.15136719 C25.21231695 -0.15789843 27.14656256 -0.16314843 29.08081055 -0.16699219 C29.98930252 -0.17933899 30.89779449 -0.19168579 31.83381653 -0.20440674 C36.60549323 -0.18763943 40.13360607 -0.13242602 43.9050293 3.16113281 C44.3425293 6.22363281 44.3425293 6.22363281 43.9050293 9.16113281 C41.9050293 11.16113281 41.9050293 11.16113281 38.09790039 11.38818359 C36.4580551 11.38786627 34.81818912 11.37652962 33.1784668 11.35644531 C32.31565094 11.35361542 31.45283508 11.35078552 30.56387329 11.34786987 C27.8024521 11.33665614 25.0413528 11.31154965 22.2800293 11.28613281 C20.41024231 11.27610454 18.54045024 11.26697843 16.6706543 11.25878906 C12.08188822 11.23841266 7.49381994 11.19926681 2.9050293 11.16113281 C2.9050293 17.43113281 2.9050293 23.70113281 2.9050293 30.16113281 C5.03584961 30.12632812 7.16666992 30.09152344 9.36206055 30.05566406 C11.42723247 30.03226367 13.49238958 30.01404996 15.55761719 29.99633789 C16.99225481 29.98125693 18.42684638 29.96078901 19.86132812 29.93481445 C21.92418788 29.89839844 23.98643787 29.88140038 26.04956055 29.86816406 C27.91124878 29.84459839 27.91124878 29.84459839 29.81054688 29.82055664 C32.9050293 30.16113281 32.9050293 30.16113281 34.84521484 31.45288086 C35.9050293 33.16113281 35.9050293 33.16113281 35.7175293 36.78613281 C35.4494043 37.89988281 35.1812793 39.01363281 34.9050293 40.16113281 C31.9830524 41.62212126 29.40609454 41.27248183 26.1472168 41.25878906 C25.15263962 41.25666664 25.15263962 41.25666664 24.13796997 41.25450134 C22.01861067 41.24890035 19.89935671 41.23634782 17.7800293 41.22363281 C16.34383291 41.21861793 14.90763486 41.21405501 13.47143555 41.20996094 C9.94922682 41.19978114 6.42724609 41.18020619 2.9050293 41.16113281 C2.9050293 47.76113281 2.9050293 54.36113281 2.9050293 61.16113281 C5.76932617 61.12632812 8.63362305 61.09152344 11.5847168 61.05566406 C14.35147097 61.03228402 17.11821425 61.01405861 19.88500977 60.99633789 C21.81149196 60.98122886 23.73793965 60.96074067 25.66430664 60.93481445 C28.42952986 60.89852357 31.19429934 60.88142802 33.9597168 60.86816406 C35.2566597 60.84493828 35.2566597 60.84493828 36.57980347 60.82124329 C39.00610352 60.82055664 39.00610352 60.82055664 42.9050293 61.16113281 C44.9050293 64.16113281 44.9050293 64.16113281 44.6550293 67.22363281 C43.9050293 70.16113281 43.9050293 70.16113281 41.9050293 72.16113281 C39.90713501 72.42855835 39.90713501 72.42855835 37.42700195 72.45166016 C36.03513168 72.47079971 36.03513168 72.47079971 34.61514282 72.49032593 C33.10734756 72.4936644 33.10734756 72.4936644 31.5690918 72.49707031 C30.02274551 72.50705551 30.02274551 72.50705551 28.44515991 72.51724243 C26.26122831 72.52738124 24.07726566 72.53205907 21.89331055 72.53173828 C18.5503428 72.53610627 15.20870029 72.57239956 11.8659668 72.61035156 C9.74617966 72.61622044 7.62638623 72.62018936 5.5065918 72.62207031 C4.00486923 72.64362686 4.00486923 72.64362686 2.47280884 72.6656189 C1.538591 72.65946564 0.60437317 72.65331238 -0.3581543 72.64697266 C-1.17818939 72.64982269 -1.99822449 72.65267273 -2.84310913 72.65560913 C-6.02934239 71.95595827 -7.17532042 70.77430477 -9.0949707 68.16113281 C-9.59617615 65.27061462 -9.59617615 65.27061462 -9.59667969 61.87963867 C-9.60606064 60.60829575 -9.61544159 59.33695282 -9.62510681 58.02708435 C-9.6146296 56.64337489 -9.60326073 55.25967194 -9.59106445 53.87597656 C-9.59121946 52.45398383 -9.59270873 51.03199066 -9.59547424 49.61000061 C-9.59685745 46.63328318 -9.58431263 43.65704806 -9.56152344 40.68041992 C-9.53311243 36.86468978 -9.53588379 33.04975926 -9.54861355 29.23396969 C-9.55556706 26.2991299 -9.54778579 23.36447506 -9.53535652 20.42965889 C-9.5308406 19.02264681 -9.53050647 17.61561488 -9.53442192 16.208601 C-9.53733122 14.24344487 -9.51867755 12.27829242 -9.49902344 10.31323242 C-9.49362045 9.19500595 -9.48821747 8.07677948 -9.48265076 6.92466736 C-9.0949707 4.16113281 -9.0949707 4.16113281 -7.69471741 2.33912659 C-5.00181533 0.35617399 -3.28991021 0.03017797 0 0 Z " fill="currentColor" transform="translate(377.094970703125,137.8388671875)"/>
<path d="M0 0 C0.93106567 -0.00945648 1.86213135 -0.01891296 2.82141113 -0.02865601 C4.32617004 -0.01954697 4.32617004 -0.01954697 5.86132812 -0.01025391 C7.4091095 -0.01455917 7.4091095 -0.01455917 8.98815918 -0.01895142 C11.17033436 -0.02099342 13.35252778 -0.01545411 15.53466797 -0.00292969 C18.87964713 0.01312154 22.22341791 -0.00277432 25.56835938 -0.02197266 C27.68685163 -0.01999025 29.80534314 -0.01614663 31.92382812 -0.01025391 C32.92700073 -0.0163266 33.93017334 -0.02239929 34.96374512 -0.02865601 C36.36034363 -0.01447128 36.36034363 -0.01447128 37.78515625 0 C38.60439575 0.00238678 39.42363525 0.00477356 40.2677002 0.00723267 C42.92768193 0.48411771 43.84342022 1.19115377 45.39257812 3.38818359 C45.20507812 7.01318359 45.20507812 7.01318359 44.39257812 10.38818359 C41.11365887 12.02764322 37.48644279 11.50848537 33.88476562 11.48583984 C32.62383591 11.48371742 32.62383591 11.48371742 31.33743286 11.48155212 C28.64744537 11.47594597 25.95754054 11.46339246 23.26757812 11.45068359 C21.44596474 11.44566939 19.62435006 11.44110634 17.80273438 11.43701172 C13.33262468 11.4268246 8.86269413 11.40725044 4.39257812 11.38818359 C4.39257812 17.65818359 4.39257812 23.92818359 4.39257812 30.38818359 C6.6071875 30.35337891 8.82179688 30.31857422 11.10351562 30.28271484 C13.24477855 30.25932896 15.38602733 30.24110698 17.52734375 30.22338867 C19.01731721 30.20828759 20.50724613 30.18780501 21.99707031 30.16186523 C24.13683043 30.12553775 26.27600379 30.10847139 28.41601562 30.09521484 C29.70427246 30.07950439 30.9925293 30.06379395 32.31982422 30.04760742 C33.8408374 30.21619263 33.8408374 30.21619263 35.39257812 30.38818359 C37.39257812 33.38818359 37.39257812 33.38818359 37.14257812 36.51318359 C36.89507812 37.46193359 36.64757812 38.41068359 36.39257812 39.38818359 C33.47060123 40.84917204 30.89364337 40.49953261 27.63476562 40.48583984 C26.64018845 40.48371742 26.64018845 40.48371742 25.6255188 40.48155212 C23.5061595 40.47595113 21.38690554 40.4633986 19.26757812 40.45068359 C17.83138173 40.44566872 16.39518369 40.44110579 14.95898438 40.43701172 C11.43677564 40.42683192 7.91479492 40.40725697 4.39257812 40.38818359 C4.39257812 46.98818359 4.39257812 53.58818359 4.39257812 60.38818359 C7.10089844 60.36498047 9.80921875 60.34177734 12.59960938 60.31787109 C15.22077974 60.30227651 17.84194495 60.29013067 20.46313477 60.27832031 C22.28574942 60.26825869 24.10834792 60.25460799 25.9309082 60.23730469 C28.54968247 60.21306338 31.16824344 60.20170221 33.78710938 60.19287109 C34.60282913 60.18254852 35.41854889 60.17222595 36.25898743 60.16159058 C40.16388568 60.16081499 42.06781821 60.17167698 45.39257812 62.38818359 C45.70507812 65.88818359 45.70507812 65.88818359 45.39257812 69.38818359 C42.92232223 71.85843949 42.20739928 71.64417279 38.80688477 71.6628418 C37.85572281 71.67237381 36.90456085 71.68190582 35.92457581 71.69172668 C34.3792643 71.69035957 34.3792643 71.69035957 32.80273438 71.68896484 C31.74726913 71.69324997 30.69180389 71.6975351 29.60435486 71.70195007 C27.36913776 71.70770064 25.13390194 71.70818831 22.89868164 71.70385742 C19.47249507 71.70069965 16.04717332 71.72414065 12.62109375 71.74951172 C10.45247505 71.75178479 8.28385402 71.75248817 6.11523438 71.75146484 C5.08705093 71.76067459 4.05886749 71.76988434 2.99952698 71.77937317 C2.04521286 71.77314438 1.09089874 71.76691559 0.10766602 71.76049805 C-0.73235458 71.76112747 -1.57237518 71.7617569 -2.43785095 71.7624054 C-4.60742188 71.38818359 -4.60742188 71.38818359 -6.37785339 70.25614929 C-8.17439487 67.5268358 -7.98879359 65.37915199 -7.99560547 62.12841797 C-8.00506195 60.83697876 -8.01451843 59.54553955 -8.02426147 58.21496582 C-8.01889179 56.80395196 -8.01273885 55.3929409 -8.00585938 53.98193359 C-8.00788023 52.53609063 -8.01079176 51.09024866 -8.01455688 49.64440918 C-8.01897976 46.61472872 -8.01255064 43.58531367 -7.99853516 40.55566406 C-7.98144292 36.67155584 -7.99128435 32.78806948 -8.00925255 28.90398407 C-8.02009157 25.91855175 -8.01664358 22.93326695 -8.00886917 19.9478302 C-8.00686747 18.51569037 -8.0093254 17.08353717 -8.01630783 15.65141296 C-8.02392331 13.65026097 -8.01025849 11.64906205 -7.99560547 9.64794922 C-7.99321869 8.50894165 -7.99083191 7.36993408 -7.9883728 6.19641113 C-7.60742188 3.38818359 -7.60742188 3.38818359 -6.37112427 1.52120972 C-4.10920245 0.06812074 -2.68249186 0.0078152 0 0 Z " fill="currentColor" transform="translate(302.607421875,45.61181640625)"/>
<path d="M0 0 C0.88449326 -0.00630432 1.76898651 -0.01260864 2.68028259 -0.019104 C4.10226707 -0.01303131 4.10226707 -0.01303131 5.55297852 -0.00683594 C6.53428238 -0.00874939 7.51558624 -0.01066284 8.52662659 -0.01263428 C10.6002732 -0.01399419 12.67392838 -0.0103113 14.74755859 -0.00195312 C17.9166179 0.00873756 21.08510884 -0.0018492 24.25415039 -0.01464844 C26.27042768 -0.01332658 28.28670462 -0.01076366 30.30297852 -0.00683594 C31.24894394 -0.0108844 32.19490936 -0.01493286 33.16954041 -0.019104 C43.28835855 0.05276285 43.28835855 0.05276285 46.49438477 3.25878906 C47.06935777 9.62407842 46.38668598 12.39137252 42.18188477 17.44628906 C41.50790649 18.27302124 41.50790649 18.27302124 40.8203125 19.11645508 C39.39869339 20.84879985 37.9504388 22.55533296 36.49438477 24.25878906 C35.5850787 25.33653295 34.67621633 26.41465137 33.76782227 27.49316406 C32.40937758 29.10113901 31.04819106 30.70644661 29.67944336 32.30566406 C25.4010697 37.31390449 21.33687245 42.47690619 17.29516602 47.67675781 C13.74319236 52.24242566 10.11475447 56.74732102 6.49438477 61.25878906 C7.69562988 61.24307861 8.896875 61.22736816 10.13452148 61.21118164 C14.58106815 61.15698021 19.0275855 61.1224748 23.47436523 61.09399414 C25.40084743 61.07888511 27.32729512 61.05839692 29.25366211 61.0324707 C32.01888533 60.99617982 34.78365481 60.97908427 37.54907227 60.96582031 C38.84601517 60.94259453 38.84601517 60.94259453 40.16915894 60.91889954 C42.59545898 60.91821289 42.59545898 60.91821289 46.49438477 61.25878906 C48.49438477 64.25878906 48.49438477 64.25878906 48.24438477 67.88378906 C47.99688477 68.99753906 47.74938477 70.11128906 47.49438477 71.25878906 C45.06205291 72.47495499 43.47534776 72.39855486 40.75683594 72.41992188 C39.77208786 72.42952942 38.78733978 72.43913696 37.77275085 72.44903564 C36.70506973 72.45328552 35.63738861 72.4575354 34.53735352 72.46191406 C33.44223953 72.46761414 32.34712555 72.47331421 31.21882629 72.47918701 C28.89784718 72.48864619 26.57685458 72.49517462 24.25585938 72.49902344 C20.70687356 72.50872078 17.15846874 72.53973278 13.60961914 72.57128906 C11.35636738 72.57781979 9.10311146 72.58306999 6.84985352 72.58691406 C5.78824509 72.59926086 4.72663666 72.61160767 3.63285828 72.62432861 C-5.91247503 72.59551514 -5.91247503 72.59551514 -9.50561523 69.25878906 C-10.3716221 65.07308922 -10.42522032 62.81613884 -8.24389648 59.12207031 C-6.4165587 56.74951286 -4.48457999 54.50627506 -2.50561523 52.25878906 C-1.14649967 50.5961556 0.20738525 48.92923697 1.55688477 47.25878906 C3.20119318 45.25751113 4.84702312 43.25754939 6.49438477 41.25878906 C7.61811648 39.89423356 8.74181204 38.52964828 9.86547852 37.16503906 C11.68054313 34.96096168 13.49581349 32.75705555 15.31176758 30.55371094 C19.52903878 25.43586461 23.73134831 20.30621274 27.92016602 15.16503906 C29.49438477 13.25878906 29.49438477 13.25878906 30.49438477 12.25878906 C28.783396 12.23691528 28.783396 12.23691528 27.0378418 12.21459961 C22.8145376 12.1567218 18.59177251 12.07948929 14.36889648 11.99633789 C12.53955826 11.9630388 10.71011606 11.9350225 8.88061523 11.91235352 C6.2540242 11.87889829 3.62839035 11.82658944 1.00219727 11.77050781 C0.18131622 11.76411789 -0.63956482 11.75772797 -1.48532104 11.75114441 C-3.7902832 11.69116211 -3.7902832 11.69116211 -7.50561523 11.25878906 C-9.50561523 8.25878906 -9.50561523 8.25878906 -9.38061523 5.19628906 C-8.50561523 2.25878906 -8.50561523 2.25878906 -6.73252869 1.09136963 C-4.32583445 0.19157406 -2.56239487 0.00525787 0 0 Z " fill="currentColor" transform="translate(303.505615234375,137.7412109375)"/>
<path d="M0 0 C0.88449326 -0.00630432 1.76898651 -0.01260864 2.68028259 -0.019104 C4.10226707 -0.01303131 4.10226707 -0.01303131 5.55297852 -0.00683594 C6.53428238 -0.00874939 7.51558624 -0.01066284 8.52662659 -0.01263428 C10.6002732 -0.01399419 12.67392838 -0.0103113 14.74755859 -0.00195312 C17.9166179 0.00873756 21.08510884 -0.0018492 24.25415039 -0.01464844 C26.27042768 -0.01332658 28.28670462 -0.01076366 30.30297852 -0.00683594 C31.24894394 -0.0108844 32.19490936 -0.01493286 33.16954041 -0.019104 C43.28835855 0.05276285 43.28835855 0.05276285 46.49438477 3.25878906 C47.23579228 7.85551566 47.47033975 10.68418128 44.97875977 14.70410156 C43.04327678 17.04818651 41.04839893 19.32051492 39.0012207 21.56738281 C36.05682364 24.87243512 33.29375759 28.33101634 30.49438477 31.75878906 C29.2854117 33.22808432 28.07578738 34.69684396 26.86547852 36.16503906 C26.00092041 37.21498047 26.00092041 37.21498047 25.11889648 38.28613281 C24.11293896 39.50767426 23.10679174 40.72905955 22.1003418 41.95019531 C20.91796308 43.38538376 19.73736254 44.82203663 18.55688477 46.25878906 C17.92911133 47.02191406 17.30133789 47.78503906 16.65454102 48.57128906 C13.55314305 52.4298095 10.52528885 56.34478175 7.49438477 60.25878906 C9.25081299 60.28851807 9.25081299 60.28851807 11.04272461 60.31884766 C15.37774551 60.39478988 19.71242572 60.48352426 24.04711914 60.57617188 C25.92498052 60.61450884 27.80291653 60.64935333 29.6809082 60.68066406 C32.37681798 60.7262127 35.07221188 60.78422281 37.76782227 60.84472656 C38.61057709 60.85627777 39.45333191 60.86782898 40.32162476 60.87973022 C46.26664135 61.03104565 46.26664135 61.03104565 48.49438477 63.25878906 C48.80688477 66.75878906 48.80688477 66.75878906 48.49438477 70.25878906 C45.25488647 72.41845459 44.36591506 72.51073685 40.62744141 72.51757812 C39.63954117 72.52388245 38.65164093 72.53018677 37.63380432 72.53668213 C36.56814743 72.53263367 35.50249054 72.52858521 34.40454102 72.52441406 C33.30847031 72.52632751 32.2123996 72.52824097 31.08311462 72.5302124 C28.76390351 72.53157408 26.44468477 72.52787888 24.12548828 72.51953125 C20.57445132 72.50884194 17.02392146 72.5194221 13.47290039 72.53222656 C11.22094615 72.53090476 8.96899222 72.52834195 6.71704102 72.52441406 C5.65340836 72.52846252 4.5897757 72.53251099 3.49391174 72.53668213 C2.00733315 72.52722565 2.00733315 72.52722565 0.49072266 72.51757812 C-0.8147477 72.51519135 -0.8147477 72.51519135 -2.14659119 72.51275635 C-4.7476724 72.23272973 -6.34273997 71.72886465 -8.50561523 70.25878906 C-9.61612934 66.40900684 -9.87234818 64.14872769 -8.33374023 60.41503906 C-6.32312844 56.94372639 -3.95928971 54.00263454 -1.31811523 51.00878906 C-0.31967569 49.85344021 0.67771437 48.69718359 1.67407227 47.54003906 C2.15972656 46.97800781 2.64538086 46.41597656 3.14575195 45.83691406 C4.91569091 43.76579071 6.61668804 41.64531479 8.30688477 39.50878906 C12.65424215 34.02262289 17.11367249 28.63055803 21.57177734 23.234375 C22.14951904 22.53473633 22.72726074 21.83509766 23.32250977 21.11425781 C23.83716797 20.49188232 24.35182617 19.86950684 24.88208008 19.22827148 C26.77171968 16.92001547 28.63432632 14.59091925 30.49438477 12.25878906 C29.34848877 12.23373291 28.20259277 12.20867676 27.02197266 12.18286133 C22.78584879 12.08895801 18.54989548 11.98869631 14.31396484 11.88647461 C12.4777423 11.84306086 10.64147769 11.80139067 8.80517578 11.76147461 C6.17150166 11.70392737 3.53804056 11.64018908 0.90454102 11.57519531 C-0.33452248 11.55012657 -0.33452248 11.55012657 -1.59861755 11.52455139 C-7.39174353 11.37266077 -7.39174353 11.37266077 -8.50561523 10.25878906 C-8.64676685 7.58820055 -8.54808631 4.93446669 -8.50561523 2.25878906 C-5.53899931 0.56032855 -3.40784462 0.00699267 0 0 Z " fill="currentColor" transform="translate(707.505615234375,137.7412109375)"/>
<path d="M0 0 C0.87173859 -0.00570007 1.74347717 -0.01140015 2.64163208 -0.01727295 C4.48584786 -0.02671683 6.33008047 -0.0332545 8.17431641 -0.03710938 C10.99020936 -0.04681433 13.80537209 -0.07784286 16.62109375 -0.109375 C18.41405817 -0.11590543 20.20702781 -0.12115575 22 -0.125 C23.25960037 -0.1435202 23.25960037 -0.1435202 24.54464722 -0.16241455 C29.17676361 -0.14483491 32.44781371 0.0561158 36.1328125 3.203125 C36.5703125 6.265625 36.5703125 6.265625 36.1328125 9.203125 C34.1328125 11.203125 34.1328125 11.203125 30.60107422 11.43017578 C29.08817919 11.42985863 27.57526162 11.41853133 26.0625 11.3984375 C25.26627228 11.3956076 24.47004456 11.39277771 23.64968872 11.38986206 C21.10224487 11.3786514 18.55515039 11.35354562 16.0078125 11.328125 C14.28255715 11.31809633 12.55729631 11.30897028 10.83203125 11.30078125 C6.59871488 11.28040918 2.36615555 11.24126323 -1.8671875 11.203125 C-1.8671875 18.463125 -1.8671875 25.723125 -1.8671875 33.203125 C7.3728125 33.203125 16.6128125 33.203125 26.1328125 33.203125 C26.7928125 35.183125 27.4528125 37.163125 28.1328125 39.203125 C27.4728125 40.523125 26.8128125 41.843125 26.1328125 43.203125 C16.8928125 43.203125 7.6528125 43.203125 -1.8671875 43.203125 C-1.78806476 51.99890228 -1.78806476 51.99890228 -1.68701172 60.79443359 C-1.67951904 62.4314624 -1.67951904 62.4314624 -1.671875 64.1015625 C-1.66140137 65.22224121 -1.65092773 66.34291992 -1.64013672 67.49755859 C-1.8671875 70.203125 -1.8671875 70.203125 -3.8671875 72.203125 C-5.7421875 72.46875 -5.7421875 72.46875 -7.8671875 72.453125 C-8.5684375 72.45828125 -9.2696875 72.4634375 -9.9921875 72.46875 C-11.8671875 72.203125 -11.8671875 72.203125 -13.8671875 70.203125 C-14.12115479 67.47718811 -14.12115479 67.47718811 -14.12597656 63.96508789 C-14.13228088 62.6535524 -14.13858521 61.34201691 -14.14508057 59.99073792 C-14.14150053 58.55241767 -14.1373985 57.11409864 -14.1328125 55.67578125 C-14.13415931 54.20608964 -14.13609997 52.73639846 -14.13861084 51.26670837 C-14.1415623 48.18402878 -14.13726445 45.10146498 -14.12792969 42.01879883 C-14.11654506 38.0664016 -14.12308806 34.11427628 -14.13507462 30.16188908 C-14.14230122 27.12586926 -14.14000145 24.0899139 -14.13481903 21.05389214 C-14.13348423 19.59663295 -14.13512435 18.13936792 -14.13977814 16.68211555 C-14.1448551 14.64493038 -14.13574539 12.60772472 -14.12597656 10.57055664 C-14.12438538 9.41076797 -14.12279419 8.25097931 -14.12115479 7.05604553 C-13.8671875 4.203125 -13.8671875 4.203125 -11.8671875 1.203125 C-7.91643711 -0.1137918 -4.12019388 0.02075218 0 0 Z " fill="currentColor" transform="translate(620.8671875,137.796875)"/>
<path d="M0 0 C1.02786621 -0.00630432 2.05573242 -0.01260864 3.11474609 -0.019104 C4.21898926 -0.01505554 5.32323242 -0.01100708 6.4609375 -0.00683594 C7.59998535 -0.00874939 8.7390332 -0.01066284 9.91259766 -0.01263428 C12.31998923 -0.0139948 14.72738817 -0.01030761 17.13476562 -0.00195312 C20.82178206 0.00874798 24.50831124 -0.00185318 28.1953125 -0.01464844 C30.53385524 -0.01332682 32.87239768 -0.01076438 35.2109375 -0.00683594 C36.86730225 -0.01290863 36.86730225 -0.01290863 38.55712891 -0.019104 C39.58499512 -0.01279968 40.61286133 -0.00649536 41.671875 0 C42.57470215 0.00159119 43.4775293 0.00318237 44.40771484 0.00482178 C47.02396221 0.27845453 48.63961049 0.82292558 50.8359375 2.25878906 C51.7109375 4.63378906 51.7109375 4.63378906 51.8359375 7.25878906 C51.1759375 8.57878906 50.5159375 9.89878906 49.8359375 11.25878906 C42.2459375 11.25878906 34.6559375 11.25878906 26.8359375 11.25878906 C26.85164795 13.92400635 26.85164795 13.92400635 26.86767578 16.64306641 C26.89989489 22.50639103 26.92289292 28.36971259 26.93956184 34.23309898 C26.95000974 37.78891305 26.96418709 41.34463156 26.98681641 44.90039062 C27.01265582 48.98601206 27.02240194 53.07153275 27.03125 57.15722656 C27.04157257 58.43745697 27.05189514 59.71768738 27.06253052 61.03671265 C27.06275711 62.8083226 27.06275711 62.8083226 27.06298828 64.61572266 C27.0674295 65.6594101 27.07187073 66.70309753 27.07644653 67.77841187 C26.8359375 70.25878906 26.8359375 70.25878906 24.8359375 72.25878906 C22.9609375 72.52441406 22.9609375 72.52441406 20.8359375 72.50878906 C20.1346875 72.51394531 19.4334375 72.51910156 18.7109375 72.52441406 C16.8359375 72.25878906 16.8359375 72.25878906 14.8359375 70.25878906 C14.59542847 67.77841187 14.59542847 67.77841187 14.60888672 64.61572266 C14.60903778 63.43464935 14.60918884 62.25357605 14.60934448 61.03671265 C14.61966705 59.75648224 14.62998962 58.47625183 14.640625 57.15722656 C14.6434549 55.85048981 14.64628479 54.54375305 14.64920044 53.19741821 C14.65683974 49.72196825 14.6764906 46.24668523 14.6986084 42.77130127 C14.71906054 39.22548684 14.72820079 35.67964546 14.73828125 32.13378906 C14.75973634 25.17538711 14.79387577 18.2170961 14.8359375 11.25878906 C13.80654053 11.28235474 13.80654053 11.28235474 12.75634766 11.30639648 C9.65796087 11.36861625 6.55970526 11.40773804 3.4609375 11.44628906 C2.38070312 11.47142578 1.30046875 11.4965625 0.1875 11.52246094 C-1.359375 11.53696289 -1.359375 11.53696289 -2.9375 11.55175781 C-3.89060059 11.56746826 -4.84370117 11.58317871 -5.82568359 11.59936523 C-6.59734863 11.4869751 -7.36901367 11.37458496 -8.1640625 11.25878906 C-10.1640625 8.25878906 -10.1640625 8.25878906 -10.0390625 5.19628906 C-9.1640625 2.25878906 -9.1640625 2.25878906 -7.43212891 1.09136963 C-4.81339366 0.13006265 -2.78830164 0.00491424 0 0 Z " fill="currentColor" transform="translate(946.1640625,137.7412109375)"/>
<path d="M0 0 C1.54168602 -0.00934319 1.54168602 -0.00934319 3.11451721 -0.01887512 C4.21359909 -0.00966537 5.31268097 -0.00045563 6.44506836 0.0090332 C8.15151772 0.00828545 8.15151772 0.00828545 9.8924408 0.00752258 C12.29387156 0.00986008 14.69530491 0.01956939 17.09667969 0.03613281 C20.7748806 0.05975004 24.45235763 0.05668784 28.13061523 0.05004883 C30.46460394 0.05562494 32.79858958 0.0627344 35.13256836 0.0715332 C36.23367447 0.0706218 37.33478058 0.06971039 38.46925354 0.06877136 C39.49389206 0.07830338 40.51853058 0.08783539 41.57421875 0.09765625 C42.47402969 0.10226364 43.37384064 0.10687103 44.30091858 0.11161804 C46.86521514 0.38768853 48.51159448 1.07758359 50.72241211 2.37231445 C50.82006836 8.5246582 50.82006836 8.5246582 50.72241211 10.37231445 C49.72241211 11.37231445 49.72241211 11.37231445 47.49755859 11.48583984 C46.53922119 11.48060303 45.58088379 11.47536621 44.59350586 11.4699707 C43.04179688 11.46513672 43.04179688 11.46513672 41.45874023 11.46020508 C40.37012695 11.45182617 39.28151367 11.44344727 38.15991211 11.43481445 C36.52119141 11.42804688 36.52119141 11.42804688 34.84936523 11.42114258 C32.14032716 11.40931272 29.43139612 11.39282989 26.72241211 11.37231445 C26.72685333 12.10702972 26.73129456 12.841745 26.73587036 13.59872437 C26.77590486 20.51466813 26.80637499 27.43059463 26.82603645 34.34662437 C26.83648435 37.90243844 26.8506617 41.45815695 26.87329102 45.01391602 C26.89913043 49.09953745 26.90887655 53.18505814 26.91772461 57.27075195 C26.92804718 58.55098236 26.93836975 59.83121277 26.94900513 61.15023804 C26.94923172 62.92184799 26.94923172 62.92184799 26.94946289 64.72924805 C26.95390411 65.77293549 26.95834534 66.81662292 26.96292114 67.89193726 C26.72241211 70.37231445 26.72241211 70.37231445 24.72241211 72.37231445 C22.84741211 72.63793945 22.84741211 72.63793945 20.72241211 72.62231445 C20.02116211 72.6274707 19.31991211 72.63262695 18.59741211 72.63793945 C16.72241211 72.37231445 16.72241211 72.37231445 14.72241211 70.37231445 C14.48190308 67.89193726 14.48190308 67.89193726 14.49536133 64.72924805 C14.49551239 63.54817474 14.49566345 62.36710144 14.49581909 61.15023804 C14.50614166 59.87000763 14.51646423 58.58977722 14.52709961 57.27075195 C14.5299295 55.9640152 14.5327594 54.65727844 14.53567505 53.3109436 C14.54331435 49.83549364 14.56296521 46.36021062 14.58508301 42.88482666 C14.60553515 39.33901223 14.6146754 35.79317085 14.62475586 32.24731445 C14.64621095 25.2889125 14.68035038 18.33062149 14.72241211 11.37231445 C13.69301514 11.39588013 13.69301514 11.39588013 12.64282227 11.41992188 C9.54443548 11.48214164 6.44617987 11.52126343 3.34741211 11.55981445 C2.26717773 11.58495117 1.18694336 11.61008789 0.07397461 11.63598633 C-1.47290039 11.65048828 -1.47290039 11.65048828 -3.05102539 11.6652832 C-4.00412598 11.68099365 -4.95722656 11.6967041 -5.93920898 11.71289062 C-6.71087402 11.60050049 -7.48253906 11.48811035 -8.27758789 11.37231445 C-10.41960315 8.15929156 -10.93084665 7.10522165 -10.27758789 3.37231445 C-6.80600526 0.79254637 -4.28893993 -0.0029975 0 0 Z " fill="currentColor" transform="translate(506.277587890625,137.627685546875)"/>
<path d="M0 0 C0.66 0.33 1.32 0.66 2 1 C3.09263784 4.27791352 3.13350055 6.70127944 3.14526367 10.15209961 C3.15164352 11.42029037 3.15802338 12.68848114 3.16459656 13.99510193 C3.16612521 15.38084882 3.16723919 16.76659621 3.16796875 18.15234375 C3.17118226 19.57336969 3.1745464 20.99439529 3.17805481 22.41542053 C3.1840419 25.39373542 3.18589512 28.37202131 3.18530273 31.3503418 C3.18520109 35.16471111 3.19885731 38.97889436 3.21607494 42.79321957 C3.22719854 45.7280411 3.22922184 48.6628177 3.22869301 51.59765816 C3.22987243 53.00385746 3.23429209 54.41005796 3.24202538 55.8162365 C3.2518327 57.7836352 3.24768104 59.75108848 3.24291992 61.71850586 C3.24434494 62.83752792 3.24576996 63.95654999 3.24723816 65.10948181 C3.00465336 67.9455965 2.47246835 69.59665588 1 72 C-0.45742463 72.08096803 -1.91612807 72.13917774 -3.375 72.1875 C-4.18710937 72.22230469 -4.99921875 72.25710937 -5.8359375 72.29296875 C-6.55007813 72.19628906 -7.26421875 72.09960938 -8 72 C-10.36780375 68.44829437 -10.24818746 66.95054419 -10.24291992 62.74023438 C-10.24599655 61.44879517 -10.24907318 60.15735596 -10.25224304 58.82678223 C-10.24534487 57.41576968 -10.23807787 56.00475889 -10.23046875 54.59375 C-10.22927648 53.14790895 -10.22882389 51.70206711 -10.2290802 50.25622559 C-10.22751623 47.22659452 -10.21923342 44.19708177 -10.20581055 41.16748047 C-10.18882085 37.28355474 -10.18499629 33.39975902 -10.18575573 29.51580048 C-10.18548383 26.53040322 -10.17999934 23.5450344 -10.17275429 20.55964661 C-10.16957162 19.12750972 -10.16760115 17.6953696 -10.16686058 16.26322937 C-10.1646928 14.26206301 -10.15514954 12.26090874 -10.14526367 10.25976562 C-10.14145187 9.12075806 -10.13764008 7.98175049 -10.13371277 6.80822754 C-10 4 -10 4 -9 1 C-6.01405576 -0.49297212 -3.29146376 -0.11755228 0 0 Z " fill="currentColor" transform="translate(580,138)"/>
<path d="M0 0 C0.70125 -0.01675781 1.4025 -0.03351563 2.125 -0.05078125 C2.74375 0.06910156 3.3625 0.18898437 4 0.3125 C6.39386566 3.90329849 6.25302334 5.50482242 6.25878906 9.77172852 C6.2622937 10.42244324 6.26579834 11.07315796 6.26940918 11.74359131 C6.2782069 13.89297168 6.27238515 16.04202257 6.265625 18.19140625 C6.26697205 19.68448449 6.26891293 21.1775623 6.27142334 22.67063904 C6.2743718 25.79861633 6.27008534 28.92647935 6.26074219 32.05444336 C6.24933786 36.0685639 6.25591495 40.08241728 6.26788712 44.09652805 C6.27510484 47.17882816 6.27281838 50.26106463 6.26763153 53.34336662 C6.2662953 54.82378102 6.26794184 56.30420114 6.27259064 57.78460884 C6.27765562 59.85078427 6.269947 61.9165232 6.25878906 63.98266602 C6.25640228 65.74780296 6.25640228 65.74780296 6.25396729 67.54859924 C6 70.3125 6 70.3125 4 72.3125 C2.125 72.578125 2.125 72.578125 0 72.5625 C-0.70125 72.56765625 -1.4025 72.5728125 -2.125 72.578125 C-4 72.3125 -4 72.3125 -6 70.3125 C-6.25396729 67.50390625 -6.25396729 67.50390625 -6.25878906 63.875 C-6.2622937 63.21467773 -6.26579834 62.55435547 -6.26940918 61.87402344 C-6.27822681 59.68674268 -6.27237743 57.49978417 -6.265625 55.3125 C-6.26697165 53.79557228 -6.26891217 52.27864499 -6.27142334 50.76171875 C-6.27437464 47.58068742 -6.27007684 44.39976831 -6.26074219 41.21875 C-6.24934757 37.13622098 -6.25590702 33.05395491 -6.26788712 28.97143555 C-6.27510561 25.83852142 -6.27281786 22.70566989 -6.26763153 19.57275391 C-6.266295 18.06721974 -6.26794288 16.56167993 -6.27259064 15.05615234 C-6.27765579 12.95394788 -6.26994627 10.85217242 -6.25878906 8.75 C-6.25719788 7.55246094 -6.25560669 6.35492188 -6.25396729 5.12109375 C-5.85328405 0.68998587 -4.09092296 0.02256024 0 0 Z " fill="currentColor" transform="translate(779,137.6875)"/>
<path d="M0 0 C2.79622582 2.79622582 2.25358491 4.52081318 2.25878906 8.4375 C2.2622937 9.09782227 2.26579834 9.75814453 2.26940918 10.43847656 C2.27822681 12.62575732 2.27237743 14.81271583 2.265625 17 C2.26697165 18.51692772 2.26891217 20.03385501 2.27142334 21.55078125 C2.27437464 24.73181258 2.27007684 27.91273169 2.26074219 31.09375 C2.24934757 35.17627902 2.25590702 39.25854509 2.26788712 43.34106445 C2.27510561 46.47397858 2.27281786 49.60683011 2.26763153 52.73974609 C2.266295 54.24528026 2.26794288 55.75082007 2.27259064 57.25634766 C2.27765579 59.35855212 2.26994627 61.46032758 2.25878906 63.5625 C2.25640228 65.35880859 2.25640228 65.35880859 2.25396729 67.19140625 C2 70 2 70 0 72 C-1.875 72.30078125 -1.875 72.30078125 -4 72.3125 C-4.70125 72.32925781 -5.4025 72.34601563 -6.125 72.36328125 C-6.74375 72.24339844 -7.3625 72.12351562 -8 72 C-10.37598259 68.43602612 -10.25780893 66.87876635 -10.2746582 62.6484375 C-10.28419022 61.33697754 -10.29372223 60.02551758 -10.30354309 58.67431641 C-10.30328169 57.24121067 -10.30234477 55.80810491 -10.30078125 54.375 C-10.30466792 52.90673705 -10.30900253 51.43847521 -10.31376648 49.97021484 C-10.32122779 46.8935176 -10.3209378 43.81693511 -10.31567383 40.74023438 C-10.30987473 36.79562475 -10.32682077 32.85148398 -10.3500185 28.9069519 C-10.3647417 25.87521616 -10.36562958 22.84359377 -10.36250877 19.81182861 C-10.36302255 18.35735138 -10.36827095 16.9028679 -10.37832069 15.44842529 C-10.39064099 13.41617405 -10.38196672 11.38382816 -10.37231445 9.3515625 C-10.37294388 8.19479004 -10.3735733 7.03801758 -10.3742218 5.84619141 C-10 3 -10 3 -8.6993866 1.12255859 C-5.87554129 -0.74278024 -3.26865672 -0.29715061 0 0 Z " fill="currentColor" transform="translate(680,138)"/>
</svg>
