<?xml version="1.0" encoding="utf-8"?>
<!-- Generator: Adobe Illustrator 24.2.3, SVG Export Plug-In . SVG Version: 6.00 Build 0)  -->
<svg version="1.1" id="Layer_1" xmlns="http://www.w3.org/2000/svg" xmlns:xlink="http://www.w3.org/1999/xlink" x="0px" y="0px"
	 viewBox="0 0 211.32 98.545" style="enable-background:new 0 0 211.32 98.545;" xml:space="preserve">
<style type="text/css">
	.st0{fill:#6AC66A;}
</style>
<path class="st0" d="M10.873,37.947v17.569H0V0.72h9.145l1.009,5.904C12.817,2.304,16.706,0,22.034,0
	c8.353,0,13.969,6.192,13.969,17.93c0,13.465-7.632,20.81-19.009,20.81C15.05,38.739,12.961,38.451,10.873,37.947z M10.873,29.019
	c1.656,0.72,3.24,1.008,4.896,1.008c5.257,0,8.929-3.457,8.929-10.945c0-6.336-2.736-9.505-6.696-9.505
	c-3.169,0-5.473,1.729-7.129,4.896V29.019z"/>
<path class="st0" d="M45.791,38.235V0.72h9.145l1.297,7.776c2.448-5.256,6.984-8.424,12.385-8.424l0.576,10.584
	c-5.688-0.216-10.009,1.8-12.529,6.769v20.81H45.791z"/>
<path class="st0" d="M74.735,28.73c0-7.92,5.833-12.457,21.962-14.185c-0.72-4.104-4.464-5.4-10.729-5.4
	c-2.521,0-4.824,0.216-8.281,0.576l0.576-9c3.816-0.36,6.697-0.648,10.226-0.648c12.601,0,18.721,4.176,18.721,16.201v21.962h-9.145
	l-0.864-5.833c-2.52,4.32-6.769,6.553-11.881,6.553C78.696,38.956,74.735,35.139,74.735,28.73z M89.064,31.107
	c4.104,0,7.849-3.457,7.777-9.505V21.17c-9.793,1.008-11.881,3.024-11.881,6.121C84.961,30.027,86.616,31.107,89.064,31.107z"/>
<path class="st0" d="M115.488,38.235l11.161-19.154L115.992,0.72h12.602l6.912,12.673l6.192-12.673h11.81l-10.514,18.146
	l11.306,19.37h-12.602l-7.561-13.681l-6.841,13.681H115.488z"/>
<rect x="162.503" y="0.72" class="st0" width="10.873" height="37.515"/>
<path class="st0" d="M184.318,38.235l-0.432-8.208c3.24,0.576,5.76,0.792,8.425,0.792c4.68,0,7.704-0.936,7.704-3.312
	c0-1.584-0.647-2.736-6.408-4.824c-7.272-2.665-10.441-5.473-10.441-11.593c0-6.48,5.545-11.017,15.985-11.017
	c3.24,0,6.049,0.216,9.146,0.648l0.432,8.137c-2.736-0.504-5.112-0.72-8.137-0.72c-4.32,0-6.192,0.936-6.192,2.952
	c0,1.872,1.08,2.88,6.624,4.896c8.065,2.952,10.297,6.049,10.297,11.089c0,7.705-6.624,11.737-17.425,11.737
	C190.583,38.812,187.559,38.595,184.318,38.235z"/>
<g>
	<path class="st0" d="M0.019,97.969V60.454h9.145l0.864,5.112c3.528-3.816,7.705-5.76,12.817-5.76c4.608,0,7.705,1.368,9.648,3.96
		c0.576,0.72,1.009,1.44,1.368,2.304c3.673-4.248,7.849-6.264,13.033-6.264c4.753,0,7.921,1.368,9.865,3.96
		c2.016,2.665,2.592,5.761,2.592,13.394v20.81H48.551V79.607c0-4.32-0.288-6.192-1.44-7.705c-1.224-1.44-2.88-2.016-5.472-2.016
		c-2.377,0-4.465,0.72-6.625,2.521c0.145,1.368,0.145,2.88,0.145,4.752v20.81H24.285V79.607c0-4.32-0.217-6.192-1.44-7.705
		c-1.152-1.44-2.809-2.016-5.257-2.016c-2.664,0-5.112,0.936-6.696,2.592v25.49H0.019z"/>
	<path class="st0" d="M67.986,49.509c0-3.528,2.448-5.761,6.48-5.761c3.889,0,6.337,2.232,6.337,5.761c0,3.6-2.448,5.76-6.337,5.76
		C70.435,55.269,67.986,53.109,67.986,49.509z M68.994,60.454h10.873v37.515H68.994V60.454z"/>
	<path class="st0" d="M94.986,94.944c-2.592-2.664-3.96-6.408-3.96-13.825V68.878h-5.329v-7.201l5.833-0.792l1.224-7.993h9.289
		v7.561h10.153v8.425h-10.153v12.745c0,6.336,2.304,8.281,6.12,8.281c1.801,0,3.169-0.145,4.608-0.433l-0.575,8.497
		c-1.801,0.359-4.321,0.576-6.481,0.576C101.251,98.545,97.507,97.393,94.986,94.944z"/>
	<path class="st0" d="M125.082,94.944c-2.592-2.664-3.96-6.408-3.96-13.825V68.878h-5.329v-7.201l5.833-0.792l1.224-7.993h9.289
		v7.561h10.153v8.425h-10.153v12.745c0,6.336,2.304,8.281,6.12,8.281c1.801,0,3.169-0.145,4.608-0.433l-0.575,8.497
		c-1.801,0.359-4.321,0.576-6.481,0.576C131.347,98.545,127.603,97.393,125.082,94.944z"/>
	<path class="st0" d="M146.969,79.103c0-12.529,8.497-19.37,18.218-19.37c10.297,0,15.266,6.192,15.266,16.994
		c0,2.016-0.145,3.816-0.288,5.616h-22.106c1.08,5.617,4.896,7.561,11.882,7.561c2.88,0,5.832-0.288,8.353-0.648l-0.504,8.568
		c-2.593,0.433-6.121,0.721-10.297,0.721C153.81,98.545,146.969,92.208,146.969,79.103z M157.842,76.439l12.313-0.648
		c0-5.473-1.656-7.993-5.257-7.993C161.154,67.798,158.418,70.462,157.842,76.439z"/>
	<path class="st0" d="M187.721,97.969V60.454h9.145l1.297,7.776c2.448-5.256,6.984-8.424,12.385-8.424l0.576,10.584
		c-5.688-0.216-10.009,1.8-12.529,6.769v20.81H187.721z"/>
</g>
</svg>
