<?xml version="1.0" encoding="utf-8"?>
<!-- Generator: Adobe Illustrator 24.2.3, SVG Export Plug-In . SVG Version: 6.00 Build 0)  -->
<svg version="1.1" id="Layer_1" xmlns="http://www.w3.org/2000/svg" xmlns:xlink="http://www.w3.org/1999/xlink" x="0px" y="0px"
	 viewBox="0 0 439.795 276.869" style="enable-background:new 0 0 439.795 276.869;" xml:space="preserve">
<path fill="currentColor" d="M22.649,149.069v36.599H0V71.522h19.049l2.1,12.3c5.55-9,13.649-13.8,24.749-13.8c17.399,0,29.099,12.9,29.099,37.349
	c0,28.049-15.899,43.348-39.599,43.348C31.348,150.719,26.999,150.119,22.649,149.069z M22.649,130.47c3.45,1.5,6.75,2.1,10.199,2.1
	c10.95,0,18.6-7.2,18.6-22.799c0-13.199-5.7-19.799-13.949-19.799c-6.6,0-11.399,3.6-14.85,10.2V130.47z"/>
<path fill="currentColor" d="M89.399,149.669V71.522h19.049l2.7,16.2c5.1-10.95,14.549-17.549,25.799-17.549l1.2,22.049
	c-11.85-0.45-20.85,3.75-26.1,14.1v43.348H89.399z"/>
<path fill="currentColor" d="M143.7,129.87c0-16.499,12.149-25.949,45.748-29.549c-1.5-8.549-9.3-11.25-22.349-11.25c-5.25,0-10.05,0.45-17.249,1.2
	l1.199-18.75c7.95-0.75,13.95-1.35,21.3-1.35c26.249,0,38.998,8.7,38.998,33.749v45.748h-19.049l-1.801-12.149
	c-5.249,9-14.099,13.649-24.748,13.649C151.95,151.169,143.7,143.219,143.7,129.87z M173.548,134.819
	c8.55,0,16.35-7.2,16.199-19.799v-0.9C169.349,116.22,165,120.42,165,126.87C165,132.57,168.449,134.819,173.548,134.819z"/>
<path fill="currentColor" d="M222.6,149.669l23.249-39.898L223.65,71.522h26.249l14.399,26.399l12.899-26.399h24.599l-21.898,37.799l23.549,40.348
	h-26.249l-15.749-28.499l-14.25,28.499H222.6z"/>
<rect fill="currentColor" x="314.547" y="71.522" width="22.648" height="78.147"/>
<path fill="currentColor" d="M353.997,149.669l-0.9-17.099c6.75,1.2,12,1.65,17.55,1.65c9.749,0,16.049-1.95,16.049-6.9c0-3.3-1.35-5.7-13.35-10.049
	c-15.149-5.55-21.749-11.4-21.749-24.149c0-13.5,11.55-22.949,33.299-22.949c6.75,0,12.6,0.45,19.049,1.35l0.9,16.95
	c-5.7-1.05-10.649-1.5-16.949-1.5c-9,0-12.899,1.95-12.899,6.149c0,3.9,2.25,6,13.799,10.2c16.8,6.15,21.449,12.6,21.449,23.099
	c0,16.049-13.799,24.449-36.298,24.449C367.045,150.869,360.746,150.419,353.997,149.669z"/>
<path fill="currentColor" d="M0,275.669v-78.147h19.049l1.8,10.65c7.35-7.949,16.049-12,26.699-12c9.6,0,16.049,2.85,20.099,8.25c1.2,1.5,2.1,3,2.85,4.8
	c7.65-8.85,16.35-13.05,27.149-13.05c9.899,0,16.499,2.85,20.549,8.25c4.2,5.55,5.4,11.999,5.4,27.898v43.349h-22.5v-38.248
	c0-9-0.6-12.899-2.999-16.05c-2.55-3-6-4.2-11.4-4.2c-4.949,0-9.299,1.5-13.799,5.25c0.3,2.851,0.3,6,0.3,9.899v43.349H50.547
	v-38.248c0-9-0.449-12.899-2.999-16.05c-2.4-3-5.851-4.2-10.95-4.2c-5.55,0-10.649,1.95-13.949,5.4v53.098H0z"/>
<path fill="currentColor" d="M141.598,174.723c0-7.35,5.101-12,13.5-12c8.1,0,13.199,4.65,13.199,12c0,7.5-5.1,12-13.199,12
	C146.699,186.723,141.598,182.223,141.598,174.723z M143.699,197.521h22.648v78.147h-22.648V197.521z"/>
<path fill="currentColor" d="M197.846,269.369c-5.399-5.55-8.25-13.35-8.25-28.799v-25.499h-11.1v-14.999l12.149-1.65l2.551-16.648h19.349v15.748h21.149
	v17.55h-21.149v26.549c0,13.199,4.8,17.249,12.75,17.249c3.749,0,6.6-0.3,9.6-0.899l-1.2,17.699c-3.75,0.75-9,1.2-13.5,1.2
	C210.896,276.869,203.096,274.469,197.846,269.369z"/>
<path fill="currentColor" d="M260.546,269.369c-5.399-5.55-8.25-13.35-8.25-28.799v-25.499h-11.1v-14.999l12.149-1.65l2.55-16.648h19.35v15.748h21.149
	v17.55h-21.149v26.549c0,13.199,4.8,17.249,12.75,17.249c3.749,0,6.6-0.3,9.6-0.899l-1.2,17.699c-3.75,0.75-9,1.2-13.5,1.2
	C273.596,276.869,265.796,274.469,260.546,269.369z"/>
<path fill="currentColor" d="M306.147,236.37c0-26.099,17.699-40.349,37.948-40.349c21.449,0,31.799,12.9,31.799,35.399c0,4.199-0.3,7.949-0.6,11.699
	h-46.048c2.25,11.699,10.199,15.749,24.749,15.749c5.999,0,12.149-0.6,17.398-1.35l-1.05,17.85c-5.399,0.899-12.749,1.5-21.449,1.5
	C320.397,276.869,306.147,263.67,306.147,236.37z M328.796,230.82l25.648-1.35c0-11.399-3.449-16.649-10.949-16.649
	C335.696,212.821,329.997,218.371,328.796,230.82z"/>
<path fill="currentColor" d="M391.047,275.669v-78.147h19.049l2.7,16.2c5.1-10.95,14.549-17.55,25.799-17.55l1.2,22.05
	c-11.85-0.45-20.85,3.749-26.1,14.099v43.349H391.047z"/>
<g>
	<ellipse fill="currentColor" cx="325.867" cy="30.443" rx="13.552" ry="30.443"/>
	<ellipse fill="currentColor" transform="matrix(0.7071 -0.7071 0.7071 0.7071 82.4814 273.7837)" cx="371.727" cy="37.328" rx="30.442" ry="13.552"/>
	<ellipse fill="currentColor" transform="matrix(0.7071 -0.7071 0.7071 0.7071 55.589 208.8584)" cx="279.909" cy="37.327" rx="13.552" ry="30.442"/>
</g>
</svg>
