<?xml version="1.0" encoding="utf-8"?>
<!-- Generator: Adobe Illustrator 24.2.3, SVG Export Plug-In . SVG Version: 6.00 Build 0)  -->
<svg fill="currentColor" stroke="currentColor" version="1.1" id="Layer_1" xmlns="http://www.w3.org/2000/svg" xmlns:xlink="http://www.w3.org/1999/xlink" x="0px" y="0px"
	 viewBox="0 0 325.196 208.029" enable-background="new 0 0 325.196 208.029" xml:space="preserve">

<g>
	<path  d="M0,135.069v-82.32h15.72v15.24l-2.64,14.04l2.52,14.16v38.88H0z M32.16,111.909
		c-4.161,0-7.92-0.84-11.28-2.52c-3.36-1.68-6.06-4.02-8.1-7.02c-2.04-3-3.141-6.379-3.3-10.14v-20.64
		c0.16-3.84,1.26-7.26,3.3-10.26c2.04-3,4.74-5.379,8.1-7.14c3.36-1.759,7.12-2.64,11.28-2.64c5.358,0,10.179,1.32,14.46,3.96
		c4.279,2.64,7.62,6.24,10.02,10.8s3.6,9.72,3.6,15.48c0,5.681-1.221,10.8-3.66,15.36c-2.441,4.56-5.781,8.16-10.02,10.8
		C42.319,110.589,37.519,111.909,32.16,111.909z M29.52,97.389c2.88,0,5.4-0.679,7.56-2.04c2.16-1.359,3.859-3.22,5.1-5.58
		c1.239-2.359,1.86-5.059,1.86-8.1c0-3.04-0.621-5.719-1.86-8.04c-1.241-2.319-2.94-4.159-5.1-5.52
		c-2.16-1.359-4.721-2.04-7.68-2.04c-2.801,0-5.3,0.681-7.5,2.04c-2.201,1.361-3.92,3.201-5.16,5.52c-1.241,2.321-1.86,5-1.86,8.04
		c0,3.042,0.58,5.741,1.74,8.1c1.159,2.36,2.88,4.221,5.16,5.58C24.06,96.71,26.64,97.389,29.52,97.389z"/>
	<path  d="M70.439,110.709v-57.96h15.72v57.96H70.439z M86.159,78.789l-6.12-4.2c0.72-7.119,2.799-12.739,6.24-16.86
		c3.439-4.12,8.4-6.18,14.88-6.18c2.88,0,5.418,0.461,7.62,1.38c2.2,0.92,4.219,2.42,6.06,4.5l-9.84,11.4
		c-0.881-1.039-1.94-1.779-3.18-2.22c-1.241-0.438-2.661-0.66-4.26-0.66c-3.36,0-6.102,1.041-8.22,3.12
		C87.218,71.15,86.159,74.39,86.159,78.789z"/>
	<path  d="M142.919,111.909c-5.28,0-10.02-1.32-14.22-3.96c-4.2-2.64-7.5-6.24-9.9-10.8s-3.6-9.679-3.6-15.36
		c0-5.76,1.2-10.92,3.6-15.48s5.7-8.16,9.9-10.8c4.2-2.64,8.979-3.96,14.34-3.96c4.08,0,7.759,0.84,11.04,2.52
		c3.279,1.68,5.919,4.001,7.919,6.96c2,2.961,3.078,6.36,3.24,10.2v21c-0.162,3.761-1.221,7.14-3.18,10.14
		c-1.961,3-4.602,5.34-7.92,7.02C150.818,111.069,147.078,111.909,142.919,111.909z M145.919,97.389
		c4.398,0,7.959-1.479,10.679-4.44c2.719-2.959,4.08-6.679,4.08-11.16c0-3.04-0.641-5.76-1.92-8.16s-3-4.26-5.16-5.58
		c-2.16-1.32-4.721-1.98-7.68-1.98c-2.88,0-5.421,0.681-7.62,2.04c-2.201,1.361-3.92,3.201-5.16,5.52c-1.241,2.321-1.86,5-1.86,8.04
		c0,3.12,0.619,5.841,1.86,8.16c1.24,2.321,2.979,4.161,5.22,5.52C140.598,96.71,143.118,97.389,145.919,97.389z M159.719,110.709
		v-15.6l2.639-14.16l-2.639-14.04v-14.16h15.84v57.96H159.719z"/>
	<path  d="M183.238,110.709l23.64-33.12l9,10.68l-14.88,22.44H183.238z M225.478,110.709l-15.36-23.4l-3.12-2.4
		l-22.68-32.16h18.72l14.04,21.24l3.12,2.16l23.76,34.56H225.478z M220.678,84.669l-9.24-10.56l13.8-21.36h17.64L220.678,84.669z"/>
	<path  d="M301.795,112.029c-3.36,0-6.621-0.42-9.78-1.26c-3.161-0.84-6.06-2.08-8.7-3.72
		c-2.64-1.639-4.92-3.579-6.84-5.82l9.48-9.48c1.92,2.321,4.2,4.041,6.84,5.16c2.64,1.121,5.52,1.68,8.64,1.68
		c2.56,0,4.52-0.378,5.88-1.14c1.359-0.76,2.04-1.819,2.04-3.18c0-1.6-0.72-2.82-2.159-3.66c-1.44-0.84-3.261-1.579-5.46-2.22
		c-2.202-0.64-4.542-1.32-7.021-2.04c-2.48-0.72-4.82-1.699-7.02-2.94c-2.201-1.24-4.021-2.979-5.46-5.22
		c-1.44-2.239-2.16-5.119-2.16-8.64c0-3.679,0.919-6.9,2.76-9.66c1.839-2.76,4.44-4.879,7.8-6.36c3.36-1.479,7.32-2.22,11.88-2.22
		c4.8,0,9.139,0.821,13.021,2.46c3.879,1.641,7.099,4.14,9.66,7.5l-9.48,9.6c-1.761-2.08-3.74-3.619-5.939-4.62
		c-2.202-1-4.542-1.5-7.021-1.5c-2.4,0-4.2,0.36-5.4,1.08c-1.199,0.72-1.8,1.721-1.8,3c0,1.44,0.679,2.541,2.04,3.3
		c1.359,0.761,3.159,1.461,5.4,2.1c2.238,0.641,4.578,1.341,7.02,2.1c2.439,0.761,4.759,1.82,6.96,3.18c2.199,1.361,4,3.162,5.4,5.4
		c1.398,2.24,2.1,5.121,2.1,8.64c0,5.682-2.04,10.182-6.12,13.5C314.276,110.37,308.755,112.029,301.795,112.029z"/>
	<path  d="M0,206.709v-57.961h15.72v57.961H0z M37.68,206.709v-34.201c0-3.359-1.041-5.979-3.12-7.859
		c-2.081-1.879-4.68-2.82-7.8-2.82c-2.082,0-3.941,0.42-5.58,1.26c-1.641,0.841-2.961,2.061-3.96,3.66
		c-1.001,1.602-1.5,3.561-1.5,5.881l-6.12-3.121c0-4.479,0.979-8.357,2.94-11.639c1.959-3.279,4.62-5.82,7.98-7.621
		c3.36-1.799,7.159-2.699,11.4-2.699c4,0,7.639,0.9,10.92,2.699c3.28,1.801,5.88,4.32,7.8,7.561s2.88,7.101,2.88,11.58v37.32H37.68z
		 M75.48,206.709v-34.201c0-3.359-1.041-5.979-3.12-7.859c-2.081-1.879-4.641-2.82-7.68-2.82c-2.16,0-4.062,0.42-5.7,1.26
		c-1.641,0.841-2.96,2.061-3.96,3.66c-1.001,1.602-1.5,3.561-1.5,5.881l-9-2.28c0.24-4.72,1.459-8.761,3.66-12.12
		c2.199-3.359,5.059-5.979,8.58-7.859c3.519-1.879,7.44-2.82,11.76-2.82s8.199,0.9,11.64,2.699c3.438,1.801,6.18,4.381,8.22,7.74
		c2.04,3.36,3.06,7.4,3.06,12.12v36.601H75.48z"/>
	<path  d="M112.079,139.389c-2.561,0-4.68-0.859-6.36-2.58c-1.68-1.719-2.52-3.859-2.52-6.42
		c0-2.479,0.84-4.6,2.52-6.36c1.68-1.759,3.799-2.64,6.36-2.64c2.64,0,4.779,0.881,6.42,2.64c1.639,1.761,2.46,3.881,2.46,6.36
		c0,2.561-0.821,4.701-2.46,6.42C116.858,138.53,114.719,139.389,112.079,139.389z M104.039,206.709v-57.961h15.96v57.961H104.039z"
		/>
	<path  d="M128.997,162.549v-13.801h78.72v13.801H128.997z M142.557,206.709v-82.081h15.721v82.081H142.557z
		 M178.438,206.709v-82.081h15.719v82.081H178.438z"/>
	<path  d="M242.997,208.029c-6.08,0-11.501-1.319-16.26-3.96c-4.761-2.64-8.501-6.24-11.22-10.8
		c-2.721-4.56-4.08-9.759-4.08-15.601c0-5.76,1.339-10.92,4.02-15.479c2.68-4.56,6.34-8.16,10.98-10.8
		c4.639-2.641,9.84-3.96,15.6-3.96c5.439,0,10.32,1.241,14.641,3.72c4.319,2.48,7.68,5.922,10.08,10.32c2.399,4.4,3.6,9.4,3.6,15
		c0,1.041-0.041,2.1-0.12,3.18c-0.08,1.08-0.281,2.262-0.6,3.54l-48.84,0.12v-11.76l41.52-0.12l-6.48,4.92
		c-0.08-3.438-0.68-6.319-1.8-8.64c-1.121-2.32-2.681-4.08-4.68-5.28c-2.001-1.2-4.481-1.8-7.44-1.8c-3.119,0-5.84,0.68-8.159,2.039
		c-2.321,1.361-4.101,3.301-5.341,5.82c-1.241,2.52-1.859,5.502-1.859,8.94c0,3.521,0.66,6.581,1.979,9.18
		c1.32,2.601,3.22,4.581,5.7,5.94c2.479,1.361,5.358,2.039,8.64,2.039c2.959,0,5.641-0.479,8.04-1.439
		c2.4-0.96,4.479-2.479,6.24-4.561l9.36,9.361c-2.961,3.359-6.44,5.879-10.44,7.559
		C252.076,207.189,247.716,208.029,242.997,208.029z"/>
	<path  d="M280.315,206.709v-57.961h15.72v57.961H280.315z M296.035,174.79l-6.12-4.201
		c0.721-7.119,2.8-12.738,6.24-16.859c3.438-4.119,8.4-6.18,14.88-6.18c2.88,0,5.419,0.461,7.62,1.38
		c2.199,0.921,4.219,2.421,6.061,4.5l-9.841,11.399c-0.881-1.039-1.94-1.779-3.18-2.22c-1.241-0.438-2.66-0.659-4.26-0.659
		c-3.36,0-6.102,1.04-8.22,3.119C297.094,167.151,296.035,170.39,296.035,174.79z"/>
</g>
<g>
	<rect x="251.877" y="52.749"  width="15.96" height="57.96"/>
	<g>
		<ellipse  cx="259.869" cy="20.097" rx="8.914" ry="20.097"/>
		
			<ellipse transform="matrix(0.7071 -0.7071 0.7071 0.7071 67.5713 212.4006)"  cx="290.176" cy="24.635" rx="20.097" ry="8.914"/>
		
			<ellipse transform="matrix(0.7071 -0.7071 0.7071 0.7071 49.8179 169.5401)"  cx="229.562" cy="24.635" rx="8.914" ry="20.097"/>
	</g>
</g>
</svg>
