<svg id="Layer_1" data-name="Layer 1" xmlns="http://www.w3.org/2000/svg" viewBox="0 0 325.2 208.03"><path d="M0,135.07V52.75H15.72V68L13.08,82,15.6,96.19v38.88Zm32.16-23.16a24.87,24.87,0,0,1-11.28-2.52,20.91,20.91,0,0,1-8.1-7,19.11,19.11,0,0,1-3.3-10.14V71.59a19.3,19.3,0,0,1,3.3-10.26,21.89,21.89,0,0,1,8.1-7.14,23.94,23.94,0,0,1,11.28-2.64,27,27,0,0,1,14.46,4,27.46,27.46,0,0,1,10,10.8,32.73,32.73,0,0,1,3.6,15.48,32,32,0,0,1-3.66,15.36,28,28,0,0,1-10,10.8A26.68,26.68,0,0,1,32.16,111.91ZM29.52,97.39a13.89,13.89,0,0,0,7.56-2,14.32,14.32,0,0,0,5.1-5.58A17.15,17.15,0,0,0,44,81.67a16.8,16.8,0,0,0-1.86-8,14.43,14.43,0,0,0-5.1-5.52,14.11,14.11,0,0,0-7.68-2,14,14,0,0,0-7.5,2,14.28,14.28,0,0,0-5.16,5.52,16.8,16.8,0,0,0-1.86,8,18.13,18.13,0,0,0,1.74,8.1,13.11,13.11,0,0,0,5.16,5.58A14.82,14.82,0,0,0,29.52,97.39Z" fill="#58462f"/><path d="M70.44,110.71v-58H86.16v58ZM86.16,78.79,80,74.59q1.08-10.68,6.24-16.86t14.88-6.18a19.62,19.62,0,0,1,7.62,1.38,16.76,16.76,0,0,1,6.06,4.5L105,68.83a7.31,7.31,0,0,0-3.18-2.22A12.7,12.7,0,0,0,97.56,66a11.24,11.24,0,0,0-8.22,3.12Q86.16,72.19,86.16,78.79Z" fill="#58462f"/><path d="M142.92,111.91a26.16,26.16,0,0,1-14.22-4,27.75,27.75,0,0,1-9.9-10.8,32.47,32.47,0,0,1-3.6-15.36,32.73,32.73,0,0,1,3.6-15.48,27.75,27.75,0,0,1,9.9-10.8,26.38,26.38,0,0,1,14.34-4,23.86,23.86,0,0,1,11,2.52A20.85,20.85,0,0,1,162,61a19.27,19.27,0,0,1,3.24,10.2v21a19.72,19.72,0,0,1-3.18,10.14,20.11,20.11,0,0,1-7.92,7A24.5,24.5,0,0,1,142.92,111.91Zm3-14.52A13.82,13.82,0,0,0,156.6,93a15.86,15.86,0,0,0,4.08-11.16,17.07,17.07,0,0,0-1.92-8.16,14.21,14.21,0,0,0-5.16-5.58,14.44,14.44,0,0,0-7.68-2,14,14,0,0,0-12.78,7.56,16.8,16.8,0,0,0-1.86,8,17.06,17.06,0,0,0,1.86,8.16,14.21,14.21,0,0,0,12.78,7.56Zm13.8,13.32V95.11L162.36,81l-2.64-14V52.75h15.84v58Z" fill="#58462f"/><path d="M183.24,110.71l23.64-33.12,9,10.68L201,110.71Zm42.24,0-15.36-23.4L207,84.91,184.32,52.75H203l14,21.24,3.12,2.16L244,110.71Zm-4.8-26-9.24-10.56,13.8-21.36h17.64Z" fill="#58462f"/><path d="M301.8,112a37.85,37.85,0,0,1-9.78-1.26,32,32,0,0,1-8.71-3.72,29.43,29.43,0,0,1-6.83-5.82L286,91.75a17.84,17.84,0,0,0,6.84,5.16,21.86,21.86,0,0,0,8.64,1.68,12.24,12.24,0,0,0,5.87-1.14,3.51,3.51,0,0,0,2-3.18,4,4,0,0,0-2.15-3.66,24.49,24.49,0,0,0-5.46-2.22l-7-2a32.74,32.74,0,0,1-7-2.94,15.39,15.39,0,0,1-5.46-5.22,15.72,15.72,0,0,1-2.16-8.64,16.93,16.93,0,0,1,2.76-9.66,17.59,17.59,0,0,1,7.8-6.36,29.29,29.29,0,0,1,11.88-2.22,33.2,33.2,0,0,1,13,2.46,23.53,23.53,0,0,1,9.66,7.5l-9.48,9.6a17.1,17.1,0,0,0-5.94-4.62,16.83,16.83,0,0,0-7-1.5,10.75,10.75,0,0,0-5.41,1.08,3.35,3.35,0,0,0-1.79,3,3.58,3.58,0,0,0,2,3.3,25.36,25.36,0,0,0,5.4,2.1q3.35,1,7,2.1a30.75,30.75,0,0,1,7,3.18,16.68,16.68,0,0,1,5.4,5.4,16.16,16.16,0,0,1,2.1,8.64q0,8.52-6.13,13.5T301.8,112Z" fill="#58462f"/><path d="M0,206.71v-58H15.72v58Zm37.68,0v-34.2a10.05,10.05,0,0,0-3.12-7.86,11.2,11.2,0,0,0-7.8-2.82,12.06,12.06,0,0,0-5.58,1.26,10,10,0,0,0-4,3.66,10.89,10.89,0,0,0-1.5,5.88L9.6,169.51a22.27,22.27,0,0,1,2.94-11.64,20.3,20.3,0,0,1,8-7.62,23.76,23.76,0,0,1,11.4-2.7,22.32,22.32,0,0,1,10.92,2.7,20.23,20.23,0,0,1,7.8,7.56,22.31,22.31,0,0,1,2.88,11.58v37.32Zm37.8,0v-34.2a10.05,10.05,0,0,0-3.12-7.86,11,11,0,0,0-7.68-2.82,12.34,12.34,0,0,0-5.7,1.26,10,10,0,0,0-4,3.66,10.89,10.89,0,0,0-1.5,5.88l-9-2.28a23.93,23.93,0,0,1,3.66-12.12,23.13,23.13,0,0,1,8.58-7.86,24.56,24.56,0,0,1,11.76-2.82,24.73,24.73,0,0,1,11.64,2.7A20.67,20.67,0,0,1,88.38,158a22.92,22.92,0,0,1,3.06,12.12v36.6Z" fill="#58462f"/><path d="M112.08,139.39a8.52,8.52,0,0,1-6.36-2.58,9.36,9.36,0,0,1,0-12.78,9.05,9.05,0,0,1,12.78,0,9.53,9.53,0,0,1,0,12.78A8.47,8.47,0,0,1,112.08,139.39Zm-8,67.32v-58h16v58Z" fill="#58462f"/><path d="M129,162.55v-13.8h78.72v13.8Zm13.56,44.16V124.63h15.72v82.08Zm35.88,0V124.63h15.72v82.08Z" fill="#58462f"/><path d="M243,208a33,33,0,0,1-16.26-4,29.42,29.42,0,0,1-11.22-10.8,31.84,31.84,0,0,1-.06-31.08,29.34,29.34,0,0,1,11-10.8,31,31,0,0,1,15.6-4,28.87,28.87,0,0,1,14.64,3.72,26.06,26.06,0,0,1,10.08,10.32,30.81,30.81,0,0,1,3.6,15q0,1.56-.12,3.18a21.13,21.13,0,0,1-.6,3.54l-48.84.12V171.55l41.52-.12-6.48,4.92a21,21,0,0,0-1.8-8.64,12.09,12.09,0,0,0-4.68-5.28,14.24,14.24,0,0,0-7.44-1.8,15.84,15.84,0,0,0-8.16,2,13.46,13.46,0,0,0-5.34,5.82,22.34,22.34,0,0,0,.12,18.12,13.64,13.64,0,0,0,5.7,5.94,17.68,17.68,0,0,0,8.64,2,21.48,21.48,0,0,0,8-1.44,15.77,15.77,0,0,0,6.24-4.56l9.36,9.36a28.47,28.47,0,0,1-10.44,7.56A33.44,33.44,0,0,1,243,208Z" fill="#58462f"/><path d="M280.31,206.71v-58H296v58ZM296,174.79l-6.12-4.2q1.09-10.68,6.24-16.86T311,147.55a19.62,19.62,0,0,1,7.62,1.38,16.88,16.88,0,0,1,6.07,4.5l-9.85,11.4a7.31,7.31,0,0,0-3.18-2.22,12.68,12.68,0,0,0-4.25-.66,11.21,11.21,0,0,0-8.22,3.12Q296,168.19,296,174.79Z" fill="#58462f"/><rect x="251.88" y="52.75" width="15.96" height="57.96" fill="#ae9f52"/><ellipse cx="259.87" cy="20.1" rx="8.91" ry="20.1" fill="#ae9f52"/><ellipse cx="290.18" cy="24.63" rx="20.1" ry="8.91" transform="translate(67.57 212.4) rotate(-45)" fill="#ae9f52"/><ellipse cx="229.56" cy="24.63" rx="8.91" ry="20.1" transform="translate(49.82 169.54) rotate(-45)" fill="#ae9f52"/></svg>