<?xml version="1.0" encoding="utf-8"?>
<!-- Generator: Adobe Illustrator 24.2.3, SVG Export Plug-In . SVG Version: 6.00 Build 0)  -->
<svg version="1.1" id="Layer_1" xmlns="http://www.w3.org/2000/svg" xmlns:xlink="http://www.w3.org/1999/xlink" x="0px" y="0px"
	 viewBox="0 0 680.5 420.74" style="enable-background:new 0 0 680.5 420.74;" xml:space="preserve">
<g>
	<path d="M0.48,272V102h30l2.5,12.25h1c4.83-4.5,10.33-8.16,16.5-11C56.65,100.42,62.9,99,69.23,99c10,0,18.62,2.59,25.88,7.75
		c7.25,5.17,12.83,12.5,16.75,22c3.91,9.5,5.88,20.59,5.88,33.25c0,14.17-2.5,26.25-7.5,36.25s-11.46,17.62-19.38,22.88
		c-7.92,5.25-16.38,7.88-25.38,7.88c-5.17,0-10.29-1.12-15.38-3.38c-5.09-2.25-9.79-5.46-14.12-9.62l1.25,19.75V272H0.48z
		 M56.98,199c4.16,0,8.04-1.25,11.62-3.75c3.58-2.5,6.38-6.46,8.38-11.88c2-5.41,3-12.38,3-20.88c0-7.5-0.79-13.71-2.38-18.62
		c-1.59-4.91-3.96-8.62-7.12-11.12c-3.17-2.5-7.17-3.75-12-3.75c-3.67,0-7.21,0.88-10.62,2.62c-3.42,1.75-6.96,4.62-10.62,8.62V191
		c3.33,2.84,6.71,4.88,10.12,6.12C50.77,198.37,53.98,199,56.98,199z"/>
	<path d="M148.73,226V102h30l2.5,21.75h1c4.5-8.33,9.88-14.54,16.12-18.62c6.25-4.08,12.62-6.12,19.12-6.12
		c3.5,0,6.41,0.21,8.75,0.62c2.33,0.42,4.33,1.04,6,1.88l-7,31.25c-2-0.5-3.92-0.88-5.75-1.12c-1.84-0.25-4.09-0.38-6.75-0.38
		c-4.67,0-9.54,1.67-14.62,5c-5.09,3.34-9.29,9.25-12.62,17.75v72H148.73z"/>
	<path d="M279.23,229c-7.34,0-13.79-1.67-19.38-5c-5.59-3.33-9.88-7.79-12.88-13.38c-3-5.58-4.5-11.96-4.5-19.12
		c0-13.33,5.5-23.62,16.5-30.88s28.75-12.21,53.25-14.88c-0.34-3.5-1.17-6.54-2.5-9.12c-1.34-2.58-3.42-4.58-6.25-6
		c-2.84-1.41-6.42-2.12-10.75-2.12c-5.34,0-10.62,0.92-15.88,2.75c-5.25,1.84-10.88,4.42-16.88,7.75l-13.25-23.75
		c5.16-3.16,10.66-6,16.5-8.5c5.83-2.5,11.75-4.41,17.75-5.75c6-1.33,12.25-2,18.75-2c10.66,0,19.62,2.04,26.88,6.12
		c7.25,4.09,12.83,10.29,16.75,18.62c3.91,8.34,5.88,18.84,5.88,31.5V226h-30.25l-2.5-12.75h-1c-5.34,4.67-10.92,8.46-16.75,11.38
		C292.9,227.54,286.4,229,279.23,229z M291.73,200.25c4.16,0,7.88-0.91,11.12-2.75c3.25-1.83,6.38-4.33,9.38-7.5v-21
		c-8.67,1.17-15.5,2.67-20.5,4.5c-5,1.84-8.59,4.04-10.75,6.62c-2.17,2.59-3.25,5.46-3.25,8.62c0,3.84,1.29,6.71,3.88,8.62
		C284.19,199.29,287.57,200.25,291.73,200.25z"/>
	<path d="M372.23,226l38-64.5L374.48,102h39.5l11,20c1.66,3.5,3.38,7.04,5.12,10.62c1.75,3.59,3.54,7.12,5.38,10.62h1
		c1.33-3.5,2.75-7.04,4.25-10.62c1.5-3.58,2.91-7.12,4.25-10.62l8.5-20h38l-36,63.75L493.73,226h-39.5l-12-20.5
		c-2-3.5-3.96-7.08-5.88-10.75c-1.92-3.66-3.88-7.25-5.88-10.75h-1c-1.5,3.5-3.09,7.04-4.75,10.62c-1.67,3.59-3.25,7.21-4.75,10.88
		l-9.75,20.5H372.23z"/>
	<rect x="518.48" y="102" width="36.5" height="124"/>
	<path d="M629.23,229c-8.17,0-16.59-1.59-25.25-4.75c-8.67-3.16-16.09-7.75-22.25-13.75l15.5-20.75c5.66,4.5,11.29,7.62,16.88,9.38
		c5.58,1.75,10.96,2.62,16.12,2.62c5.5,0,9.5-0.96,12-2.88c2.5-1.91,3.75-4.46,3.75-7.62c0-2.83-1.12-5.16-3.38-7
		c-2.25-1.83-5.17-3.46-8.75-4.88c-3.59-1.41-7.62-2.96-12.12-4.62c-6-2.16-11.5-4.91-16.5-8.25c-5-3.33-9.04-7.33-12.12-12
		c-3.09-4.66-4.62-10.25-4.62-16.75c0-11.66,4.38-21.04,13.12-28.12c8.75-7.08,20.21-10.62,34.38-10.62c9,0,17.21,1.46,24.62,4.38
		c7.41,2.92,13.79,6.71,19.12,11.38l-15.75,20.5c-4.5-3.16-9-5.46-13.5-6.88c-4.5-1.41-8.92-2.12-13.25-2.12
		c-4.84,0-8.42,0.92-10.75,2.75c-2.34,1.84-3.5,4.17-3.5,7c0,2.34,0.83,4.34,2.5,6c1.66,1.67,4.21,3.21,7.62,4.62
		c3.41,1.42,7.71,2.96,12.88,4.62c6.33,2.17,12.12,4.88,17.38,8.12s9.38,7.29,12.38,12.12c3,4.84,4.5,10.67,4.5,17.5
		c0,7.5-1.96,14.25-5.88,20.25c-3.92,6-9.62,10.79-17.12,14.38S640.39,229,629.23,229z"/>
</g>
<g>
	<path d="M0,417.74v-124h30l2.5,16h1c5-5.16,10.46-9.62,16.38-13.38c5.91-3.75,12.96-5.62,21.12-5.62c8.83,0,16,1.79,21.5,5.38
		c5.5,3.59,9.75,8.71,12.75,15.38c5.5-5.66,11.33-10.54,17.5-14.62c6.16-4.08,13.33-6.12,21.5-6.12c13.5,0,23.33,4.46,29.5,13.38
		c6.16,8.92,9.25,21.12,9.25,36.62v77h-36.75v-72.25c0-9-1.21-15.16-3.62-18.5c-2.42-3.33-6.29-5-11.62-5c-3.17,0-6.5,0.96-10,2.88
		c-3.5,1.92-7.25,4.96-11.25,9.12v83.75H73v-72.25c0-9-1.21-15.16-3.62-18.5c-2.42-3.33-6.29-5-11.62-5c-6.34,0-13.34,4-21,12v83.75
		H0z"/>
	<path d="M232.5,275.49c-6.17,0-11.17-1.75-15-5.25c-3.84-3.5-5.75-8.16-5.75-14c0-5.83,1.91-10.5,5.75-14
		c3.83-3.5,8.83-5.25,15-5.25c6.16,0,11.16,1.75,15,5.25c3.83,3.5,5.75,8.17,5.75,14c0,5.84-1.92,10.5-5.75,14
		C243.66,273.74,238.66,275.49,232.5,275.49z M214.25,417.74v-124h36.5v124H214.25z"/>
	<path d="M331.25,420.49c-15.34,0-26.34-4.46-33-13.38c-6.67-8.91-10-20.54-10-34.88v-49.75H271.5v-27.25l19-1.5l4.25-38h30.5v38
		h29.5v28.75h-29.5v49.5c0,7,1.46,12.04,4.38,15.12c2.91,3.09,6.79,4.62,11.62,4.62c2,0,4-0.16,6-0.5c2-0.33,3.83-0.91,5.5-1.75
		l6,25.75c-3.17,1.5-7.09,2.75-11.75,3.75C342.33,419.99,337.08,420.49,331.25,420.49z"/>
	<path d="M422,420.49c-15.34,0-26.34-4.46-33-13.38c-6.67-8.91-10-20.54-10-34.88v-49.75h-16.75v-27.25l19-1.5l4.25-38H416v38h29.5
		v28.75H416v49.5c0,7,1.46,12.04,4.38,15.12c2.91,3.09,6.79,4.62,11.62,4.62c2,0,4-0.16,6-0.5c2-0.33,3.83-0.91,5.5-1.75l6,25.75
		c-3.17,1.5-7.09,2.75-11.75,3.75C433.08,419.99,427.83,420.49,422,420.49z"/>
	<path d="M523,420.74c-11.84,0-22.5-2.54-32-7.62s-17-12.5-22.5-22.25s-8.25-21.54-8.25-35.38c0-13.16,2.79-24.62,8.38-34.38
		c5.58-9.75,12.83-17.25,21.75-22.5c8.91-5.25,18.46-7.88,28.62-7.88c11.66,0,21.41,2.62,29.25,7.88
		c7.83,5.25,13.66,12.34,17.5,21.25c3.83,8.92,5.75,19.04,5.75,30.38c0,3.17-0.17,6.25-0.5,9.25c-0.34,3-0.75,5.42-1.25,7.25h-81
		l-0.25-25.25H540c0-6.5-1.59-11.88-4.75-16.12c-3.17-4.25-8.42-6.38-15.75-6.38c-3.84,0-7.71,1.09-11.62,3.25
		c-3.92,2.17-7.12,5.92-9.62,11.25c-2.5,5.34-3.67,12.67-3.5,22c0.16,9.5,1.88,16.92,5.12,22.25c3.25,5.34,7.38,9.12,12.38,11.38
		s10.25,3.38,15.75,3.38c4.83,0,9.5-0.66,14-2c4.5-1.33,8.91-3.41,13.25-6.25l11.75,22.5c-6.17,4.5-13.21,7.96-21.12,10.38
		C537.96,419.53,530.33,420.74,523,420.74z"/>
	<path d="M597,417.74v-124h30l2.5,21.75h1c4.5-8.33,9.88-14.54,16.12-18.62c6.25-4.08,12.62-6.12,19.12-6.12
		c3.5,0,6.41,0.21,8.75,0.62c2.33,0.42,4.33,1.04,6,1.88l-7,31.25c-2-0.5-3.92-0.88-5.75-1.12c-1.84-0.25-4.09-0.38-6.75-0.38
		c-4.67,0-9.54,1.67-14.62,5c-5.09,3.34-9.29,9.25-12.62,17.75v72H597z"/>
</g>
<g>
	<ellipse cx="536.7" cy="42" rx="20.5" ry="42"/>
	<ellipse transform="matrix(0.7071 -0.7071 0.7071 0.7071 100.6297 344.9417)" cx="466.7" cy="51" rx="20.5" ry="42"/>
	<ellipse transform="matrix(0.7071 -0.7071 0.7071 0.7071 141.3419 443.2295)" cx="605.7" cy="51" rx="42" ry="20.5"/>
</g>
</svg>
