<?xml version="1.0" encoding="utf-8"?>
<!-- Generator: Adobe Illustrator 28.3.0, SVG Export Plug-In . SVG Version: 6.00 Build 0)  -->
<svg version="1.1" xmlns="http://www.w3.org/2000/svg" xmlns:xlink="http://www.w3.org/1999/xlink" x="0px" y="0px"
	 viewBox="0 0 539.99 344.54" enable-background="new 0 0 539.99 344.54" xml:space="preserve">
<g id="Layer_1">
</g>
<g id="Layer_2">
	<g>
		<path d="M0,234.35h25.6v13.8c6.8-11.2,17.2-16.8,29.8-16.8c13.6,0,24.2,6,29.6,18.2c7.2-12.2,18.6-18.2,32.4-18.2
			c20.6,0,34.6,12.8,34.6,38.8v71.4h-25.6v-66.2c0-14.6-5.4-22.8-16.8-22.8c-12.8,0-20.8,12.4-20.8,26.8v62.2H63.2v-66.2
			c0-14.6-5.4-22.8-16.8-22.8c-12.8,0-20.8,12.4-20.8,26.8v62.2H0V234.35z"/>
		<rect x="175.6" y="234.35" width="25.6" height="107.2"/>
		<path d="M228,254.15h-13.8v-19.8H228v-24.6h25.6v24.6h22.6v19.8h-22.6v51.8c0,11.2,3.2,17.2,17.4,17.2h4.8v18.8
			c-2.8,1.4-8.6,2.6-15.6,2.6c-21.8,0-32.2-12.4-32.2-36.4V254.15z"/>
		<path d="M294.6,254.15h-13.8v-19.8h13.8v-24.6h25.6v24.6h22.6v19.8h-22.6v51.8c0,11.2,3.2,17.2,17.4,17.2h4.8v18.8
			c-2.8,1.4-8.6,2.6-15.6,2.6c-21.8,0-32.2-12.4-32.2-36.4V254.15z"/>
		<path d="M404.99,344.54c-32.4,0-52.2-21.4-52.2-56.4c0-36.4,20-56.8,51.2-56.8c31.4,0,50.8,21.2,50.8,55.8v6h-75.6
			c1.2,19.6,10.2,30.4,25.8,30.4c12,0,20.2-5.6,23.6-17h27C449.79,331.34,430.59,344.54,404.99,344.54z M379.79,277.15h48.2
			c-2.4-16-10.6-24.8-24-24.8C390.39,252.35,382.19,260.95,379.79,277.15z"/>
		<path d="M473.99,234.35h25.6v15.6c7-12.8,17.8-18.6,29.4-18.6c4.4,0,8.4,1.2,10.4,3v22.2c-3.4-1-7.2-1.4-11.8-1.4
			c-19.4,0-28,11.6-28,29.4v57h-25.6V234.35z"/>
		<circle cx="188.41" cy="209.6" r="12.9"/>
	</g>
	<g>
		<path d="M0,221.54V70.35h25.6v12.2c6.8-9.8,16.4-15.2,28.2-15.2c28,0,45.2,21.4,45.2,56.4c0,36.4-17.6,56.8-45.2,56.8
			c-11.8,0-21.6-5-28.2-14.6v55.6H0z M25.6,123.75c0,22.8,8.6,35.6,23.6,35.6c15.2,0,23.4-12.6,23.4-35.6c0-22.6-8.4-35.2-23.4-35.2
			C33.8,88.55,25.6,100.95,25.6,123.75z"/>
		<path d="M113.8,70.35h25.6v15.6c7-12.8,17.8-18.6,29.4-18.6c4.4,0,8.4,1.2,10.4,3v22.2c-3.4-1-7.2-1.4-11.8-1.4
			c-19.4,0-28,11.6-28,29.4v57h-25.6V70.35z"/>
		<path d="M186.8,105.55c3.4-23.8,20.8-38.2,47.8-38.2c29.8,0,45,17.6,45,42.4v41.6c0,13.2,1.2,20.6,3.2,26.2h-26.6
			c-1.4-3.6-2-8.8-2.2-14.6c-8.8,12.4-22,17.6-34.8,17.6c-21,0-36-10.4-36-31c0-14.6,8.2-25.6,24.6-31c14.2-4.8,28-6,46-6.2v-2.6
			c0-13.8-6.6-21.2-20.8-21.2c-12.2,0-18.8,6.8-20.4,17H186.8z M225.8,161.54c15.8,0,28-12.8,28-28.8v-4.6
			c-36.4,0.6-44.8,9.2-44.8,20C209,156.35,215.4,161.54,225.8,161.54z"/>
		<path d="M346.6,147.55l-5-9.6l-5.2,9.6l-19.4,30h-27.6l38.2-55.4l-35.4-51.8h30.2l17,26.2l5.2,9.8l5.2-9.8l16.8-26.2H394
			l-35.4,51.8l38.2,55.4h-30.2L346.6,147.55z"/>
		<rect x="405.8" y="70.35" width="25.6" height="107.2"/>
		<path d="M539.99,145.95c0,20.6-19,34.6-45.8,34.6c-26.4,0-45.4-12.2-49.2-38h25.6c1.8,11.6,11,18.2,24.4,18.2
			c12.6,0,19.2-5.4,19.2-13.2c0-24-66.2-3.4-66.2-46.8c0-17.4,13.6-33.4,41.6-33.4c24.6,0,43.2,11.6,46.4,38.2h-25.6
			c-2-13-9.6-18.2-21.8-18.2c-10.2,0-16.2,5-16.2,11.8C472.39,123.75,539.99,102.95,539.99,145.95z"/>
		<g>
			<ellipse cx="418.55" cy="29.1" rx="12.95" ry="29.1"/>
			<ellipse transform="matrix(0.7071 -0.7071 0.7071 0.7071 110.2021 337.4055)" cx="462.39" cy="35.68" rx="29.1" ry="12.95"/>
			<ellipse transform="matrix(0.7071 -0.7071 0.7071 0.7071 84.4991 275.3518)" cx="374.63" cy="35.68" rx="12.95" ry="29.1"/>
		</g>
	</g>
	<circle fill="none" cx="187.96" cy="214.1" r="12.5"/>
	<g>
	</g>
	<g>
	</g>
	<g>
	</g>
	<g>
	</g>
	<g>
	</g>
	<g>
	</g>
	<g>
	</g>
	<g>
	</g>
	<g>
	</g>
	<g>
	</g>
	<g>
	</g>
	<g>
	</g>
	<g>
	</g>
	<g>
	</g>
	<g>
	</g>
</g>
</svg>
