<?xml version="1.0" encoding="utf-8"?>
<!-- Generator: Adobe Illustrator 24.2.3, SVG Export Plug-In . SVG Version: 6.00 Build 0)  -->
<svg version="1.1" id="Layer_1" xmlns="http://www.w3.org/2000/svg" xmlns:xlink="http://www.w3.org/1999/xlink" x="0px" y="0px"
	 viewBox="0 0 500 262.36" enable-background="new 0 0 500 262.36" xml:space="preserve">
<path fill="#97B1A2" d="M0,159.81V30.06h32.95v8.49c5.43-7.64,12.74-11.72,21.57-11.72c23.27,0,38.21,19.02,38.21,49.25
	c0,31.42-15.29,49.42-38.21,49.42c-9,0-16.3-3.91-21.57-11.21v45.51H0z M32.95,76.08c0,15.12,4.42,23.1,13.08,23.1
	c8.49,0,12.91-7.98,12.91-23.1c0-14.95-4.42-22.93-12.91-22.93C37.36,53.16,32.95,61.14,32.95,76.08z"/>
<path fill="#97B1A2" d="M101.22,30.06h32.95v12.06c5.6-10.7,13.93-15.29,22.25-15.29c3.91,0,7.47,1.02,9.34,3.23v27.51
	c-3.4-0.68-6.45-1.02-10.87-1.02c-14.1,0-20.72,7.3-20.72,20.55v45.18h-32.95V30.06z"/>
<path fill="#97B1A2" d="M172.55,60.8c2.72-20.89,20.21-33.97,44.5-33.97c27.34,0,42.12,16.13,42.12,37.36v34.82
	c0,12.74,1.19,18.68,2.21,23.27h-33.8c-0.51-2.55-0.85-5.77-1.19-9.68c-6.79,9.17-16.81,12.91-27.68,12.91
	c-16.3,0-29.55-9-29.55-26.83c0-12.4,7.3-22.25,22.59-27.51c11.55-4.08,22.42-5.09,34.48-5.26v-2.21c0-7.13-3.74-10.53-10.36-10.53
	c-6.28,0-9.51,3.4-10.36,7.64H172.55z M210.93,104.28c8.15,0,15.29-7.13,15.29-17.83v-3.23c-18.85,0.68-24.29,6.28-24.29,12.91
	C201.93,100.88,205.16,104.28,210.93,104.28z"/>
<path fill="#97B1A2" d="M317.59,104.45l-4.25-9.68l-4.25,9.68l-9.17,17.83h-33.8l29.55-47.38l-27.85-44.84h37.19l7.47,14.95
	l4.25,9.85l4.25-9.85l7.47-14.95h33.8L334.57,74.9l29.38,47.38h-37.19L317.59,104.45z"/>
<path fill="#97B1A2" d="M369.9,30.06h32.95v92.22H369.9V30.06z"/>
<path fill="#97B1A2" d="M499.99,93.07c0,18.85-17.66,32.44-43.14,32.44c-24.12,0-41.95-10.36-45.18-33.63h32.95
	c0.68,5.77,5.94,9,13.08,9c6.28,0,9.34-2.04,9.34-5.77c0-13.42-53.67-0.51-53.67-36.68c0-16.3,13.25-31.59,39.4-31.59
	c23.44,0,41.27,10.7,43.82,33.97h-32.78c-1.19-6.28-5.09-9.34-11.89-9.34c-4.08,0-7.13,2.04-7.13,5.26
	C444.8,70.48,499.99,57.74,499.99,93.07z"/>
<path fill="#97B1A2" d="M0.01,166.92h32.95v11.89c5.6-10.36,14.27-15.12,24.46-15.12c10.19,0,19.19,4.59,24.12,14.61
	c6.28-10.02,15.96-14.61,27-14.61c16.13,0,29.72,10.36,29.72,34.14v61.31H105.3v-54.69c0-10.36-3.06-14.44-8.83-14.44
	c-6.28,0-10.87,6.11-10.87,17.15v51.97H52.65v-54.69c0-10.36-3.06-14.44-8.83-14.44c-6.28,0-10.87,6.11-10.87,17.15v51.97H0.01
	V166.92z"/>
<path fill="#97B1A2" d="M152.86,166.92h32.95v92.22h-32.95V166.92z"/>
<path fill="#97B1A2" d="M204.66,191.71h-10.19v-24.79h10.19v-21.4h32.95v21.4h18v24.79h-18v30.06c0,7.64,1.87,12.4,11.89,12.4h6.11
	v24.97c-3.74,1.7-10.7,3.23-19.36,3.23c-21.23,0-31.59-12.74-31.59-35.32V191.71z"/>
<path fill="#97B1A2" d="M271.06,191.71h-10.19v-24.79h10.19v-21.4h32.95v21.4h18v24.79h-18v30.06c0,7.64,1.87,12.4,11.89,12.4h6.11
	v24.97c-3.74,1.7-10.7,3.23-19.36,3.23c-21.23,0-31.59-12.74-31.59-35.32V191.71z"/>
<path fill="#97B1A2" d="M378.06,262.36c-29.55,0-48.23-19.02-48.23-49.25c0-31.42,18.85-49.42,47.21-49.42
	c28.7,0,46.87,18.68,46.87,49.25v7.13h-60.29c1.53,10.87,6.28,16.64,14.44,16.64c6.11,0,9.68-2.38,12.06-7.98h34.48
	C420.01,249.79,401.84,262.36,378.06,262.36z M364.13,202.75h25.81c-1.87-8.83-6.11-13.42-12.91-13.42S366,193.92,364.13,202.75z"/>
<path fill="#97B1A2" d="M435.46,166.92h32.95v12.06c5.6-10.7,13.93-15.29,22.25-15.29c3.91,0,7.47,1.02,9.34,3.23v27.51
	c-3.4-0.68-6.45-1.02-10.87-1.02c-14.1,0-20.72,7.3-20.72,20.55v45.18h-32.95V166.92z"/>
<rect x="369.9" fill="#D6C873" width="32.95" height="22.93"/>
<rect x="152.86" y="136.86" fill="#D6C873" width="32.95" height="22.93"/>
</svg>
