<?xml version="1.0" encoding="UTF-8"?>
<svg version="1.1" xmlns="http://www.w3.org/2000/svg" viewBox="0 0 874 234" preserveAspectRatio="xMidYMid meet">
<path d="M0 0 C16.83 0 33.66 0 51 0 C64.91121495 17.12149533 64.91121495 17.12149533 71.4765625 25.7265625 C74.24524954 29.33837073 77.08801701 32.88929321 79.9375 36.4375 C85.67745593 43.58495471 91.3449822 50.78497729 97 58 C102.445 64.93 102.445 64.93 108 72 C108.33 48.24 108.66 24.48 109 0 C119.89 0 130.78 0 142 0 C142 34.65 142 69.3 142 105 C125.5 105 109 105 92 105 C83.08915145 94.97529538 83.08915145 94.97529538 79.3125 89.9375 C75.47780395 84.87108987 71.52478786 79.91657417 67.5 75 C62.75757587 69.20186862 58.15285122 63.32583744 53.61328125 57.3671875 C50.03069008 52.70911789 46.29109343 48.1759526 42.55273438 43.64257812 C42.03388672 43.01029297 41.51503906 42.37800781 40.98046875 41.7265625 C40.29827271 40.90019287 40.29827271 40.90019287 39.60229492 40.05712891 C37.30653098 37.10968003 35.17152852 34.04013993 33 31 C32.67 55.42 32.34 79.84 32 105 C21.44 105 10.88 105 0 105 C0 70.35 0 35.7 0 0 Z " fill="currentColor" transform="translate(0,0)"/>
<path d="M0 0 C1.66232916 -0.00389522 3.32465733 -0.00823157 4.98698425 -0.01298523 C8.46083816 -0.02041745 11.93459038 -0.02017842 15.40844727 -0.01489258 C19.82952576 -0.00910755 24.25018399 -0.02602011 28.67119312 -0.04923725 C32.1021716 -0.06407071 35.53305115 -0.06483322 38.96405602 -0.06172752 C40.59251422 -0.0622361 42.22097866 -0.06738538 43.84940529 -0.07753944 C55.79136756 -0.14286686 67.51030841 -0.09750624 77.296875 7.60546875 C80.89488536 11.3682073 82.32427566 15.01883401 83.10546875 20.11328125 C83.26402344 21.08910156 83.42257812 22.06492187 83.5859375 23.0703125 C83.96884852 26.7958115 83.91796875 30.55565593 83.91796875 34.30078125 C73.02796875 34.30078125 62.13796875 34.30078125 50.91796875 34.30078125 C49.92796875 30.83578125 49.92796875 30.83578125 48.91796875 27.30078125 C46.09430918 25.08955915 43.45001565 25.04478278 39.9375 25.02612305 C38.45576294 25.01182503 38.45576294 25.01182503 36.9440918 24.99723816 C35.88359619 24.99814957 34.82310059 24.99906097 33.73046875 25 C32.63581299 24.99571487 31.54115723 24.99142975 30.41333008 24.98701477 C28.10010469 24.98127458 25.78686125 24.98076891 23.47363281 24.98510742 C19.9313284 24.98826933 16.38985752 24.96479674 12.84765625 24.93945312 C10.60026147 24.93718034 8.35286444 24.93647654 6.10546875 24.9375 C5.04497314 24.92829025 3.98447754 24.91908051 2.8918457 24.90959167 C1.904021 24.91582047 0.91619629 24.92204926 -0.1015625 24.9284668 C-1.40250854 24.92752266 -1.40250854 24.92752266 -2.72973633 24.92655945 C-5.5988195 25.38299604 -6.98422005 26.31935941 -9.08203125 28.30078125 C-9.56371853 30.57967467 -9.56371853 30.57967467 -9.33203125 32.98828125 C-9.24869792 34.42578125 -9.16536458 35.86328125 -9.08203125 37.30078125 C5.22759399 40.1065583 19.74361642 39.67842476 34.26318359 39.75708008 C71.63247796 39.99788207 71.63247796 39.99788207 80.91796875 48.30078125 C88.82086591 56.61962036 88.1975374 67.17698961 88.0703125 77.9296875 C87.84700625 86.62755811 86.100329 93.23459767 79.66796875 99.48828125 C67.68768713 107.38437595 51.09504557 106.61762191 37.26171875 106.6015625 C35.82075889 106.60546956 34.37980014 106.60980817 32.93884277 106.61454773 C29.94730868 106.62192529 26.95589279 106.62178033 23.96435547 106.61645508 C20.17945445 106.61065704 16.39504226 106.62764111 12.61022186 106.65079975 C9.64318132 106.66570797 6.67625412 106.66638618 3.70918274 106.66329002 C2.31568938 106.66379422 0.92218808 106.66885656 -0.4712677 106.67910194 C-12.41111406 106.7561899 -26.23941894 106.82635341 -36.08203125 99.30078125 C-42.34143393 92.75686027 -43.3968993 87.11098429 -43.20703125 78.42578125 C-43.16578125 75.74453125 -43.12453125 73.06328125 -43.08203125 70.30078125 C-32.52203125 70.30078125 -21.96203125 70.30078125 -11.08203125 70.30078125 C-10.09203125 73.27078125 -9.10203125 76.24078125 -8.08203125 79.30078125 C-4.85143697 81.40253721 -1.9110629 81.552384 1.88842773 81.55957031 C3.3303373 81.56902679 3.3303373 81.56902679 4.80137634 81.57867432 C5.82856277 81.57462585 6.85574921 81.57057739 7.9140625 81.56640625 C8.98036392 81.5683197 10.04666534 81.57023315 11.14527893 81.57220459 C13.39706661 81.57356367 15.6488622 81.56988657 17.90063477 81.56152344 C21.33953546 81.55083079 24.77791251 81.5614229 28.21679688 81.57421875 C30.40755323 81.5728969 32.59830926 81.57033398 34.7890625 81.56640625 C35.8142247 81.57045471 36.8393869 81.57450317 37.89561462 81.57867432 C42.9105504 81.54589234 47.28364425 81.47095487 51.91796875 79.30078125 C53.06149791 77.01372294 53.02131314 75.70813363 52.98046875 73.17578125 C52.95984375 71.89703125 52.93921875 70.61828125 52.91796875 69.30078125 C46.58569416 66.81554804 41.04504654 65.85054533 34.265625 65.82421875 C33.36661972 65.80863922 32.46761444 65.79305969 31.54136658 65.77700806 C28.68774343 65.72992493 25.83435308 65.70194812 22.98046875 65.67578125 C19.24209678 65.62671532 15.50385909 65.57029717 11.765625 65.51171875 C10.39541702 65.49104591 10.39541702 65.49104591 8.99752808 65.46995544 C2.99981766 65.36838601 -2.98624217 65.17521463 -8.9765625 64.859375 C-9.68505844 64.82415741 -10.39355438 64.78893982 -11.1235199 64.75265503 C-21.80096478 64.1342816 -31.56532374 62.81748876 -39.33203125 55.05078125 C-43.63053522 48.2959893 -43.41978 40.61464678 -43.39453125 32.86328125 C-43.41064453 31.87779297 -43.42675781 30.89230469 -43.44335938 29.87695312 C-43.44833717 22.36546148 -42.2489405 16.11454152 -38.51953125 9.55078125 C-27.79818692 -0.34584428 -13.66050238 -0.01339148 0 0 Z " fill="currentColor" transform="translate(343.08203125,-0.30078125)"/>
<path d="M0 0 C5.01672377 -0.24805039 10.02985501 -0.42900266 15.05126953 -0.54931641 C16.7569801 -0.59947485 18.46226336 -0.66762724 20.16650391 -0.75439453 C34.16453862 -1.44898469 34.16453862 -1.44898469 38.21923828 1.75195312 C39.86002244 4.4235358 40.90470435 7.06251174 42 10 C42.8834684 11.7232995 43.7683739 13.44610094 44.68363953 15.15272522 C45.68263621 17.01907485 46.64918338 18.89917645 47.6081543 20.78637695 C53.60576157 32.57597917 59.69356333 44.30106592 66.10595703 55.87207031 C75 71.95312074 75 71.95312074 75 75 C75.66 75 76.32 75 77 75 C77.2489502 74.33605225 77.49790039 73.67210449 77.75439453 72.98803711 C79.29731081 69.28679205 81.09597895 65.75555514 82.9296875 62.19140625 C83.31636093 61.43620193 83.70303436 60.68099762 84.10142517 59.90290833 C85.3564913 57.45466043 86.61540303 55.00841958 87.875 52.5625 C88.51627335 51.31487885 88.51627335 51.31487885 89.17050171 50.04205322 C95.91983506 36.91703889 102.84257483 23.90755322 110 11 C111.98 7.37 113.96 3.74 116 0 C127.88 0 139.76 0 152 0 C150.5400622 4.37981339 149.20496254 7.75436515 147.05078125 11.7265625 C146.16120728 13.37615967 146.16120728 13.37615967 145.25366211 15.05908203 C144.60665301 16.24774581 143.9595977 17.43638444 143.3125 18.625 C142.63825168 19.871962 141.96451412 21.11920028 141.29125977 22.36669922 C139.89241479 24.95776765 138.49138298 27.5476356 137.08886719 30.13671875 C133.84978899 36.12105154 130.64624827 42.12436648 127.4375 48.125 C125.57703465 51.59770642 123.71562675 55.06990615 121.85400391 58.54199219 C120.61112528 60.86015558 119.36861625 63.17851717 118.12646484 65.49707031 C106.3327925 87.50327851 106.3327925 87.50327851 100.6875 97.5625 C100.13666748 98.54524902 100.13666748 98.54524902 99.57470703 99.54785156 C97.12913968 103.87086032 97.12913968 103.87086032 96 105 C93.04294679 105.08868299 90.10934944 105.11520296 87.15234375 105.09765625 C85.82270348 105.09553383 85.82270348 105.09553383 84.46620178 105.09336853 C81.62326746 105.08775215 78.78041069 105.07519691 75.9375 105.0625 C74.01497509 105.05748711 72.09244896 105.05292384 70.16992188 105.04882812 C65.44658451 105.03777741 60.72330542 105.02050183 56 105 C50.43248923 95.20111619 44.99762518 85.3468714 39.74285889 75.37683105 C37.90276598 71.88649694 36.05512849 68.40016344 34.20703125 64.9140625 C33.84262939 64.22658936 33.47822754 63.53911621 33.1027832 62.83081055 C29.61466684 56.25866476 26.05640263 49.72599121 22.47753906 43.20288086 C19.63649036 38.0179181 16.82360516 32.81885291 14.03515625 27.60546875 C13.52498962 26.6516481 13.52498962 26.6516481 13.0045166 25.67855835 C11.32937345 22.5450395 9.65649812 19.41032614 7.98583984 16.27441406 C7.38078613 15.14100586 6.77573242 14.00759766 6.15234375 12.83984375 C5.61601318 11.83300537 5.07968262 10.82616699 4.52709961 9.78881836 C3.50245189 7.91758719 2.42630566 6.0737201 1.30297852 4.26000977 C0 2 0 2 0 0 Z " fill="currentColor" transform="translate(149,0)"/>
<path d="M0 0 C3.28546627 0 4.90634437 -0.18313737 7.875 -1.125 C11.83566783 -2.16495189 14.24828194 -1.8322344 18 0 C19.6496582 1.16723633 19.6496582 1.16723633 21 3 C21.34057617 6.00268555 21.34057617 6.00268555 21.29296875 9.63671875 C21.2784668 11.58481445 21.2784668 11.58481445 21.26367188 13.57226562 C21.23860585 14.94401639 21.21321101 16.31576118 21.1875 17.6875 C21.1724502 19.07094924 21.1587623 20.45441401 21.14648438 21.83789062 C21.11107223 25.22565207 21.06168054 28.61263139 21 32 C17.7 32 14.4 32 11 32 C10.67 24.08 10.34 16.16 10 8 C8.35 8.33 6.7 8.66 5 9 C3.79729036 11.40541929 3.79683337 13.10366591 3.68359375 15.7890625 C3.64169922 16.73007813 3.59980469 17.67109375 3.55664062 18.640625 C3.51732422 19.62546875 3.47800781 20.6103125 3.4375 21.625 C3.39431641 22.61757812 3.35113281 23.61015625 3.30664062 24.6328125 C3.20039053 27.08837033 3.09967545 29.54416651 3 32 C-0.3 32 -3.6 32 -7 32 C-7.495 20.615 -7.495 20.615 -8 9 C-11.63619656 7.91915479 -11.63619656 7.91915479 -14 8 C-14.33 15.92 -14.66 23.84 -15 32 C-18.3 32 -21.6 32 -25 32 C-25 21.11 -25 10.22 -25 -1 C-21.7 -1 -18.4 -1 -15 -1 C-14.67 -0.34 -14.34 0.32 -14 1 C-13.34 0.34 -12.68 -0.32 -12 -1 C-7.52128783 -2.53555846 -4.41508745 -1.36466339 0 0 Z " fill="currentColor" transform="translate(352,141)"/>
<path d="M0 0 C3.96 0 7.92 0 12 0 C14.86146826 3.18540806 16.20005983 5.25734821 18 9 C19.40285241 11.5652722 19.40285241 11.5652722 20.81665039 14.12451172 C22.24136791 16.73337161 23.61555199 19.36954877 25 22 C25.33 14.74 25.66 7.48 26 0 C28.64 0 31.28 0 34 0 C34 14.52 34 29.04 34 44 C25 44 25 44 23.125 42.59375 C22.75375 41.9028125 22.3825 41.211875 22 40.5 C21.54367187 39.69691406 21.08734375 38.89382812 20.6171875 38.06640625 C20.08351563 37.05449219 19.54984375 36.04257813 19 35 C17.83793199 32.9429887 16.66346229 30.89332717 15.48876953 28.84350586 C13.6362486 25.57522914 11.82211369 22.2853262 10 19 C9.67 27.25 9.34 35.5 9 44 C6.03 44 3.06 44 0 44 C0 29.48 0 14.96 0 0 Z " fill="currentColor" transform="translate(455,61)"/>
<path d="M0 0 C3.28546627 0 4.90634437 -0.18313737 7.875 -1.125 C11.83566783 -2.16495189 14.24828194 -1.8322344 18 0 C19.6496582 1.16723633 19.6496582 1.16723633 21 3 C21.34057617 6.00268555 21.34057617 6.00268555 21.29296875 9.63671875 C21.2784668 11.58481445 21.2784668 11.58481445 21.26367188 13.57226562 C21.23860585 14.94401639 21.21321101 16.31576118 21.1875 17.6875 C21.1724502 19.07094924 21.1587623 20.45441401 21.14648438 21.83789062 C21.11107223 25.22565207 21.06168054 28.61263139 21 32 C17.7 32 14.4 32 11 32 C10.505 19.625 10.505 19.625 10 7 C8.02 7.33 6.04 7.66 4 8 C3.67 15.92 3.34 23.84 3 32 C-0.3 32 -3.6 32 -7 32 C-7.495 20.615 -7.495 20.615 -8 9 C-9.65 8.67 -11.3 8.34 -13 8 C-13.95168683 10.85506049 -14.1900946 12.90937282 -14.31640625 15.88671875 C-14.35830078 16.82451172 -14.40019531 17.76230469 -14.44335938 18.72851562 C-14.48267578 19.70498047 -14.52199219 20.68144531 -14.5625 21.6875 C-14.60568359 22.67556641 -14.64886719 23.66363281 -14.69335938 24.68164062 C-14.79941542 27.12092972 -14.90020974 29.56044654 -15 32 C-18.3 32 -21.6 32 -25 32 C-25 21.11 -25 10.22 -25 -1 C-21.7 -1 -18.4 -1 -15 -1 C-14.67 -0.34 -14.34 0.32 -14 1 C-13.34 0.34 -12.68 -0.32 -12 -1 C-7.52128783 -2.53555846 -4.41508745 -1.36466339 0 0 Z " fill="currentColor" transform="translate(217,141)"/>
<path d="M0 0 C3.3 0 6.6 0 10 0 C10.33 5.61 10.66 11.22 11 17 C11.66644531 15.7728125 12.33289063 14.545625 13.01953125 13.28125 C20.28355535 0.60940111 20.28355535 0.60940111 25.1796875 -1.12890625 C27.9646495 -1.06742008 30.33291443 -0.78929225 33 0 C31.37617084 4.50711606 29.03223109 7.84070918 26.14453125 11.62109375 C24.59929944 14.83285543 25.22698842 16.5542071 26 20 C27.00476766 22.69462442 27.00476766 22.69462442 28.28515625 25.328125 C28.73310547 26.29234375 29.18105469 27.2565625 29.64257812 28.25 C30.11115234 29.24 30.57972656 30.23 31.0625 31.25 C31.99417675 33.23283183 32.92272967 35.21713546 33.84765625 37.203125 C34.4665271 38.51265137 34.4665271 38.51265137 35.09790039 39.84863281 C36 42 36 42 36 44 C32.04 44 28.08 44 24 44 C21.36 38.72 18.72 33.44 16 28 C11.63328481 32.36671519 10.95347608 33.3755523 10.4375 39.125 C10.293125 40.73375 10.14875 42.3425 10 44 C6.7 44 3.4 44 0 44 C0 29.48 0 14.96 0 0 Z " fill="currentColor" transform="translate(121,129)"/>
<path d="M0 0 C3.3 0 6.6 0 10 0 C10 14.52 10 29.04 10 44 C6.7 44 3.4 44 0 44 C-0.33 43.34 -0.66 42.68 -1 42 C-1.66 42.66 -2.32 43.32 -3 44 C-6.38466075 44.56910225 -9.61109949 44.52301142 -13 44 C-16.87533288 41.17423644 -18.51888381 38.48198639 -20 34 C-20.74178721 27.26353709 -20.9155073 20.47892788 -17.32421875 14.53125 C-14.85808927 11.67956045 -12.62037134 10.84475331 -9 10 C-6.13049868 10.35680314 -3.76847406 11.07717531 -1 12 C-0.67 8.04 -0.34 4.08 0 0 Z M-6 18 C-9.02409268 21.32010175 -9.40802792 23.62024495 -9.375 28.0625 C-9.38273437 29.10535156 -9.39046875 30.14820313 -9.3984375 31.22265625 C-8.9608987 34.27255908 -8.40300413 35.16278255 -6 37 C-4.35 36.34 -2.7 35.68 -1 35 C0.0006709 29.03654233 0.0662997 24.71271093 -2 19 C-3.32 18.67 -4.64 18.34 -6 18 Z " fill="currentColor" transform="translate(86,129)"/>
<path d="M0 0 C4.08159148 2.97845864 5.04001698 6.12008629 6 11 C6.62990047 17.14429234 6.02918177 22.54501007 3 28 C0.65437596 30.84318066 -0.83395374 31.87487217 -4.51171875 32.26953125 C-7.04264811 32.30924626 -9.48462593 32.28414411 -12 32 C-12.33 31.67 -12.66 31.34 -13 31 C-13.33 34.96 -13.66 38.92 -14 43 C-17.3 43 -20.6 43 -24 43 C-24 28.48 -24 13.96 -24 -1 C-19.66666667 -1 -15.33333333 -1 -11 -1 C-10.4225 -1.20625 -9.845 -1.4125 -9.25 -1.625 C-5.76426439 -2.20595593 -3.27069411 -1.22651029 0 0 Z M-12.6640625 7.65625 C-14.2715965 10.47648508 -14.40162175 12.2698947 -14.375 15.5 C-14.38273438 16.4384375 -14.39046875 17.376875 -14.3984375 18.34375 C-13.94552484 21.36316774 -13.00855276 22.74702018 -11 25 C-9.05925139 24.72382467 -9.05925139 24.72382467 -7 24 C-4.78522508 20.67783762 -4.70332293 19.44966677 -4.6875 15.5625 C-4.67074219 14.61503906 -4.65398437 13.66757813 -4.63671875 12.69140625 C-5.05640132 9.58214507 -5.78132782 8.19788837 -8 6 C-11.03691936 5.64727948 -11.03691936 5.64727948 -12.6640625 7.65625 Z " fill="currentColor" transform="translate(268,141)"/>
<path d="M0 0 C3.3 0 6.6 0 10 0 C10 14.52 10 29.04 10 44 C7.03 44 4.06 44 1 44 C0.67 43.34 0.34 42.68 0 42 C-0.845625 42.515625 -1.69125 43.03125 -2.5625 43.5625 C-6.74217118 45.3103625 -8.6841163 45.33400042 -13 44 C-15.95311812 41.4568263 -17.7609608 38.71711761 -19 35 C-19.14703064 32.56551182 -19.22105339 30.1262523 -19.25 27.6875 C-19.27578125 26.39199219 -19.3015625 25.09648438 -19.328125 23.76171875 C-18.9002794 18.85677452 -17.6369172 15.6334855 -14.13671875 12.140625 C-11.51798026 10.74268782 -9.76566961 10.66275718 -6.8125 10.75 C-5.49185547 10.77320312 -5.49185547 10.77320312 -4.14453125 10.796875 C-2 11 -2 11 -1 12 C-0.67 8.04 -0.34 4.08 0 0 Z M-6.63671875 19.23046875 C-9.08888453 22.41336588 -9 26.09052608 -9 30 C-8.49812911 33.43542211 -8.49812911 33.43542211 -7 36 C-5.12907319 37.23901711 -5.12907319 37.23901711 -3 37 C-1.25777263 35.94316262 -1.25777263 35.94316262 0 34 C0.43953014 30.90344009 0.43953014 30.90344009 0.3125 27.5 C0.30863281 26.3553125 0.30476562 25.210625 0.30078125 24.03125 C0.2222789 20.82443455 0.2222789 20.82443455 -2 18 C-4.94161991 17.69954236 -4.94161991 17.69954236 -6.63671875 19.23046875 Z " fill="currentColor" transform="translate(829,61)"/>
<path d="M0 0 C4.61455761 3.99096874 5.43550391 9.16397889 6 15 C6.08799142 21.10073862 4.98675238 25.19244566 1 30 C-2.28262031 32.18841354 -3.31790898 32.24854665 -7.125 32.1875 C-8.01445313 32.18105469 -8.90390625 32.17460937 -9.8203125 32.16796875 C-12 32 -12 32 -13 31 C-13.33 34.96 -13.66 38.92 -14 43 C-17.3 43 -20.6 43 -24 43 C-24 28.48 -24 13.96 -24 -1 C-21.03 -1 -18.06 -1 -15 -1 C-14.67 -0.34 -14.34 0.32 -14 1 C-13.34 0.34 -12.68 -0.32 -12 -1 C-7.55023936 -2.52563222 -4.30633478 -1.72253391 0 0 Z M-12.6640625 7.09375 C-14.62061326 9.88555342 -14.39778477 12.12785352 -14.375 15.5 C-14.38273438 16.6446875 -14.39046875 17.789375 -14.3984375 18.96875 C-14.24908577 21.97926361 -14.24908577 21.97926361 -12.60546875 23.91015625 C-11.03871661 25.20295118 -11.03871661 25.20295118 -8.9375 24.9375 C-6.3908943 23.70527144 -6.04996721 22.5929625 -5 20 C-4.4002946 15.6462946 -4.57676354 11.98755174 -6.3125 7.9375 C-6.869375 7.298125 -7.42625 6.65875 -8 6 C-10.91406123 5.72537191 -10.91406123 5.72537191 -12.6640625 7.09375 Z " fill="currentColor" transform="translate(699,141)"/>
<path d="M0 0 C3.3 0 6.6 0 10 0 C10.33 7.26 10.66 14.52 11 22 C12.44375 20.185 13.8875 18.37 15.375 16.5 C17.90690331 13.52395512 19.97765676 11.2583489 23.890625 10.26953125 C26.34742318 10.30813808 28.59787131 10.4940197 31 11 C29.59023295 14.03852705 27.91129772 16.5939595 25.875 19.25 C25.33617187 19.95640625 24.79734375 20.6628125 24.2421875 21.390625 C23.83226562 21.92171875 23.42234375 22.4528125 23 23 C23.27263672 23.56509277 23.54527344 24.13018555 23.82617188 24.71240234 C25.05479852 27.26469044 26.27746388 29.81978936 27.5 32.375 C28.14388672 33.70917969 28.14388672 33.70917969 28.80078125 35.0703125 C29.20683594 35.92109375 29.61289062 36.771875 30.03125 37.6484375 C30.40830078 38.43395996 30.78535156 39.21948242 31.17382812 40.02880859 C32 42 32 42 32 44 C28.37 44 24.74 44 21 44 C19.02 40.04 17.04 36.08 15 32 C10.90447772 34.42959773 10.90447772 34.42959773 10.390625 37.26171875 C10.32101562 38.46248047 10.32101562 38.46248047 10.25 39.6875 C10.1675 41.110625 10.085 42.53375 10 44 C6.7 44 3.4 44 0 44 C0 29.48 0 14.96 0 0 Z " fill="currentColor" transform="translate(709,61)"/>
<path d="M0 0 C3.3 0 6.6 0 10 0 C10.33 3.96 10.66 7.92 11 12 C12.175625 11.608125 13.35125 11.21625 14.5625 10.8125 C19.37728037 9.5981149 21.75065377 10.53537919 26 13 C28.39112209 16.58668313 28.23381027 18.16396569 28.1953125 22.41796875 C28.18886719 23.67158203 28.18242188 24.92519531 28.17578125 26.21679688 C28.15902344 27.52712891 28.14226563 28.83746094 28.125 30.1875 C28.11496639 31.52277987 28.1058412 32.85806689 28.09765625 34.19335938 C28.07405292 37.46242015 28.04112594 40.73112028 28 44 C24.7 44 21.4 44 18 44 C17.90912109 41.65261719 17.90912109 41.65261719 17.81640625 39.2578125 C17.73200934 37.21353181 17.64736092 35.16926148 17.5625 33.125 C17.52318359 32.09246094 17.48386719 31.05992187 17.44335938 29.99609375 C17.40146484 29.00996094 17.35957031 28.02382812 17.31640625 27.0078125 C17.27974854 26.09660645 17.24309082 25.18540039 17.20532227 24.24658203 C17.13422935 21.96516519 17.13422935 21.96516519 16 20 C14.35 20 12.7 20 11 20 C10.67 27.92 10.34 35.84 10 44 C6.7 44 3.4 44 0 44 C0 29.48 0 14.96 0 0 Z " fill="currentColor" transform="translate(552,129)"/>
<path d="M0 0 C3.3 0 6.6 0 10 0 C10.33 3.96 10.66 7.92 11 12 C11.66 11.67 12.32 11.34 13 11 C21.73180873 10.07205517 21.73180873 10.07205517 25.5625 12.875 C28.03857525 16.53528516 28.11831815 18.67991607 28.09765625 23.1015625 C28.09443359 24.31328125 28.09121094 25.525 28.08789062 26.7734375 C28.07951172 28.04445313 28.07113281 29.31546875 28.0625 30.625 C28.05798828 31.90375 28.05347656 33.1825 28.04882812 34.5 C28.03701203 37.66671292 28.02053815 40.83333356 28 44 C24.7 44 21.4 44 18 44 C17.93941406 42.51886719 17.87882813 41.03773437 17.81640625 39.51171875 C17.73199685 37.57030266 17.64734905 35.62889692 17.5625 33.6875 C17.52318359 32.71103516 17.48386719 31.73457031 17.44335938 30.72851562 C17.40146484 29.79072266 17.35957031 28.85292969 17.31640625 27.88671875 C17.27974854 27.02264404 17.24309082 26.15856934 17.20532227 25.26831055 C17.07252646 22.8352174 17.07252646 22.8352174 16 20 C14.35 20.33 12.7 20.66 11 21 C10.67 28.59 10.34 36.18 10 44 C6.7 44 3.4 44 0 44 C0 29.48 0 14.96 0 0 Z " fill="currentColor" transform="translate(609,61)"/>
<path d="M0 0 C2.67412811 2.52064614 2.73416948 4.81168163 2.88305664 8.41699219 C2.87781982 9.4434082 2.87258301 10.46982422 2.8671875 11.52734375 C2.86396484 12.64238281 2.86074219 13.75742188 2.85742188 14.90625 C2.84904297 16.06511719 2.84066406 17.22398437 2.83203125 18.41796875 C2.82751953 19.59230469 2.82300781 20.76664063 2.81835938 21.9765625 C2.80658219 24.87374947 2.79013451 27.77083329 2.76953125 30.66796875 C-0.53046875 30.66796875 -3.83046875 30.66796875 -7.23046875 30.66796875 C-7.56046875 30.00796875 -7.89046875 29.34796875 -8.23046875 28.66796875 C-9.22046875 29.32796875 -10.21046875 29.98796875 -11.23046875 30.66796875 C-16.23162487 31.33375734 -20.76373347 31.30067809 -25.41796875 29.29296875 C-27.81678138 25.81882632 -28.00278288 23.24596341 -27.76953125 19.078125 C-27.08808961 16.03138956 -25.74700777 14.30928239 -23.1484375 12.5625 C-18.31974418 10.31042104 -13.51466005 9.66796875 -8.23046875 9.66796875 C-8.56046875 8.34796875 -8.89046875 7.02796875 -9.23046875 5.66796875 C-12.14681004 5.41775305 -12.14681004 5.41775305 -15.23046875 5.66796875 C-16.22046875 7.15296875 -16.22046875 7.15296875 -17.23046875 8.66796875 C-19.39453125 8.9609375 -19.39453125 8.9609375 -21.85546875 8.85546875 C-22.67273438 8.82839844 -23.49 8.80132812 -24.33203125 8.7734375 C-24.95851563 8.73863281 -25.585 8.70382813 -26.23046875 8.66796875 C-25.74949989 2.29513138 -25.74949989 2.29513138 -23.73046875 -0.14453125 C-16.00538521 -3.81394593 -7.57549912 -4.52407215 0 0 Z M-17.23046875 19.66796875 C-16.90046875 20.98796875 -16.57046875 22.30796875 -16.23046875 23.66796875 C-14.44905128 24.53155498 -14.44905128 24.53155498 -12.23046875 24.66796875 C-9.85626957 23.12749098 -9.85626957 23.12749098 -8.23046875 20.66796875 C-7.89548574 17.99961909 -7.89548574 17.99961909 -8.23046875 15.66796875 C-12.91138174 15.66796875 -13.85148479 16.66442746 -17.23046875 19.66796875 Z " fill="currentColor" transform="translate(496.23046875,142.33203125)"/>
<path d="M0 0 C2.77302739 1.78071857 3.73372285 3.06835604 4.78125 6.2109375 C4.86416953 8.2029678 4.88863177 10.19767463 4.87890625 12.19140625 C4.87568359 13.35478516 4.87246094 14.51816406 4.86914062 15.71679688 C4.86076172 16.93173828 4.85238281 18.14667969 4.84375 19.3984375 C4.83923828 20.62498047 4.83472656 21.85152344 4.83007812 23.11523438 C4.81828065 26.14718418 4.80181921 29.17903656 4.78125 32.2109375 C1.48125 32.2109375 -1.81875 32.2109375 -5.21875 32.2109375 C-5.54875 31.5509375 -5.87875 30.8909375 -6.21875 30.2109375 C-7.20875 30.8709375 -8.19875 31.5309375 -9.21875 32.2109375 C-15.08170258 33.67667565 -18.0550649 32.94465314 -23.21875 30.2109375 C-25.60099928 27.82868822 -25.53892149 27.1607338 -25.59375 23.8984375 C-25.5128052 20.54192626 -25.2545736 19.27329709 -23.53125 16.2734375 C-18.43387704 11.72713189 -12.77951061 11.69503246 -6.21875 11.2109375 C-6.54875 9.8909375 -6.87875 8.5709375 -7.21875 7.2109375 C-10.13509129 6.9607218 -10.13509129 6.9607218 -13.21875 7.2109375 C-14.20875 8.6959375 -14.20875 8.6959375 -15.21875 10.2109375 C-17.3828125 10.50390625 -17.3828125 10.50390625 -19.84375 10.3984375 C-20.66101563 10.37136719 -21.47828125 10.34429687 -22.3203125 10.31640625 C-22.94679688 10.28160156 -23.57328125 10.24679688 -24.21875 10.2109375 C-24.53125 8.0234375 -24.53125 8.0234375 -24.21875 5.2109375 C-18.33048433 -1.79132438 -8.64325187 -3.07383253 0 0 Z M-14.21875 20.2109375 C-14.54875 21.2009375 -14.87875 22.1909375 -15.21875 23.2109375 C-14.22875 24.2009375 -13.23875 25.1909375 -12.21875 26.2109375 C-10.56875 25.5509375 -8.91875 24.8909375 -7.21875 24.2109375 C-6.88875 21.9009375 -6.55875 19.5909375 -6.21875 17.2109375 C-9.84328269 17.2109375 -11.29795195 18.13563363 -14.21875 20.2109375 Z " fill="currentColor" transform="translate(520.21875,72.7890625)"/>
<path d="M0 0 C2.47463649 3.0774121 2.43045956 4.95017809 2.50170898 8.86889648 C2.53393555 10.11928711 2.56616211 11.36967773 2.59936523 12.65795898 C2.61354492 13.95991211 2.62772461 15.26186523 2.64233398 16.60327148 C2.67198242 17.92069336 2.70163086 19.23811523 2.73217773 20.59545898 C2.80288786 23.84812491 2.85558184 27.10007342 2.89233398 30.35327148 C1.26769557 30.40722627 -0.35745143 30.44604343 -1.98266602 30.47827148 C-3.34004883 30.51307617 -3.34004883 30.51307617 -4.72485352 30.54858398 C-7.10766602 30.35327148 -7.10766602 30.35327148 -9.10766602 28.35327148 C-10.09766602 29.01327148 -11.08766602 29.67327148 -12.10766602 30.35327148 C-17.03039267 30.99961422 -21.60547665 31.42626389 -25.73266602 28.47827148 C-28.07735049 24.85466821 -28.44890426 22.70405906 -28.10766602 18.35327148 C-26.74062127 15.08755348 -25.509438 13.63451188 -22.60766602 11.60327148 C-17.82602788 9.89554358 -13.1527989 9.61360752 -8.10766602 9.35327148 C-8.76766602 8.03327148 -9.42766602 6.71327148 -10.10766602 5.35327148 C-12.52386424 5.10296171 -12.52386424 5.10296171 -15.10766602 5.35327148 C-16.09766602 6.83827148 -16.09766602 6.83827148 -17.10766602 8.35327148 C-19.27172852 8.64624023 -19.27172852 8.64624023 -21.73266602 8.54077148 C-22.54993164 8.51370117 -23.36719727 8.48663086 -24.20922852 8.45874023 C-24.83571289 8.42393555 -25.46219727 8.38913086 -26.10766602 8.35327148 C-27.10766602 5.35327148 -27.10766602 5.35327148 -25.98266602 2.85327148 C-23.12656896 -0.95485793 -20.50249914 -2.29118282 -15.92016602 -3.45922852 C-10.34853524 -3.73324314 -4.5317876 -3.54070513 0 0 Z M-17.10766602 18.35327148 C-16.77766602 20.00327148 -16.44766602 21.65327148 -16.10766602 23.35327148 C-15.11766602 23.68327148 -14.12766602 24.01327148 -13.10766602 24.35327148 C-10.52433372 22.10368815 -10.52433372 22.10368815 -8.10766602 19.35327148 C-8.10766602 18.03327148 -8.10766602 16.71327148 -8.10766602 15.35327148 C-12.38476301 15.35327148 -13.66696978 16.05947399 -17.10766602 18.35327148 Z " fill="currentColor" transform="translate(667.107666015625,142.646728515625)"/>
<path d="M0 0 C4.55457948 2.15743239 6.80397958 4.49237913 9 9 C10 12 10 12 10 19 C3.4 19 -3.2 19 -10 19 C-9.34 20.65 -8.68 22.3 -8 24 C-5.54115028 24.79912616 -3.56909202 25 -1 25 C-0.67 23.68 -0.34 22.36 0 21 C7.75 20.875 7.75 20.875 10 22 C8.58849569 26.49115008 6.73904764 29.11781744 3 32 C-2.9449199 34.13614071 -8.12428043 34.64983431 -14 32 C-18.21225241 28.44298685 -20.72218602 25.50032582 -21.3359375 19.9765625 C-21.46726413 8.70873786 -21.46726413 8.70873786 -17 4 C-16.34 3.21625 -15.68 2.4325 -15 1.625 C-10.1728451 -0.98970891 -5.36162643 -0.71924257 0 0 Z M-10 9 C-10 9.99 -10 10.98 -10 12 C-6.7 12 -3.4 12 0 12 C-0.66 10.35 -1.32 8.7 -2 7 C-6.49304582 6.57496554 -6.49304582 6.57496554 -10 9 Z " fill="currentColor" transform="translate(662,72)"/>
<path d="M0 0 C2.85969739 3.88373975 3.36089619 6.61696789 3.29296875 11.39453125 C3.28330078 12.59658203 3.27363281 13.79863281 3.26367188 15.03710938 C3.23853516 16.28298828 3.21339844 17.52886719 3.1875 18.8125 C3.16719727 20.71032227 3.16719727 20.71032227 3.14648438 22.64648438 C3.11118318 25.76475643 3.06186819 28.88216042 3 32 C-0.3 32 -3.6 32 -7 32 C-7.09087891 29.65261719 -7.09087891 29.65261719 -7.18359375 27.2578125 C-7.26799066 25.21353181 -7.35263908 23.16926148 -7.4375 21.125 C-7.47681641 20.09246094 -7.51613281 19.05992187 -7.55664062 17.99609375 C-7.59853516 17.00996094 -7.64042969 16.02382812 -7.68359375 15.0078125 C-7.72025146 14.09660645 -7.75690918 13.18540039 -7.79467773 12.24658203 C-7.86577065 9.96516519 -7.86577065 9.96516519 -9 8 C-10.32 8 -11.64 8 -13 8 C-14.23060421 10.46120841 -14.2057723 12.25776866 -14.31640625 15.0078125 C-14.35830078 15.99394531 -14.40019531 16.98007813 -14.44335938 17.99609375 C-14.48267578 19.02863281 -14.52199219 20.06117188 -14.5625 21.125 C-14.60568359 22.16527344 -14.64886719 23.20554688 -14.69335938 24.27734375 C-14.79962768 26.8513983 -14.90033527 29.42568131 -15 32 C-18.63 32 -22.26 32 -26 32 C-26 21.11 -26 10.22 -26 -1 C-22.7 -1 -19.4 -1 -16 -1 C-15.67 -0.34 -15.34 0.32 -15 1 C-14.01 0.46375 -13.02 -0.0725 -12 -0.625 C-7.81577443 -2.41094994 -3.98846627 -2.28903282 0 0 Z " fill="currentColor" transform="translate(59,141)"/>
<path d="M0 0 C4.33557033 5.64937952 4.0625 8.07367924 4.0625 15.6875 C-2.5375 15.6875 -9.1375 15.6875 -15.9375 15.6875 C-15.2775 17.3375 -14.6175 18.9875 -13.9375 20.6875 C-11.48463404 21.67827298 -11.48463404 21.67827298 -8.9375 21.6875 C-8.2775 21.3575 -7.6175 21.0275 -6.9375 20.6875 C-6.6075 19.6975 -6.2775 18.7075 -5.9375 17.6875 C-2.9675 17.6875 0.0025 17.6875 3.0625 17.6875 C3.3925 18.6775 3.7225 19.6675 4.0625 20.6875 C1.6914172 25.06488363 -0.48576097 27.50627543 -4.9375 29.6875 C-7.875 30.0859375 -7.875 30.0859375 -10.9375 30.0625 C-11.948125 30.07023437 -12.95875 30.07796875 -14 30.0859375 C-18.57932897 29.46480511 -21.13831162 27.57548709 -24.1875 24.1875 C-27.75482145 19.09132651 -27.41925607 13.69224531 -26.9375 7.6875 C-25.40835842 3.48236065 -23.51978272 0.39841665 -19.9375 -2.3125 C-12.66379411 -5.02472932 -6.26054622 -4.92851511 0 0 Z M-13.9375 3.6875 C-14.5975 5.3375 -15.2575 6.9875 -15.9375 8.6875 C-12.6375 8.6875 -9.3375 8.6875 -5.9375 8.6875 C-6.5975 7.0375 -7.2575 5.3875 -7.9375 3.6875 C-9.9175 3.6875 -11.8975 3.6875 -13.9375 3.6875 Z " fill="currentColor" transform="translate(610.9375,143.3125)"/>
<path d="M0 0 C3.87856292 1.76916905 5.45923101 3.22489778 7.875 6.6875 C9 10 9 10 9 19 C2.4 19 -4.2 19 -11 19 C-10.34 20.65 -9.68 22.3 -9 24 C-5.94727535 24.89830839 -5.94727535 24.89830839 -3 25 C-2.67 24.34 -2.34 23.68 -2 23 C0 21 0 21 1.98046875 20.734375 C3.98888143 20.74859385 5.99584122 20.86857975 8 21 C8.86720389 23.38612464 9.23154288 24.50338766 8.13671875 26.8515625 C4.48349142 31.32208867 1.34815122 33.19118513 -4.40234375 33.98046875 C-10.03344302 34.02280784 -14.40057688 32.55841227 -18.4375 28.625 C-21.92431795 22.76714584 -23.06051801 17.56519863 -21.5 10.84765625 C-19.98166031 6.2149948 -18.21009953 3.69878175 -14 1 C-9.81366565 -1.09316718 -4.55890387 -0.42311395 0 0 Z M-8 7 C-9.8624438 9.40858714 -9.8624438 9.40858714 -11 12 C-7.7 12 -4.4 12 -1 12 C-1.57125354 8.25724788 -1.57125354 8.25724788 -3 7 C-5.41482413 6.49940084 -5.41482413 6.49940084 -8 7 Z " fill="currentColor" transform="translate(865,72)"/>
<path d="M0 0 C4.9927597 5.59285101 5.125 8.72626885 5.125 16.4453125 C-1.475 16.4453125 -8.075 16.4453125 -14.875 16.4453125 C-14.215 18.0953125 -13.555 19.7453125 -12.875 21.4453125 C-10.42213404 22.43608548 -10.42213404 22.43608548 -7.875 22.4453125 C-7.215 22.1153125 -6.555 21.7853125 -5.875 21.4453125 C-5.545 20.4553125 -5.215 19.4653125 -4.875 18.4453125 C-1.905 18.4453125 1.065 18.4453125 4.125 18.4453125 C4.455 19.4353125 4.785 20.4253125 5.125 21.4453125 C2.75198819 25.82625739 0.5789034 28.26264677 -3.875 30.4453125 C-9.0174551 31.28502985 -14.48034731 31.68475585 -19.20703125 29.23828125 C-23.12725551 25.97830528 -25.6208613 22.81507341 -26.17578125 17.640625 C-26.2163492 7.01182307 -26.2163492 7.01182307 -22.875 2.4453125 C-16.5825836 -3.8471039 -7.42027424 -6.15264406 0 0 Z M-14.875 6.4453125 C-14.875 7.4353125 -14.875 8.4253125 -14.875 9.4453125 C-11.575 9.4453125 -8.275 9.4453125 -4.875 9.4453125 C-5.535 7.7953125 -6.195 6.1453125 -6.875 4.4453125 C-11.36804582 4.02027804 -11.36804582 4.02027804 -14.875 6.4453125 Z " fill="currentColor" transform="translate(748.875,142.5546875)"/>
<path d="M0 0 C4.33557033 5.64937952 4.0625 8.07367924 4.0625 15.6875 C-2.5375 15.6875 -9.1375 15.6875 -15.9375 15.6875 C-14.59573008 20.72360368 -14.59573008 20.72360368 -11.5625 21.75 C-10.263125 21.7190625 -10.263125 21.7190625 -8.9375 21.6875 C-8.339375 21.048125 -7.74125 20.40875 -7.125 19.75 C-4.59711892 17.36656927 -4.01530096 17.40825746 -0.6875 17.4375 C0.55 17.52 1.7875 17.6025 3.0625 17.6875 C3.875 19.3125 3.875 19.3125 4.0625 21.6875 C1.42957952 25.44881497 -0.59334557 28.01488439 -4.9375 29.6875 C-10.53140643 30.35752222 -15.40102174 30.44226125 -20.5 27.9375 C-24.23992817 24.48525861 -26.66458462 21.68956916 -27.140625 16.453125 C-27.26953832 9.53477672 -26.40459329 5.06833154 -22.25 -0.625 C-15.23140129 -5.74668014 -6.69189282 -5.26808584 0 0 Z M-13.9375 3.6875 C-14.5975 5.3375 -15.2575 6.9875 -15.9375 8.6875 C-12.6375 8.6875 -9.3375 8.6875 -5.9375 8.6875 C-6.5975 7.0375 -7.2575 5.3875 -7.9375 3.6875 C-9.9175 3.6875 -11.8975 3.6875 -13.9375 3.6875 Z " fill="currentColor" transform="translate(318.9375,143.3125)"/>
<path d="M0 0 C4.51328747 5.74418406 4.0625 7.63782366 4.0625 15.625 C-2.5375 15.625 -9.1375 15.625 -15.9375 15.625 C-14.59573008 20.66110368 -14.59573008 20.66110368 -11.5625 21.6875 C-10.263125 21.6565625 -10.263125 21.6565625 -8.9375 21.625 C-8.339375 20.985625 -7.74125 20.34625 -7.125 19.6875 C-4.59711892 17.30406927 -4.01530096 17.34575746 -0.6875 17.375 C0.55 17.4575 1.7875 17.54 3.0625 17.625 C3.875 19.25 3.875 19.25 4.0625 21.625 C1.42957952 25.38631497 -0.59334557 27.95238439 -4.9375 29.625 C-10.53140643 30.29502222 -15.40102174 30.37976125 -20.5 27.875 C-24.24165421 24.42116534 -26.61074129 21.64082217 -27.17578125 16.42578125 C-27.35849077 10.30020406 -26.68062231 5.61199065 -22.9375 0.625 C-15.7407568 -5.34676564 -7.42917963 -6.00657076 0 0 Z M-13.9375 3.625 C-14.5975 5.275 -15.2575 6.925 -15.9375 8.625 C-12.6375 8.625 -9.3375 8.625 -5.9375 8.625 C-6.5975 6.975 -7.2575 5.325 -7.9375 3.625 C-9.9175 3.625 -11.8975 3.625 -13.9375 3.625 Z " fill="currentColor" transform="translate(403.9375,143.375)"/>
<path d="M0 0 C3.3 0 6.6 0 10 0 C10.33 7.92 10.66 15.84 11 24 C12.65 23.67 14.3 23.34 16 23 C16.33 15.41 16.66 7.82 17 0 C20.63 0 24.26 0 28 0 C28 10.89 28 21.78 28 33 C24.7 33 21.4 33 18 33 C17.67 32.34 17.34 31.68 17 31 C16.34 31.66 15.68 32.32 15 33 C10.04116379 34.14434682 6.64340066 34.15972124 2 32 C-0.42204038 28.36693942 -0.23302891 26.68180977 -0.1953125 22.36328125 C-0.18886719 21.06455078 -0.18242188 19.76582031 -0.17578125 18.42773438 C-0.1590706 17.05598693 -0.14214071 15.68424214 -0.125 14.3125 C-0.11496674 12.92904282 -0.10584149 11.54557873 -0.09765625 10.16210938 C-0.07404967 6.77456548 -0.04112037 3.38736928 0 0 Z " fill="currentColor" transform="translate(554,72)"/>
<path d="M0 0 C4.33665904 5.64842498 3.33028244 12.61663129 3.1875 19.375 C3.16719727 21.19451172 3.16719727 21.19451172 3.14648438 23.05078125 C3.11124582 26.03431206 3.06197525 29.01692458 3 32 C-0.3 32 -3.6 32 -7 32 C-7.06058594 30.51886719 -7.12117188 29.03773438 -7.18359375 27.51171875 C-7.26800315 25.57030266 -7.35265095 23.62889692 -7.4375 21.6875 C-7.47681641 20.71103516 -7.51613281 19.73457031 -7.55664062 18.72851562 C-7.59853516 17.79072266 -7.64042969 16.85292969 -7.68359375 15.88671875 C-7.72025146 15.02264404 -7.75690918 14.15856934 -7.79467773 13.26831055 C-7.92747354 10.8352174 -7.92747354 10.8352174 -9 8 C-10.65 8.33 -12.3 8.66 -14 9 C-15.14850697 13.73879768 -15.32901557 18.46291362 -15.5625 23.3125 C-15.60568359 24.14845703 -15.64886719 24.98441406 -15.69335938 25.84570312 C-15.79885307 27.89696935 -15.89987315 29.9484648 -16 32 C-19.3 32 -22.6 32 -26 32 C-26 21.11 -26 10.22 -26 -1 C-22.7 -1 -19.4 -1 -16 -1 C-15.67 -0.34 -15.34 0.32 -15 1 C-14.34 0.34 -13.68 -0.32 -13 -1 C-8.75483423 -2.4982938 -3.93763936 -2.23242734 0 0 Z " fill="currentColor" transform="translate(438,141)"/>
<path d="M0 0 C3.3 0 6.6 0 10 0 C10.33 0.66 10.66 1.32 11 2 C11.66 1.34 12.32 0.68 13 0 C17.8795107 -0.66609194 22.49491909 -1.03922253 26.625 1.8125 C29.00733716 5.60258184 29.11901637 8.60164314 29.09765625 12.98046875 C29.09443359 14.14384766 29.09121094 15.30722656 29.08789062 16.50585938 C29.07951172 17.72080078 29.07113281 18.93574219 29.0625 20.1875 C29.05798828 21.41404297 29.05347656 22.64058594 29.04882812 23.90429688 C29.03703065 26.93624668 29.02056921 29.96809906 29 33 C25.7 33 22.4 33 19 33 C18.93941406 31.60265625 18.87882813 30.2053125 18.81640625 28.765625 C18.73198297 26.92707358 18.64733586 25.08853243 18.5625 23.25 C18.52318359 22.32960938 18.48386719 21.40921875 18.44335938 20.4609375 C18.40146484 19.57148437 18.35957031 18.68203125 18.31640625 17.765625 C18.27974854 16.94868164 18.24309082 16.13173828 18.20532227 15.29003906 C18.00865725 13.0965577 17.59699406 11.11603587 17 9 C15.35 9.33 13.7 9.66 12 10 C11.19347492 12.88167681 10.82484994 15.56031547 10.68359375 18.546875 C10.64169922 19.39121094 10.59980469 20.23554687 10.55664062 21.10546875 C10.51732422 21.97816406 10.47800781 22.85085937 10.4375 23.75 C10.39431641 24.63816406 10.35113281 25.52632812 10.30664062 26.44140625 C10.20086505 28.62743472 10.0999574 30.81369777 10 33 C6.7 33 3.4 33 0 33 C0 22.11 0 11.22 0 0 Z " fill="currentColor" transform="translate(777,72)"/>
<path d="M0 0 C3.3 0 6.6 0 10 0 C10.33 7.92 10.66 15.84 11 24 C12.65 23.67 14.3 23.34 16 23 C16.9300889 20.2097333 17.18698769 18.23470458 17.31640625 15.33203125 C17.35830078 14.43935547 17.40019531 13.54667969 17.44335938 12.62695312 C17.48267578 11.69818359 17.52199219 10.76941406 17.5625 9.8125 C17.60568359 8.87212891 17.64886719 7.93175781 17.69335938 6.96289062 C17.79938543 4.64209812 17.90019194 2.32106823 18 0 C21.3 0 24.6 0 28 0 C28 10.89 28 21.78 28 33 C24.7 33 21.4 33 18 33 C17.67 32.34 17.34 31.68 17 31 C16.34 31.66 15.68 32.32 15 33 C10.36551801 34.04931668 7.17553734 34.43573012 3 32 C-0.26234578 28.63210052 -0.35564407 26.08056494 -0.29296875 21.484375 C-0.28330078 20.23398438 -0.27363281 18.98359375 -0.26367188 17.6953125 C-0.2259668 15.74238281 -0.2259668 15.74238281 -0.1875 13.75 C-0.16719727 11.77386719 -0.16719727 11.77386719 -0.14648438 9.7578125 C-0.11112551 6.50479679 -0.06177033 3.252604 0 0 Z " fill="currentColor" transform="translate(744,72)"/>
<path d="M0 0 C3.3 0 6.6 0 10 0 C10.33 8.25 10.66 16.5 11 25 C15.94463635 23.66436384 15.94463635 23.66436384 17 21 C17.15175549 19.40737934 17.24900325 17.80935144 17.31640625 16.2109375 C17.35830078 15.26992187 17.40019531 14.32890625 17.44335938 13.359375 C17.48267578 12.37453125 17.52199219 11.3896875 17.5625 10.375 C17.60568359 9.38242188 17.64886719 8.38984375 17.69335938 7.3671875 C17.79960947 4.91162967 17.90032455 2.45583349 18 0 C21.3 0 24.6 0 28 0 C28 10.89 28 21.78 28 33 C24.7 33 21.4 33 18 33 C17.67 32.34 17.34 31.68 17 31 C16.34 31.66 15.68 32.32 15 33 C12.5390625 33.37109375 12.5390625 33.37109375 9.625 33.4375 C8.19027344 33.49744141 8.19027344 33.49744141 6.7265625 33.55859375 C4 33 4 33 1.85400391 30.87841797 C-0.38590254 27.40087031 -0.46559349 25.49124381 -0.390625 21.38671875 C-0.37773438 20.13955078 -0.36484375 18.89238281 -0.3515625 17.60742188 C-0.31804688 16.31384766 -0.28453125 15.02027344 -0.25 13.6875 C-0.23195313 12.37458984 -0.21390625 11.06167969 -0.1953125 9.70898438 C-0.14822786 6.47191512 -0.08247042 3.23632947 0 0 Z " fill="currentColor" transform="translate(0,140)"/>
<path d="M0 0 C4.86606919 6.19317897 4.82421162 11.90444153 4.0625 19.625 C2.86987379 23.422064 1.06792071 25.88885718 -2.18359375 28.26953125 C-7.22471726 30.75076509 -12.46896958 30.45234224 -17.9375 29.625 C-22.09140526 27.60023211 -24.2610495 24.91907922 -26.375 20.875 C-27.56760924 13.98436885 -28.09883212 7.58957604 -23.9375 1.625 C-16.88637175 -5.42612825 -7.9094767 -6.39489606 0 0 Z M-13.9375 3.625 C-15.86025982 6.87300861 -16.23452176 9.36894754 -16.25 13.125 C-16.26675781 14.0634375 -16.28351563 15.001875 -16.30078125 15.96875 C-15.88518059 19.00755053 -14.95708576 20.36562173 -12.9375 22.625 C-11.2875 22.295 -9.6375 21.965 -7.9375 21.625 C-6.27776424 15.27970252 -5.44447078 10.79196703 -7.9375 4.625 C-9.00395115 3.32866379 -9.00395115 3.32866379 -11.5 3.5625 C-12.304375 3.583125 -13.10875 3.60375 -13.9375 3.625 Z " fill="currentColor" transform="translate(183.9375,143.375)"/>
<path d="M0 0 C0 3.3 0 6.6 0 10 C1.98 10 3.96 10 6 10 C6 12.64 6 15.28 6 18 C4.02 18 2.04 18 0 18 C0.495 25.92 0.495 25.92 1 34 C2.98 34.33 4.96 34.66 7 35 C7 37.64 7 40.28 7 43 C4.91731407 43.08126087 2.83371342 43.13930839 0.75 43.1875 C-0.99023438 43.23970703 -0.99023438 43.23970703 -2.765625 43.29296875 C-6.27645269 42.974959 -7.60136343 42.54141256 -10 40 C-10.91539829 37.17886462 -11.11875319 34.62544709 -11.09765625 31.671875 C-11.09282227 30.47304687 -11.09282227 30.47304687 -11.08789062 29.25 C-11.07951172 28.425 -11.07113281 27.6 -11.0625 26.75 C-11.05798828 25.90953125 -11.05347656 25.0690625 -11.04882812 24.203125 C-11.03707961 22.13538599 -11.01914522 20.06768376 -11 18 C-12.65 18 -14.3 18 -16 18 C-16 15.36 -16 12.72 -16 10 C-14.02 10 -12.04 10 -10 10 C-10 7.03 -10 4.06 -10 1 C-6.41220825 0.10305206 -3.65381163 -0.08304117 0 0 Z " fill="currentColor" transform="translate(541,130)"/>
<path d="M0 0 C0 3.3 0 6.6 0 10 C1.98 10 3.96 10 6 10 C6 12.64 6 15.28 6 18 C4.02 18 2.04 18 0 18 C0.495 25.92 0.495 25.92 1 34 C2.98 34.33 4.96 34.66 7 35 C7 37.64 7 40.28 7 43 C4.91731407 43.08126087 2.83371342 43.13930839 0.75 43.1875 C-0.99023438 43.23970703 -0.99023438 43.23970703 -2.765625 43.29296875 C-6.29399704 42.97336983 -7.62910716 42.60233714 -10 40 C-11.52933729 35.62017018 -11.11254216 30.77983042 -11.0625 26.1875 C-11.05798828 25.39923828 -11.05347656 24.61097656 -11.04882812 23.79882812 C-11.03711312 21.86585239 -11.01917998 19.93291607 -11 18 C-12.65 18 -14.3 18 -16 18 C-16 15.36 -16 12.72 -16 10 C-14.02 10 -12.04 10 -10 10 C-10 7.36 -10 4.72 -10 2 C-6.5980513 -0.09350689 -3.94727588 -0.17942163 0 0 Z " fill="currentColor" transform="translate(459,130)"/>
<path d="M0 0 C0 3.3 0 6.6 0 10 C2.31 10 4.62 10 7 10 C7 12.64 7 15.28 7 18 C4.69 18 2.38 18 0 18 C0.33 23.61 0.66 29.22 1 35 C3.31 35 5.62 35 8 35 C8 37.64 8 40.28 8 43 C2.3719608 43.9873753 -1.5628159 44.23884051 -7 42 C-9.73163226 39.10054197 -10.36884557 37.17996965 -10.29296875 33.234375 C-10.28330078 32.34492187 -10.27363281 31.45546875 -10.26367188 30.5390625 C-10.23853516 29.61867188 -10.21339844 28.69828125 -10.1875 27.75 C-10.17396484 26.81414062 -10.16042969 25.87828125 -10.14648438 24.9140625 C-10.11119954 22.60878673 -10.06190281 20.3046894 -10 18 C-11.65 18 -13.3 18 -15 18 C-15 15.36 -15 12.72 -15 10 C-13.35 9.67 -11.7 9.34 -10 9 C-9.67 6.36 -9.34 3.72 -9 1 C-5.846632 0.29925156 -3.27275026 0 0 0 Z " fill="currentColor" transform="translate(542,62)"/>
<path d="M0 0 C1.32 0 2.64 0 4 0 C4 1.65 4 3.3 4 5 C5.65 5 7.3 5 9 5 C9 6.32 9 7.64 9 9 C7.35 9 5.7 9 4 9 C4.495 15.93 4.495 15.93 5 23 C6.65 23.33 8.3 23.66 10 24 C10 25.32 10 26.64 10 28 C3.62063407 28.36109618 3.62063407 28.36109618 1.28125 27 C-0.75518944 23.82116771 -0.31160535 20.45610577 -0.1875 16.8125 C-0.16719727 15.68811523 -0.16719727 15.68811523 -0.14648438 14.54101562 C-0.11118539 12.69370233 -0.05737917 10.84675934 0 9 C-2.343946 8.95488741 -2.343946 8.95488741 -5 10 C-6.93736733 12.1512081 -8.34973388 14.57263355 -9.8125 17.0625 C-10.21919922 17.72572266 -10.62589844 18.38894531 -11.04492188 19.07226562 C-12.04412578 20.7062579 -13.02398816 22.35204973 -14 24 C-10.7 24 -7.4 24 -4 24 C-4 25.32 -4 26.64 -4 28 C-9.28 28 -14.56 28 -20 28 C-19.06401924 21.44813465 -18.69920527 19.89897821 -14.9375 15.0625 C-14.20402344 14.10472656 -13.47054687 13.14695313 -12.71484375 12.16015625 C-11.86599609 11.09087891 -11.86599609 11.09087891 -11 10 C-13.12472576 9.94613371 -15.24983652 9.90726929 -17.375 9.875 C-18.55835938 9.85179687 -19.74171875 9.82859375 -20.9609375 9.8046875 C-24.11153817 9.67133771 -24.11153817 9.67133771 -26 12 C-26.3063859 14.73434962 -26.5113336 17.38279821 -26.625 20.125 C-26.66367188 20.87910156 -26.70234375 21.63320312 -26.7421875 22.41015625 C-26.83651031 24.27303184 -26.91934662 26.13648255 -27 28 C-28.65 28 -30.3 28 -32 28 C-32 20.41 -32 12.82 -32 5 C-29.525 5.495 -29.525 5.495 -27 6 C-26.34 5.67 -25.68 5.34 -25 5 C-23.1136088 4.915085 -21.22421485 4.892807 -19.3359375 4.90234375 C-18.21445313 4.90556641 -17.09296875 4.90878906 -15.9375 4.91210938 C-14.761875 4.92048828 -13.58625 4.92886719 -12.375 4.9375 C-11.19164062 4.94201172 -10.00828125 4.94652344 -8.7890625 4.95117188 C-5.85932493 4.96298533 -2.92968728 4.97945742 0 5 C0 3.35 0 1.7 0 0 Z " fill="currentColor" transform="translate(153,199)"/>
<path d="M0 0 C3.3 0 6.6 0 10 0 C10 14.52 10 29.04 10 44 C6.7 44 3.4 44 0 44 C0 29.48 0 14.96 0 0 Z " fill="currentColor" transform="translate(278,129)"/>
<path d="M0 0 C3.3 0 6.6 0 10 0 C10 14.52 10 29.04 10 44 C6.7 44 3.4 44 0 44 C0 29.48 0 14.96 0 0 Z " fill="currentColor" transform="translate(693,61)"/>
<path d="M0 0 C0 3.3 0 6.6 0 10 C-0.78375 10.226875 -1.5675 10.45375 -2.375 10.6875 C-5.11599747 11.74569785 -5.11599747 11.74569785 -6.125 14.0625 C-7.24739275 17.83053282 -7.45719786 21.4006125 -7.625 25.3125 C-7.68300781 26.42334961 -7.68300781 26.42334961 -7.7421875 27.55664062 C-7.83581705 29.37071309 -7.91896851 31.18532116 -8 33 C-11.3 33 -14.6 33 -18 33 C-18 22.11 -18 11.22 -18 0 C-14 0 -10 0 -6 0 C-3 -1 -3 -1 0 0 Z " fill="currentColor" transform="translate(522,140)"/>
<path d="M0 0 C0.99 0.33 1.98 0.66 3 1 C3 4.3 3 7.6 3 11 C1.02 11.33 -0.96 11.66 -3 12 C-3.7795458 14.80747455 -4.1710149 17.42029808 -4.31640625 20.328125 C-4.35830078 21.12734375 -4.40019531 21.9265625 -4.44335938 22.75 C-4.50233398 23.9875 -4.50233398 23.9875 -4.5625 25.25 C-4.60568359 26.09046875 -4.64886719 26.9309375 -4.69335938 27.796875 C-4.79908543 29.86440671 -4.90001295 31.93218281 -5 34 C-8.3 34 -11.6 34 -15 34 C-15 23.11 -15 12.22 -15 1 C-12.03 1 -9.06 1 -6 1 C-5.67 1.66 -5.34 2.32 -5 3 C-4.236875 2.484375 -3.47375 1.96875 -2.6875 1.4375 C-1.800625 0.963125 -0.91375 0.48875 0 0 Z " fill="currentColor" transform="translate(635,139)"/>
<path d="M0 0 C2.97 0 5.94 0 9 0 C9.33 0.66 9.66 1.32 10 2 C10.66 1.34 11.32 0.68 12 0 C15.125 -0.125 15.125 -0.125 18 0 C18 3.3 18 6.6 18 10 C16.02 10.33 14.04 10.66 12 11 C11.2204542 13.80747455 10.8289851 16.42029808 10.68359375 19.328125 C10.64169922 20.12734375 10.59980469 20.9265625 10.55664062 21.75 C10.49766602 22.9875 10.49766602 22.9875 10.4375 24.25 C10.39431641 25.09046875 10.35113281 25.9309375 10.30664062 26.796875 C10.20091457 28.86440671 10.09998705 30.93218281 10 33 C6.7 33 3.4 33 0 33 C0 22.11 0 11.22 0 0 Z " fill="currentColor" transform="translate(588,72)"/>
<path d="M0 0 C1.65 0 3.3 0 5 0 C5 1.32 5 2.64 5 4 C4.01 4.66 3.02 5.32 2 6 C2.33 6.66 2.66 7.32 3 8 C3.37663145 11.46500939 3.38526209 13.36348003 1.5625 16.375 C-2.20119538 18.76173366 -5.65956893 18.33387931 -10 18 C-9.67 18.66 -9.34 19.32 -9 20 C-6.54442328 20.31631959 -6.54442328 20.31631959 -3.6875 20.375 C-0.12330095 20.6484561 1.66839066 20.79651245 4.75 22.6875 C6 25 6 25 5.9375 28.125 C5 31 5 31 2 33 C-1.25 33.265625 -1.25 33.265625 -5 33.25 C-6.2375 33.25515625 -7.475 33.2603125 -8.75 33.265625 C-12 33 -12 33 -15 31 C-16.51689866 27.48174815 -15.72403627 24.36702526 -15.0625 20.6875 C-14.43416466 17.0242639 -13.87485176 13.64937715 -14.125 9.9375 C-14 7 -14 7 -12.5625 4.5625 C-8.78993176 2.26215351 -5.30933841 2.66851243 -1 3 C-0.67 2.01 -0.34 1.02 0 0 Z M-6 6 C-8.19038423 7.37168238 -8.19038423 7.37168238 -10 9 C-9.80528889 10.94999129 -9.80528889 10.94999129 -9 13 C-7.0162233 14.28436734 -7.0162233 14.28436734 -5 15 C-3.68 13.68 -2.36 12.36 -1 11 C-1.79117904 9.00016466 -1.79117904 9.00016466 -3 7 C-3.99 6.67 -4.98 6.34 -6 6 Z M-10 25 C-10 26.32 -10 27.64 -10 29 C-7.47946405 30.26026798 -6.1457902 29.91874445 -3.375 29.5625 C-2.55773437 29.46066406 -1.74046875 29.35882813 -0.8984375 29.25390625 C-0.27195312 29.17011719 0.35453125 29.08632812 1 29 C0.67 27.68 0.34 26.36 0 25 C-3.3 25 -6.6 25 -10 25 Z " fill="currentColor" transform="translate(401,201)"/>
<path d="M0 0 C1.65 0 3.3 0 5 0 C5 1.32 5 2.64 5 4 C4.01 4.66 3.02 5.32 2 6 C2.33 6.33 2.66 6.66 3 7 C3.35449869 10.75768609 3.54775598 13.13271971 1.5 16.375 C-2.0150631 18.65979101 -4.8345081 18.72230054 -9 19 C-9 19.33 -9 19.66 -9 20 C-8.25234375 20.03738281 -7.5046875 20.07476562 -6.734375 20.11328125 C-5.25710938 20.21189453 -5.25710938 20.21189453 -3.75 20.3125 C-2.77546875 20.37050781 -1.8009375 20.42851562 -0.796875 20.48828125 C2.30219403 21.05528969 3.76570254 21.80224479 6 24 C6.5 27 6.5 27 6 30 C3.58240548 32.53639523 2.16906936 32.98165292 -1.34765625 33.36328125 C-3.18650391 33.33814453 -3.18650391 33.33814453 -5.0625 33.3125 C-6.29097656 33.30863281 -7.51945312 33.30476563 -8.78515625 33.30078125 C-12 33 -12 33 -15 31 C-15.4375 24.875 -15.4375 24.875 -14 22 C-13.957279 20.33388095 -13.95936168 18.66617115 -14 17 C-14 16.01 -14 15.02 -14 14 C-14.103125 12.865625 -14.20625 11.73125 -14.3125 10.5625 C-14 7 -14 7 -12 4.5625 C-8.00764582 2.48314886 -5.45909693 2.69768834 -1 3 C-0.67 2.01 -0.34 1.02 0 0 Z M-6 6 C-7.32 7.32 -8.64 8.64 -10 10 C-9.02617818 12.51570636 -8.53848865 13.73944098 -6.0625 14.9375 C-3.9266867 15.19940925 -3.9266867 15.19940925 -2.1875 13.8125 C-0.80059075 12.0733133 -0.80059075 12.0733133 -1.0625 9.9375 C-2.26055902 7.46151135 -3.48429364 6.97382182 -6 6 Z M-10 25 C-10 26.32 -10 27.64 -10 29 C-6.98131566 30.50934217 -4.32702771 30.17510672 -1 30 C-0.01 29.34 0.98 28.68 2 28 C2 27.34 2 26.68 2 26 C-0.52475462 24.73762269 -2.31200466 24.90143596 -5.125 24.9375 C-6.03507812 24.94652344 -6.94515625 24.95554688 -7.8828125 24.96484375 C-8.93082031 24.98224609 -8.93082031 24.98224609 -10 25 Z " fill="currentColor" transform="translate(335,201)"/>
<path d="M0 0 C1.98 0 3.96 0 6 0 C7.69091797 1.74414062 7.69091797 1.74414062 8.9921875 4.15625 C9.46914062 5.01347656 9.94609375 5.87070313 10.4375 6.75390625 C10.911875 7.66011719 11.38625 8.56632813 11.875 9.5 C12.37257813 10.40621094 12.87015625 11.31242188 13.3828125 12.24609375 C14.60903149 14.48630153 15.80723134 16.74180452 17 19 C17.33 12.73 17.66 6.46 18 0 C19.32 0 20.64 0 22 0 C22 9.9 22 19.8 22 30 C20.35 30 18.7 30 17 30 C11.06 19.605 11.06 19.605 5 9 C4.67 15.93 4.34 22.86 4 30 C2.68 30 1.36 30 0 30 C0 20.1 0 10.2 0 0 Z " fill="currentColor" transform="translate(0,197)"/>
<path d="M0 0 C3.63 0 7.26 0 11 0 C11 10.89 11 21.78 11 33 C7.37 33 3.74 33 0 33 C0 22.11 0 11.22 0 0 Z " fill="currentColor" transform="translate(708,140)"/>
<path d="M0 0 C1 1.625 1 1.625 1 5.625 C-1.475 5.13 -1.475 5.13 -4 4.625 C-4 3.965 -4 3.305 -4 2.625 C-8.23646767 1.6160966 -8.23646767 1.6160966 -12.375 2.5625 C-12.91125 2.913125 -13.4475 3.26375 -14 3.625 C-13.67 4.945 -13.34 6.265 -13 7.625 C-12.25234375 7.79515625 -11.5046875 7.9653125 -10.734375 8.140625 C-9.74953125 8.38296875 -8.7646875 8.6253125 -7.75 8.875 C-6.28820312 9.22304687 -6.28820312 9.22304687 -4.796875 9.578125 C-1.61089279 10.77064348 -0.08638365 11.95364898 2 14.625 C2.72804951 17.36589228 2.57443241 19.85521206 2 22.625 C-0.20740681 25.59358157 -1.48597373 26.45365791 -5 27.625 C-10.35234642 27.97031267 -13.65531768 28.10074585 -18 24.625 C-19.875 22.625 -19.875 22.625 -21 20.625 C-20.505 19.14 -20.505 19.14 -20 17.625 C-16.31979695 18.25951777 -16.31979695 18.25951777 -14.6875 20.125 C-12.01265347 22.50264136 -9.48723796 22.50045579 -6 22.625 C-4.03568595 21.33235301 -4.03568595 21.33235301 -3 19.625 C-3.33 18.635 -3.66 17.645 -4 16.625 C-6.68828261 15.48016213 -6.68828261 15.48016213 -9.875 14.625 C-16.90508153 12.59220534 -16.90508153 12.59220534 -19 9.625 C-19.76595745 2.73138298 -19.76595745 2.73138298 -17.3125 -0.8125 C-11.82520155 -4.52013409 -5.3766665 -3.69645822 0 0 Z " fill="currentColor" transform="translate(441,199.375)"/>
<path d="M0 0 C3.3 0 6.6 0 10 0 C10 10.89 10 21.78 10 33 C6.7 33 3.4 33 0 33 C0 22.11 0 11.22 0 0 Z " fill="currentColor" transform="translate(676,72)"/>
<path d="M0 0 C2.475 0.495 2.475 0.495 5 1 C5.99 4.3 6.98 7.6 8 11 C8.474375 9.741875 8.94875 8.48375 9.4375 7.1875 C9.70433594 6.47980469 9.97117187 5.77210938 10.24609375 5.04296875 C10.86225186 3.37327604 11.43719235 1.68842296 12 0 C13.32 0 14.64 0 16 0 C16.50512244 1.60256108 17.00391627 3.20711792 17.5 4.8125 C17.7784375 5.70582031 18.056875 6.59914062 18.34375 7.51953125 C19 10 19 10 19 13 C19.66 13 20.32 13 21 13 C21.12375 11.96875 21.2475 10.9375 21.375 9.875 C21.93889814 6.37883154 22.78682059 3.31602373 24 0 C25.32 0 26.64 0 28 0 C26.64741104 7.88416983 24.45600648 15.39353334 22 23 C20.68 23 19.36 23 18 23 C17.49242138 21.58603098 16.99425075 20.16868271 16.5 18.75 C16.2215625 17.96109375 15.943125 17.1721875 15.65625 16.359375 C15 14 15 14 15 10 C14.34 10 13.68 10 13 10 C12.87625 11.03125 12.7525 12.0625 12.625 13.125 C12.06110186 16.62116846 11.21317941 19.68397627 10 23 C8.68 23 7.36 23 6 23 C4.99325541 19.73120384 3.99577511 16.4596529 3 13.1875 C2.71382813 12.25873047 2.42765625 11.32996094 2.1328125 10.37304688 C1.86210937 9.48037109 1.59140625 8.58769531 1.3125 7.66796875 C1.06113281 6.84578857 0.80976563 6.0236084 0.55078125 5.17651367 C0 3 0 3 0 0 Z " fill="currentColor" transform="translate(487,204)"/>
<path d="M0 0 C1.28583984 -0.01160156 1.28583984 -0.01160156 2.59765625 -0.0234375 C5.39706846 0.45325707 6.24692852 1.13143784 7.9375 3.375 C8.83988747 6.08216242 9.05601302 7.61276768 9.03515625 10.38671875 C9.03193359 11.14404297 9.02871094 11.90136719 9.02539062 12.68164062 C9.01701172 13.46732422 9.00863281 14.25300781 9 15.0625 C8.99548828 15.85978516 8.99097656 16.65707031 8.98632812 17.47851562 C8.9745585 19.44404257 8.95662348 21.40953085 8.9375 23.375 C7.6175 23.375 6.2975 23.375 4.9375 23.375 C4.6075 22.715 4.2775 22.055 3.9375 21.375 C2.9475 22.035 1.9575 22.695 0.9375 23.375 C-2.60609483 23.69714498 -5.19030596 23.7328232 -8.5 22.375 C-10.60513621 19.68042565 -10.54310651 17.65497052 -10.59375 14.3125 C-10.0625 12.375 -10.0625 12.375 -8.359375 10.66796875 C-5.71573024 9.17979457 -3.82604065 8.88575925 -0.8125 8.6875 C0.07953125 8.62175781 0.9715625 8.55601562 1.890625 8.48828125 C2.56609375 8.45089844 3.2415625 8.41351563 3.9375 8.375 C3.6075 7.385 3.2775 6.395 2.9375 5.375 C0.6359589 4.59697813 0.6359589 4.59697813 -2.0625 4.375 C-3.42983028 5.32798777 -4.76514493 6.32874591 -6.0625 7.375 C-7.3825 7.375 -8.7025 7.375 -10.0625 7.375 C-9.69913322 4.74059084 -9.30479394 3.60088577 -7.33203125 1.76171875 C-4.66535299 0.13233702 -3.1017739 -0.02807035 0 0 Z M-6.0625 15.375 C-5.4025 16.695 -4.7425 18.015 -4.0625 19.375 C-0.43229729 19.68199462 -0.43229729 19.68199462 2.75 18.125 C4.31183428 16.17582707 4.31183428 16.17582707 3.9375 12.375 C-0.51099969 12.0716932 -2.74402292 12.31179039 -6.0625 15.375 Z " fill="currentColor" transform="translate(36.0625,203.625)"/>
<path d="M0 0 C0.9590625 -0.01675781 1.918125 -0.03351563 2.90625 -0.05078125 C5.97452532 0.37896213 6.63454245 0.90346321 8.5 3.3125 C8.93237305 5.48901367 8.93237305 5.48901367 9.01171875 7.98046875 C9.06489258 9.31948242 9.06489258 9.31948242 9.11914062 10.68554688 C9.14169922 11.61431641 9.16425781 12.54308594 9.1875 13.5 C9.23874023 14.91055664 9.23874023 14.91055664 9.29101562 16.34960938 C9.37348218 18.67045393 9.44263403 20.99092148 9.5 23.3125 C8.55125 23.126875 7.6025 22.94125 6.625 22.75 C3.60131207 22.02563368 3.60131207 22.02563368 1.5 23.3125 C-2.89502658 23.81005018 -4.84009074 23.77993573 -8.5 21.1875 C-10.5 18.3125 -10.5 18.3125 -10.5625 15.1875 C-9.33289411 11.86033111 -8.4891069 11.11422419 -5.5 9.3125 C-2.921875 8.80078125 -2.921875 8.80078125 -0.25 8.625 C0.64203125 8.55925781 1.5340625 8.49351562 2.453125 8.42578125 C3.12859375 8.38839844 3.8040625 8.35101563 4.5 8.3125 C4.17 7.3225 3.84 6.3325 3.5 5.3125 C0.73735711 4.71517181 -1.66032769 4.3125 -4.5 4.3125 C-4.83 5.3025 -5.16 6.2925 -5.5 7.3125 C-6.82 7.3125 -8.14 7.3125 -9.5 7.3125 C-9.1875 4.9375 -9.1875 4.9375 -8.5 2.3125 C-5.16602694 0.08985129 -3.90485109 0.01574537 0 0 Z M-5.5 14.3125 C-5.17 15.9625 -4.84 17.6125 -4.5 19.3125 C-1.62586875 19.64647787 -1.62586875 19.64647787 1.5 19.3125 C3.47098426 17.6015789 3.47098426 17.6015789 4.5 15.3125 C4.5 14.3225 4.5 13.3325 4.5 12.3125 C-0.82170494 12.01687633 -0.82170494 12.01687633 -5.5 14.3125 Z " fill="currentColor" transform="translate(107.5,203.6875)"/>
<path d="M0 0 C1.65 0 3.3 0 5 0 C7.31 6.6 9.62 13.2 12 20 C14.31 13.4 16.62 6.8 19 0 C20.32 0 21.64 0 23 0 C22.40241829 6.68722395 20.19854074 12.64641773 17.9375 18.9375 C17.56044922 20.00291016 17.18339844 21.06832031 16.79492188 22.16601562 C15.86907983 24.77946849 14.93730537 27.39064121 14 30 C12.35 30 10.7 30 9 30 C7.71248643 26.21165112 6.43090931 22.42135154 5.15478516 18.62915039 C4.71988772 17.33953841 4.28337578 16.05046971 3.84521484 14.76196289 C3.21547426 12.9091547 2.59202743 11.05421111 1.96875 9.19921875 C1.59169922 8.08377686 1.21464844 6.96833496 0.82617188 5.8190918 C0 3 0 3 0 0 Z " fill="currentColor" transform="translate(198,197)"/>
<path d="M0 0 C2.9375 1.5 2.9375 1.5 5 4 C5.69926312 6.73443189 5.8576733 9.15346598 6 12 C1.05 12 -3.9 12 -9 12 C-7.54711014 16.5841963 -7.54711014 16.5841963 -6 18 C-3.54207971 18.33343551 -3.54207971 18.33343551 -1 18 C-0.34 17.01 0.32 16.02 1 15 C3.475 15.495 3.475 15.495 6 16 C4.09386779 19.6216512 2.85388063 21.5400919 -1 23 C-3.25390625 23.08203125 -3.25390625 23.08203125 -5.5625 22.8125 C-6.32691406 22.73644531 -7.09132812 22.66039062 -7.87890625 22.58203125 C-10.41474463 21.88619346 -11.38742428 21.05370586 -13 19 C-14.67967818 13.96096545 -14.87064828 8.94859377 -12.6875 4.0625 C-9.10877595 -0.31149606 -5.35533362 -0.81426125 0 0 Z M-5 3 C-6.37562854 4.28965176 -7.70766393 5.62689293 -9 7 C-9 7.66 -9 8.32 -9 9 C-5.7 9 -2.4 9 1 9 C0.67 7.68 0.34 6.36 0 5 C-2.49034386 3.70339566 -2.49034386 3.70339566 -5 3 Z " fill="currentColor" transform="translate(234,204)"/>
<path d="M0 0 C2.9375 1.5 2.9375 1.5 5 4 C5.69926312 6.73443189 5.8576733 9.15346598 6 12 C1.05 12 -3.9 12 -9 12 C-7.54711014 16.5841963 -7.54711014 16.5841963 -6 18 C-3.54207971 18.33343551 -3.54207971 18.33343551 -1 18 C-0.34 17.01 0.32 16.02 1 15 C3.475 15.495 3.475 15.495 6 16 C4.19587357 19.26460973 3.16605307 20.88929795 0 23 C-4.96495273 23.45971784 -8.06167696 23.15065843 -12 20 C-14.5519705 15.79148725 -14.69773288 11.80106674 -14 7 C-10.48481264 0.43831693 -7.35236231 -0.97186398 0 0 Z M-5 3 C-6.37562854 4.28965176 -7.70766393 5.62689293 -9 7 C-9 7.66 -9 8.32 -9 9 C-5.7 9 -2.4 9 1 9 C0.67 7.68 0.34 6.36 0 5 C-2.49034386 3.70339566 -2.49034386 3.70339566 -5 3 Z " fill="currentColor" transform="translate(529,204)"/>
<path d="M0 0 C2.9375 1.5 2.9375 1.5 5 4 C5.69926312 6.73443189 5.8576733 9.15346598 6 12 C1.05 12 -3.9 12 -9 12 C-7.54711014 16.5841963 -7.54711014 16.5841963 -6 18 C-3.54207971 18.33343551 -3.54207971 18.33343551 -1 18 C-0.34 17.01 0.32 16.02 1 15 C3.475 15.495 3.475 15.495 6 16 C4.19587357 19.26460973 3.16605307 20.88929795 0 23 C-4.96495273 23.45971784 -8.06167696 23.15065843 -12 20 C-14.5519705 15.79148725 -14.69773288 11.80106674 -14 7 C-10.48481264 0.43831693 -7.35236231 -0.97186398 0 0 Z M-5 3 C-6.37562854 4.28965176 -7.70766393 5.62689293 -9 7 C-9 7.66 -9 8.32 -9 9 C-5.7 9 -2.4 9 1 9 C0.67 7.68 0.34 6.36 0 5 C-2.49034386 3.70339566 -2.49034386 3.70339566 -5 3 Z " fill="currentColor" transform="translate(178,204)"/>
<path d="M0 0 C2.9375 2.0625 2.9375 2.0625 5 5 C5.33 7.31 5.66 9.62 6 12 C0.72 12 -4.56 12 -10 12 C-9.34 13.98 -8.68 15.96 -8 18 C-5.12549017 18.25048636 -5.12549017 18.25048636 -2 18 C-0.9805881 17.01979625 0.02246356 16.02196992 1 15 C3.1875 15.3125 3.1875 15.3125 5 16 C4.69611836 18.93752254 4.19330344 19.84080893 1.875 21.75 C-1.73716162 23.32050505 -4.09351583 23.48831052 -8 23 C-10.75329021 21.20437595 -12.52627461 19.94745078 -14 17 C-14.51124099 11.79539913 -14.86132441 7.43554069 -12.125 2.875 C-8.41943249 -0.39461839 -4.81585566 -0.80264261 0 0 Z M-7.25 4.25 C-7.8275 4.8275 -8.405 5.405 -9 6 C-9 6.99 -9 7.98 -9 9 C-5.7 9 -2.4 9 1 9 C-0.03528176 5.30726889 -0.03528176 5.30726889 -2.875 3 C-5.11938722 2.82800146 -5.11938722 2.82800146 -7.25 4.25 Z " fill="currentColor" transform="translate(270,204)"/>
<path d="M0 0 C1.32 0 2.64 0 4 0 C4.33 2.64 4.66 5.28 5 8 C5.66 7.67 6.32 7.34 7 7 C13.36842105 6.53684211 13.36842105 6.53684211 15.875 8.375 C17.78670636 11.13635363 18.12100836 12.81681266 18.09765625 16.1328125 C18.09443359 16.93847656 18.09121094 17.74414062 18.08789062 18.57421875 C18.07951172 19.41597656 18.07113281 20.25773437 18.0625 21.125 C18.05798828 21.97449219 18.05347656 22.82398438 18.04882812 23.69921875 C18.03702874 25.79950909 18.01909306 27.8997633 18 30 C16.68 30 15.36 30 14 30 C13.93941406 29.03578125 13.87882812 28.0715625 13.81640625 27.078125 C13.73261719 25.81484375 13.64882813 24.5515625 13.5625 23.25 C13.48128906 21.99703125 13.40007812 20.7440625 13.31640625 19.453125 C13.07484478 16.81682447 12.75716066 14.51962706 12 12 C10.35 12 8.7 12 7 12 C4.73150334 15.65172633 4.6104049 19.0127118 4.375 23.25 C4.30023438 24.51328125 4.22546875 25.7765625 4.1484375 27.078125 C4.09945313 28.04234375 4.05046875 29.0065625 4 30 C2.68 30 1.36 30 0 30 C0 20.1 0 10.2 0 0 Z " fill="currentColor" transform="translate(467,197)"/>
<path d="M0 0 C1.32 0 2.64 0 4 0 C4.33 0.66 4.66 1.32 5 2 C5.66 1.34 6.32 0.68 7 0 C10.67608047 -0.40845339 13.04173973 -0.61288024 16.2109375 1.4140625 C18.94373217 5.3640845 18.42966902 9.07169504 18.25 13.75 C18.23195313 14.63816406 18.21390625 15.52632812 18.1953125 16.44140625 C18.14827374 18.62870848 18.08257009 20.81379816 18 23 C16.68 23 15.36 23 14 23 C13.67 17.39 13.34 11.78 13 6 C8.52297636 4.93462795 8.52297636 4.93462795 6 5 C5.67 10.94 5.34 16.88 5 23 C3.35 23 1.7 23 0 23 C0 15.41 0 7.82 0 0 Z " fill="currentColor" transform="translate(365,204)"/>
<path d="M0 0 C2.475 0.495 2.475 0.495 5 1 C5.33 0.67 5.66 0.34 6 0 C12.09664057 -0.57515477 12.09664057 -0.57515477 15.21484375 1.41015625 C17.94039916 5.364299 17.42966898 9.07169606 17.25 13.75 C17.23195313 14.63816406 17.21390625 15.52632812 17.1953125 16.44140625 C17.14827374 18.62870848 17.08257009 20.81379816 17 23 C15.68 23 14.36 23 13 23 C12.67 17.39 12.34 11.78 12 6 C10.35 5.67 8.7 5.34 7 5 C4.06552643 7.93447357 4.53841577 11.18259456 4.375 15.125 C4.33632813 15.87910156 4.29765625 16.63320312 4.2578125 17.41015625 C4.16348969 19.27303184 4.08065338 21.13648255 4 23 C2.68 23 1.36 23 0 23 C0 15.41 0 7.82 0 0 Z " fill="currentColor" transform="translate(290,204)"/>
<path d="M0 0 C1.32 0 2.64 0 4 0 C4.33 5.61 4.66 11.22 5 17 C6.65 17.33 8.3 17.66 10 18 C12.40119059 14.39821412 12.43771322 11.49133631 12.625 7.3125 C12.68300781 6.2596582 12.68300781 6.2596582 12.7421875 5.18554688 C12.8362334 3.45745345 12.9191968 1.72876325 13 0 C14.32 0 15.64 0 17 0 C17 7.59 17 15.18 17 23 C15.35 22.67 13.7 22.34 12 22 C11.34 22.33 10.68 22.66 10 23 C6.62539803 23.36680456 4.70743791 23.45767936 1.8203125 21.58984375 C-0.95420003 17.64241497 -0.43038008 13.94681975 -0.25 9.25 C-0.23195312 8.36183594 -0.21390625 7.47367188 -0.1953125 6.55859375 C-0.14827374 4.37129152 -0.08257009 2.18620184 0 0 Z " fill="currentColor" transform="translate(63,204)"/>
<path d="M0 0 C1.32 0 2.64 0 4 0 C4.06058594 1.13179687 4.12117188 2.26359375 4.18359375 3.4296875 C4.26799917 4.91147145 4.35264717 6.3932416 4.4375 7.875 C4.47681641 8.62136719 4.51613281 9.36773437 4.55664062 10.13671875 C4.71573624 14.19986864 4.71573624 14.19986864 6 18 C8.47266765 17.65555119 8.47266765 17.65555119 11 17 C12.52106634 13.95786733 12.37429338 10.71952428 12.5625 7.375 C12.60568359 6.66859375 12.64886719 5.9621875 12.69335938 5.234375 C12.79944751 3.48981463 12.90022889 1.74493303 13 0 C14.32 0 15.64 0 17 0 C17 7.59 17 15.18 17 23 C16.01 23 15.02 23 14 23 C13.67 22.34 13.34 21.68 13 21 C12.01 21.66 11.02 22.32 10 23 C6.58674818 23.43573427 4.73954778 23.48063967 1.82421875 21.5859375 C-0.95751779 17.64266215 -0.43038136 13.94685321 -0.25 9.25 C-0.23195313 8.36183594 -0.21390625 7.47367188 -0.1953125 6.55859375 C-0.14827374 4.37129152 -0.08257009 2.18620184 0 0 Z " fill="currentColor" transform="translate(343,204)"/>
<path d="M0 0 C4.95 0 9.9 0 15 0 C13.875 6.75 13.875 6.75 11.93359375 9.4296875 C11.53076172 9.996875 11.12792969 10.5640625 10.71289062 11.1484375 C10.29201172 11.71820313 9.87113281 12.28796875 9.4375 12.875 C8.80038086 13.76445312 8.80038086 13.76445312 8.15039062 14.671875 C7.10989834 16.12154965 6.0562628 17.56177551 5 19 C8.3 19 11.6 19 15 19 C15 20.32 15 21.64 15 23 C9.72 23 4.44 23 -1 23 C-1 17.49274837 0.38920606 15.377263 3.5 11.1875 C3.92925781 10.59001953 4.35851562 9.99253906 4.80078125 9.37695312 C5.8567183 7.91037389 6.92697296 6.45412196 8 5 C5.36 4.67 2.72 4.34 0 4 C0 2.68 0 1.36 0 0 Z " fill="currentColor" transform="translate(548,204)"/>
<path d="M0 0 C2.66135342 1.91071528 3.71846213 3.15538639 4.75 6.25 C4.87375 7.11625 4.87375 7.11625 5 8 C3.68 8.33 2.36 8.66 1 9 C0.34 7.68 -0.32 6.36 -1 5 C-3.41619823 4.74969023 -3.41619823 4.74969023 -6 5 C-8.23551759 8.35327639 -8.17283528 8.90743657 -7.625 12.6875 C-7.51414062 13.49574219 -7.40328125 14.30398437 -7.2890625 15.13671875 C-7.19367188 15.75160156 -7.09828125 16.36648437 -7 17 C-5.35 17.33 -3.7 17.66 -2 18 C-1.5875 17.34 -1.175 16.68 -0.75 16 C-0.1725 15.34 0.405 14.68 1 14 C2.32 14 3.64 14 5 14 C4.7153924 17.41529114 4.20339329 18.78498424 1.8125 21.3125 C-1.5472553 23.32835318 -3.14674921 23.64220846 -7 23 C-9.69990662 21.20006226 -11.5418865 19.916227 -13 17 C-13.41676403 12.02287573 -13.65548795 7.48974534 -11.625 2.875 C-8.47235166 -0.76267116 -4.5417782 -0.65653427 0 0 Z " fill="currentColor" transform="translate(459,204)"/>
<path d="M0 0 C1.65 0 3.3 0 5 0 C5 1.65 5 3.3 5 5 C6.32 5 7.64 5 9 5 C9 6.32 9 7.64 9 9 C7.68 9 6.36 9 5 9 C5.33 13.62 5.66 18.24 6 23 C7.65 23.33 9.3 23.66 11 24 C11 25.32 11 26.64 11 28 C4.375 28.25 4.375 28.25 1 26 C-0.38723067 22.54381386 -0.09924977 18.92497653 -0.0625 15.25 C-0.05347656 14.07953125 -0.04445312 12.9090625 -0.03515625 11.703125 C-0.02355469 10.81109375 -0.01195312 9.9190625 0 9 C-0.99 9 -1.98 9 -3 9 C-3 7.68 -3 6.36 -3 5 C-2.01 5 -1.02 5 0 5 C0 3.35 0 1.7 0 0 Z " fill="currentColor" transform="translate(50,199)"/>
<path d="M0 0 C1.32 0 2.64 0 4 0 C4.33 0.66 4.66 1.32 5 2 C5.66 1.34 6.32 0.68 7 0 C9.625 -0.125 9.625 -0.125 12 0 C12 1.32 12 2.64 12 4 C11.195625 4.28875 10.39125 4.5775 9.5625 4.875 C6.8673532 5.73262568 6.8673532 5.73262568 6 8 C5.76827173 10.54615009 5.58105471 13.07396225 5.4375 15.625 C5.39431641 16.33140625 5.35113281 17.0378125 5.30664062 17.765625 C5.20055249 19.51018537 5.09977111 21.25506697 5 23 C3.35 23 1.7 23 0 23 C0 15.41 0 7.82 0 0 Z " fill="currentColor" transform="translate(85,204)"/>
<path d="M0 0 C2.475 0.495 2.475 0.495 5 1 C5.33 0.67 5.66 0.34 6 0 C7.66617115 -0.04063832 9.33388095 -0.042721 11 0 C11 1.32 11 2.64 11 4 C9.35 4.33 7.7 4.66 6 5 C4.8838344 8.71429898 4.6875805 12.39161508 4.4375 16.25 C4.31181641 18.14492187 4.31181641 18.14492187 4.18359375 20.078125 C4.12300781 21.04234375 4.06242188 22.0065625 4 23 C2.68 23 1.36 23 0 23 C0 15.41 0 7.82 0 0 Z " fill="currentColor" transform="translate(244,204)"/>
<path d="M0 0 C3.63 0 7.26 0 11 0 C11 3.3 11 6.6 11 10 C7.37 10 3.74 10 0 10 C0 6.7 0 3.4 0 0 Z " fill="currentColor" transform="translate(708,128)"/>
<path d="M0 0 C3.3 0 6.6 0 10 0 C10 3.3 10 6.6 10 10 C6.7 10 3.4 10 0 10 C0 6.7 0 3.4 0 0 Z " fill="currentColor" transform="translate(676,60)"/>
<path d="M0 0 C1.32 0 2.64 0 4 0 C4 7.59 4 15.18 4 23 C2.68 23 1.36 23 0 23 C0 15.41 0 7.82 0 0 Z " fill="currentColor" transform="translate(539,204)"/>
<path d="M0 0 C1.32 0 2.64 0 4 0 C4 7.59 4 15.18 4 23 C2.68 23 1.36 23 0 23 C0 15.41 0 7.82 0 0 Z " fill="currentColor" transform="translate(313,204)"/>
<path d="M0 0 C1.32 0 2.64 0 4 0 C4 7.59 4 15.18 4 23 C2.68 23 1.36 23 0 23 C0 15.41 0 7.82 0 0 Z " fill="currentColor" transform="translate(280,204)"/>
<path d="M0 0 C2.5 0.125 2.5 0.125 3.5 1.125 C3.625 4.125 3.625 4.125 3.5 7.125 C2.5 8.125 2.5 8.125 0.0625 8.375 C-0.783125 8.2925 -1.62875 8.21 -2.5 8.125 C-4.5 5.125 -4.5 5.125 -4.1875 3 C-3.16882662 0.22179988 -3.0543102 0.15271551 0 0 Z " fill="currentColor" transform="translate(490.5,127.875)"/>
<path d="M0 0 C2.5 0.125 2.5 0.125 3.5 1.125 C3.54080783 3.12458364 3.54254356 5.12545254 3.5 7.125 C0.625 7.75 0.625 7.75 -2.5 8.125 C-3.16 7.465 -3.82 6.805 -4.5 6.125 C-3.77607362 0.18880368 -3.77607362 0.18880368 0 0 Z " fill="currentColor" transform="translate(480.5,127.875)"/>
<path d="M0 0 C1.65 0 3.3 0 5 0 C5 1.65 5 3.3 5 5 C3.35 5 1.7 5 0 5 C0 3.35 0 1.7 0 0 Z " fill="currentColor" transform="translate(539,197)"/>
<path d="M0 0 C1.65 0 3.3 0 5 0 C5 1.65 5 3.3 5 5 C3.35 5 1.7 5 0 5 C0 3.35 0 1.7 0 0 Z " fill="currentColor" transform="translate(312,197)"/>
<path d="M0 0 C1.65 0 3.3 0 5 0 C4.67 1.65 4.34 3.3 4 5 C2.68 4.67 1.36 4.34 0 4 C0 2.68 0 1.36 0 0 Z " fill="currentColor" transform="translate(108,196)"/>
<path d="M0 0 C2.475 0.495 2.475 0.495 5 1 C4.67 2.32 4.34 3.64 4 5 C2.68 5 1.36 5 0 5 C0 3.35 0 1.7 0 0 Z " fill="currentColor" transform="translate(102,196)"/>
<path d="M0 0 C1.32 0 2.64 0 4 0 C4 1.65 4 3.3 4 5 C2.68 5 1.36 5 0 5 C0 3.35 0 1.7 0 0 Z " fill="currentColor" transform="translate(280,197)"/>
</svg>
